%TF.GenerationSoftware,KiCad,Pcbnew,7.0.5*%
%TF.CreationDate,2024-07-05T18:30:48+07:00*%
%TF.ProjectId,project233,70726f6a-6563-4743-9233-332e6b696361,rev?*%
%TF.SameCoordinates,Original*%
%TF.FileFunction,Paste,Top*%
%TF.FilePolarity,Positive*%
%FSLAX46Y46*%
G04 Gerber Fmt 4.6, Leading zero omitted, Abs format (unit mm)*
G04 Created by KiCad (PCBNEW 7.0.5) date 2024-07-05 18:30:48*
%MOMM*%
%LPD*%
G01*
G04 APERTURE LIST*
G04 Aperture macros list*
%AMRoundRect*
0 Rectangle with rounded corners*
0 $1 Rounding radius*
0 $2 $3 $4 $5 $6 $7 $8 $9 X,Y pos of 4 corners*
0 Add a 4 corners polygon primitive as box body*
4,1,4,$2,$3,$4,$5,$6,$7,$8,$9,$2,$3,0*
0 Add four circle primitives for the rounded corners*
1,1,$1+$1,$2,$3*
1,1,$1+$1,$4,$5*
1,1,$1+$1,$6,$7*
1,1,$1+$1,$8,$9*
0 Add four rect primitives between the rounded corners*
20,1,$1+$1,$2,$3,$4,$5,0*
20,1,$1+$1,$4,$5,$6,$7,0*
20,1,$1+$1,$6,$7,$8,$9,0*
20,1,$1+$1,$8,$9,$2,$3,0*%
G04 Aperture macros list end*
%ADD10RoundRect,0.200000X0.200000X0.275000X-0.200000X0.275000X-0.200000X-0.275000X0.200000X-0.275000X0*%
%ADD11RoundRect,0.250000X-0.250000X-0.475000X0.250000X-0.475000X0.250000X0.475000X-0.250000X0.475000X0*%
%ADD12R,2.000000X1.500000*%
%ADD13R,2.000000X3.800000*%
%ADD14RoundRect,0.200000X-0.275000X0.200000X-0.275000X-0.200000X0.275000X-0.200000X0.275000X0.200000X0*%
%ADD15RoundRect,0.250000X-0.300000X0.300000X-0.300000X-0.300000X0.300000X-0.300000X0.300000X0.300000X0*%
%ADD16RoundRect,0.250000X0.250000X0.475000X-0.250000X0.475000X-0.250000X-0.475000X0.250000X-0.475000X0*%
%ADD17RoundRect,0.250000X-0.475000X0.250000X-0.475000X-0.250000X0.475000X-0.250000X0.475000X0.250000X0*%
%ADD18RoundRect,0.200000X-0.200000X-0.275000X0.200000X-0.275000X0.200000X0.275000X-0.200000X0.275000X0*%
%ADD19RoundRect,0.075000X-0.662500X-0.075000X0.662500X-0.075000X0.662500X0.075000X-0.662500X0.075000X0*%
%ADD20RoundRect,0.075000X-0.075000X-0.662500X0.075000X-0.662500X0.075000X0.662500X-0.075000X0.662500X0*%
%ADD21R,1.200000X1.400000*%
%ADD22RoundRect,0.243750X-0.243750X-0.456250X0.243750X-0.456250X0.243750X0.456250X-0.243750X0.456250X0*%
%ADD23RoundRect,0.243750X0.243750X0.456250X-0.243750X0.456250X-0.243750X-0.456250X0.243750X-0.456250X0*%
%ADD24R,1.000000X1.000000*%
%ADD25RoundRect,0.200000X0.275000X-0.200000X0.275000X0.200000X-0.275000X0.200000X-0.275000X-0.200000X0*%
%ADD26RoundRect,0.250000X0.300000X-0.300000X0.300000X0.300000X-0.300000X0.300000X-0.300000X-0.300000X0*%
%ADD27RoundRect,0.250000X0.475000X-0.250000X0.475000X0.250000X-0.475000X0.250000X-0.475000X-0.250000X0*%
%ADD28R,7.400000X6.500000*%
%ADD29R,0.355600X0.762000*%
%ADD30RoundRect,0.243750X0.456250X-0.243750X0.456250X0.243750X-0.456250X0.243750X-0.456250X-0.243750X0*%
%ADD31RoundRect,0.150000X0.587500X0.150000X-0.587500X0.150000X-0.587500X-0.150000X0.587500X-0.150000X0*%
%ADD32RoundRect,0.150000X0.150000X-0.512500X0.150000X0.512500X-0.150000X0.512500X-0.150000X-0.512500X0*%
%ADD33R,1.380000X0.450000*%
%ADD34R,1.300000X1.650000*%
%ADD35R,1.550000X1.425000*%
%ADD36R,1.900000X1.800000*%
%ADD37R,1.900000X1.000000*%
G04 APERTURE END LIST*
D10*
%TO.C,R2*%
X167991500Y-90170000D03*
X166341500Y-90170000D03*
%TD*%
D11*
%TO.C,C22*%
X150053000Y-121158000D03*
X151953000Y-121158000D03*
%TD*%
D12*
%TO.C,U4*%
X187300000Y-115584000D03*
X187300000Y-113284000D03*
D13*
X181000000Y-113284000D03*
D12*
X187300000Y-110984000D03*
%TD*%
D14*
%TO.C,R13*%
X161565000Y-117903000D03*
X161565000Y-119553000D03*
%TD*%
%TO.C,R8*%
X119126000Y-104331000D03*
X119126000Y-105981000D03*
%TD*%
D15*
%TO.C,D5*%
X201676000Y-120012000D03*
X201676000Y-122812000D03*
%TD*%
D11*
%TO.C,C5*%
X182692000Y-91694000D03*
X184592000Y-91694000D03*
%TD*%
D16*
%TO.C,C10*%
X170556000Y-103124000D03*
X168656000Y-103124000D03*
%TD*%
%TO.C,C6*%
X169069500Y-100159000D03*
X167169500Y-100159000D03*
%TD*%
%TO.C,C27*%
X187640000Y-105410000D03*
X185740000Y-105410000D03*
%TD*%
D17*
%TO.C,FB1*%
X191770000Y-105614000D03*
X191770000Y-107514000D03*
%TD*%
D18*
%TO.C,R5*%
X185357000Y-118745000D03*
X187007000Y-118745000D03*
%TD*%
D11*
%TO.C,C11*%
X179456000Y-81280000D03*
X181356000Y-81280000D03*
%TD*%
D17*
%TO.C,C15*%
X191770000Y-110125001D03*
X191770000Y-112025001D03*
%TD*%
D11*
%TO.C,C12*%
X199710000Y-115570000D03*
X201610000Y-115570000D03*
%TD*%
D19*
%TO.C,U1*%
X172847000Y-93853000D03*
X172847000Y-94353000D03*
X172847000Y-94853000D03*
X172847000Y-95353000D03*
X172847000Y-95853000D03*
X172847000Y-96353000D03*
X172847000Y-96853000D03*
X172847000Y-97353000D03*
X172847000Y-97853000D03*
X172847000Y-98353000D03*
X172847000Y-98853000D03*
X172847000Y-99353000D03*
D20*
X174259500Y-100765500D03*
X174759500Y-100765500D03*
X175259500Y-100765500D03*
X175759500Y-100765500D03*
X176259500Y-100765500D03*
X176759500Y-100765500D03*
X177259500Y-100765500D03*
X177759500Y-100765500D03*
X178259500Y-100765500D03*
X178759500Y-100765500D03*
X179259500Y-100765500D03*
X179759500Y-100765500D03*
D19*
X181172000Y-99353000D03*
X181172000Y-98853000D03*
X181172000Y-98353000D03*
X181172000Y-97853000D03*
X181172000Y-97353000D03*
X181172000Y-96853000D03*
X181172000Y-96353000D03*
X181172000Y-95853000D03*
X181172000Y-95353000D03*
X181172000Y-94853000D03*
X181172000Y-94353000D03*
X181172000Y-93853000D03*
D20*
X179759500Y-92440500D03*
X179259500Y-92440500D03*
X178759500Y-92440500D03*
X178259500Y-92440500D03*
X177759500Y-92440500D03*
X177259500Y-92440500D03*
X176759500Y-92440500D03*
X176259500Y-92440500D03*
X175759500Y-92440500D03*
X175259500Y-92440500D03*
X174759500Y-92440500D03*
X174259500Y-92440500D03*
%TD*%
D18*
%TO.C,R6*%
X123381000Y-99822000D03*
X125031000Y-99822000D03*
%TD*%
D11*
%TO.C,C3*%
X151704000Y-102870000D03*
X153604000Y-102870000D03*
%TD*%
D16*
%TO.C,C16*%
X187640000Y-107950000D03*
X185740000Y-107950000D03*
%TD*%
D21*
%TO.C,HSE1*%
X167269500Y-95567000D03*
X167269500Y-97767000D03*
X168969500Y-97767000D03*
X168969500Y-95567000D03*
%TD*%
D22*
%TO.C,D4*%
X185244500Y-120650000D03*
X187119500Y-120650000D03*
%TD*%
D23*
%TO.C,D3*%
X201216500Y-107199000D03*
X199341500Y-107199000D03*
%TD*%
D17*
%TO.C,C13*%
X201676000Y-110059000D03*
X201676000Y-111959000D03*
%TD*%
D11*
%TO.C,C1*%
X174498000Y-86944000D03*
X176398000Y-86944000D03*
%TD*%
D24*
%TO.C,SW3*%
X163322000Y-118110000D03*
X170942000Y-118110000D03*
%TD*%
D11*
%TO.C,C23*%
X163388000Y-121395000D03*
X165288000Y-121395000D03*
%TD*%
D16*
%TO.C,C8*%
X180499500Y-103715000D03*
X178599500Y-103715000D03*
%TD*%
D17*
%TO.C,FB2*%
X194818000Y-105614000D03*
X194818000Y-107514000D03*
%TD*%
D11*
%TO.C,C21*%
X199560998Y-95810499D03*
X201460998Y-95810499D03*
%TD*%
D25*
%TO.C,R7*%
X129286000Y-105219000D03*
X129286000Y-103569000D03*
%TD*%
D17*
%TO.C,C17*%
X183133999Y-118684000D03*
X183133999Y-120584000D03*
%TD*%
%TO.C,C18*%
X180848000Y-118684000D03*
X180848000Y-120584000D03*
%TD*%
D14*
%TO.C,R3*%
X197208998Y-87111500D03*
X197208998Y-88761500D03*
%TD*%
D25*
%TO.C,R4*%
X197358000Y-108151000D03*
X197358000Y-106501000D03*
%TD*%
D11*
%TO.C,C28*%
X199710000Y-117613000D03*
X201610000Y-117613000D03*
%TD*%
%TO.C,C2*%
X174498000Y-89408000D03*
X176398000Y-89408000D03*
%TD*%
D10*
%TO.C,R11*%
X164848000Y-81153000D03*
X163198000Y-81153000D03*
%TD*%
D26*
%TO.C,D2*%
X197462999Y-94670500D03*
X197462999Y-91870500D03*
%TD*%
D25*
%TO.C,R10*%
X142240000Y-118173000D03*
X142240000Y-116523000D03*
%TD*%
D24*
%TO.C,SW2*%
X149987000Y-118110000D03*
X157607000Y-118110000D03*
%TD*%
D27*
%TO.C,C7*%
X171450000Y-90358000D03*
X171450000Y-88458000D03*
%TD*%
D16*
%TO.C,C9*%
X170556000Y-105664000D03*
X168656000Y-105664000D03*
%TD*%
D17*
%TO.C,C19*%
X126238000Y-107320000D03*
X126238000Y-109220000D03*
%TD*%
D28*
%TO.C,U5*%
X198004000Y-136652000D03*
X120004000Y-136652000D03*
%TD*%
D29*
%TO.C,U2*%
X125741222Y-102720373D03*
X124941221Y-102720373D03*
X124141223Y-102720373D03*
X123341222Y-102720373D03*
X122541224Y-102720373D03*
X121741223Y-102720373D03*
X120941222Y-102720373D03*
X120941222Y-105107973D03*
X121741223Y-105107973D03*
X122541221Y-105107973D03*
X123341222Y-105107973D03*
X124141220Y-105107973D03*
X124941221Y-105107973D03*
X125741222Y-105107973D03*
%TD*%
D30*
%TO.C,D1*%
X166658500Y-86872500D03*
X166658500Y-84997500D03*
%TD*%
D14*
%TO.C,R9*%
X198374000Y-121095000D03*
X198374000Y-122745000D03*
%TD*%
D24*
%TO.C,SW1*%
X151892000Y-99822000D03*
X159512000Y-99822000D03*
%TD*%
D14*
%TO.C,R12*%
X148209000Y-117793000D03*
X148209000Y-119443000D03*
%TD*%
D31*
%TO.C,Q1*%
X139875500Y-118298000D03*
X139875500Y-116398000D03*
X138000500Y-117348000D03*
%TD*%
D17*
%TO.C,C20*%
X123952002Y-107319999D03*
X123952002Y-109219999D03*
%TD*%
D11*
%TO.C,C4*%
X167169500Y-93047000D03*
X169069500Y-93047000D03*
%TD*%
D32*
%TO.C,U3*%
X197424000Y-112522000D03*
X198374000Y-112522000D03*
X199324000Y-112522000D03*
X199324000Y-110247000D03*
X197424000Y-110247000D03*
%TD*%
D17*
%TO.C,C14*%
X194945000Y-110120000D03*
X194945000Y-112020000D03*
%TD*%
D25*
%TO.C,R1*%
X149860000Y-101155000D03*
X149860000Y-99505000D03*
%TD*%
D26*
%TO.C,D6*%
X194564000Y-122823000D03*
X194564000Y-120023000D03*
%TD*%
D33*
%TO.C,J1*%
X200067000Y-91014500D03*
X200067000Y-90364500D03*
X200067000Y-89714500D03*
X200067000Y-89064500D03*
X200067000Y-88414500D03*
D34*
X202727000Y-93089500D03*
D35*
X200152000Y-92202000D03*
D36*
X202727000Y-90864500D03*
D37*
X202727000Y-88164500D03*
D35*
X200152000Y-87227000D03*
D34*
X202727000Y-86339500D03*
%TD*%
M02*
