M48
; DRILL file {KiCad 7.0.5} date Fri Jul  5 18:46:25 2024
; FORMAT={-:-/ absolute / inch / decimal}
; #@! TF.CreationDate,2024-07-05T18:46:25+07:00
; #@! TF.GenerationSoftware,Kicad,Pcbnew,7.0.5
; #@! TF.FileFunction,Plated,1,2,PTH
FMAT,2
INCH
; #@! TA.AperFunction,Plated,PTH,ViaDrill
T1C0.0120
; #@! TA.AperFunction,Plated,PTH,ViaDrill
T2C0.0200
; #@! TA.AperFunction,Plated,PTH,ComponentDrill
T3C0.0394
%
G90
G05
T1
X5.98Y-3.86
X6.73Y-3.83
X6.89Y-3.77
X6.94Y-3.76
X7.36Y-3.78
X7.39Y-3.74
T2
X4.53Y-5.38
X4.725Y-5.195
X4.725Y-5.55
X4.77Y-3.98
X4.92Y-5.38
X5.01Y-3.98
X5.02Y-4.15
X5.04Y-4.3
X5.05Y-4.23
X5.41Y-4.77
X5.79Y-4.57
X5.81Y-3.695
X5.9Y-3.84
X5.98Y-3.695
X6.05Y-4.125
X6.06Y-4.77
X6.205Y-4.585
X6.205Y-4.715
X6.305Y-3.085
X6.35Y-3.93
X6.355Y-3.42
X6.355Y-3.695
X6.51Y-4.695
X6.61Y-3.18
X6.63Y-3.465
X6.7Y-3.07
X6.705Y-3.37
X6.73Y-4.715
X6.78Y-4.06
X6.785Y-3.97
X6.87Y-3.33
X6.925Y-3.835
X6.945Y-3.165
X6.955Y-4.115
X6.975Y-4.455
X7.005Y-4.82
X7.02Y-3.87
X7.03Y-3.56
X7.14Y-3.28
X7.19Y-3.98
X7.23Y-3.505
X7.245Y-4.15
X7.245Y-4.25
X7.28Y-4.55
X7.335Y-3.61
X7.335Y-3.985
X7.375Y-3.885
X7.46Y-4.1
X7.465Y-4.24
X7.475Y-4.41
X7.605Y-3.33
X7.61Y-3.165
X7.61Y-4.48
X7.625Y-4.055
X7.695Y-3.67
X7.71Y-4.59
X7.77Y-4.675
X7.79Y-4.075
X7.86Y-3.87
X7.88Y-3.33
X7.88Y-3.7
X7.995Y-4.22
X8.0Y-4.465
X8.01Y-4.63
T3
X5.15Y-4.5613
X5.15Y-4.7187
X6.13Y-3.31
X6.13Y-3.41
X6.13Y-3.51
X6.13Y-3.61
X6.3901Y-3.085
X6.4901Y-3.085
X6.5901Y-3.085
X6.7926Y-3.08
X6.8926Y-3.08
X6.9926Y-3.08
X7.0926Y-3.08
X7.47Y-3.08
X7.57Y-3.08
X7.67Y-3.08
X7.77Y-3.08
T0
M30
