%TF.GenerationSoftware,KiCad,Pcbnew,7.0.5*%
%TF.CreationDate,2024-07-05T18:30:48+07:00*%
%TF.ProjectId,project233,70726f6a-6563-4743-9233-332e6b696361,rev?*%
%TF.SameCoordinates,Original*%
%TF.FileFunction,Copper,L2,Bot*%
%TF.FilePolarity,Positive*%
%FSLAX46Y46*%
G04 Gerber Fmt 4.6, Leading zero omitted, Abs format (unit mm)*
G04 Created by KiCad (PCBNEW 7.0.5) date 2024-07-05 18:30:48*
%MOMM*%
%LPD*%
G01*
G04 APERTURE LIST*
%TA.AperFunction,ComponentPad*%
%ADD10R,1.700000X1.700000*%
%TD*%
%TA.AperFunction,ComponentPad*%
%ADD11O,1.700000X1.700000*%
%TD*%
%TA.AperFunction,ComponentPad*%
%ADD12R,2.000000X2.000000*%
%TD*%
%TA.AperFunction,ComponentPad*%
%ADD13C,2.000000*%
%TD*%
%TA.AperFunction,ViaPad*%
%ADD14C,1.016000*%
%TD*%
%TA.AperFunction,ViaPad*%
%ADD15C,0.609600*%
%TD*%
%TA.AperFunction,Conductor*%
%ADD16C,0.381000*%
%TD*%
%TA.AperFunction,Conductor*%
%ADD17C,0.250000*%
%TD*%
%TA.AperFunction,Conductor*%
%ADD18C,0.254000*%
%TD*%
%TA.AperFunction,Conductor*%
%ADD19C,0.508000*%
%TD*%
G04 APERTURE END LIST*
D10*
%TO.P,J2,1,Pin_1*%
%TO.N,VCC*%
X180152000Y-78232000D03*
D11*
%TO.P,J2,2,Pin_2*%
%TO.N,/MCU/SWDIO*%
X177612000Y-78232000D03*
%TO.P,J2,3,Pin_3*%
%TO.N,/MCU/SWCLK*%
X175072000Y-78232000D03*
%TO.P,J2,4,Pin_4*%
%TO.N,GND*%
X172532000Y-78232000D03*
%TD*%
D12*
%TO.P,BZ1,1,-*%
%TO.N,VCC*%
X130810000Y-115856000D03*
D13*
%TO.P,BZ1,2,+*%
%TO.N,Net-(BZ1-+)*%
X130810000Y-119856000D03*
%TD*%
D10*
%TO.P,J4,1,Pin_1*%
%TO.N,GND*%
X162309000Y-78360001D03*
D11*
%TO.P,J4,2,Pin_2*%
%TO.N,Net-(J4-Pin_2)*%
X164849000Y-78360001D03*
%TO.P,J4,3,Pin_3*%
%TO.N,VCC*%
X167389000Y-78360001D03*
%TD*%
D10*
%TO.P,J3,1,Pin_1*%
%TO.N,VCC*%
X189738000Y-78232000D03*
D11*
%TO.P,J3,2,Pin_2*%
%TO.N,GND*%
X192278000Y-78232000D03*
%TO.P,J3,3,Pin_3*%
%TO.N,/MCU/RX*%
X194818000Y-78232000D03*
%TO.P,J3,4,Pin_4*%
%TO.N,/MCU/TX*%
X197358000Y-78232000D03*
%TD*%
D10*
%TO.P,J5,1,Pin_1*%
%TO.N,GND*%
X155702000Y-84074000D03*
D11*
%TO.P,J5,2,Pin_2*%
%TO.N,VCC*%
X155702000Y-86614000D03*
%TO.P,J5,3,Pin_3*%
%TO.N,SCL*%
X155702000Y-89154000D03*
%TO.P,J5,4,Pin_4*%
%TO.N,SDA*%
X155702000Y-91694000D03*
%TD*%
D14*
%TO.N,GND*%
X168402000Y-88011000D03*
X193167000Y-84582000D03*
X115062000Y-136652000D03*
X120015000Y-140970000D03*
X147574000Y-93853000D03*
X189611000Y-107696000D03*
X189484000Y-104140000D03*
X182626000Y-101092000D03*
X151892000Y-93853000D03*
X161417000Y-93853000D03*
X161417000Y-86868000D03*
%TO.N,VCC*%
X186309000Y-101219000D03*
X149860000Y-97536000D03*
X174498000Y-84582000D03*
X183642000Y-89027000D03*
X147066000Y-116078000D03*
X170307000Y-85598000D03*
%TO.N,GND*%
X193294000Y-113792000D03*
X187325000Y-98679000D03*
X127254000Y-101092000D03*
X181356000Y-83312000D03*
X157607000Y-116459000D03*
X200152000Y-84582000D03*
X184023000Y-105410000D03*
X203454000Y-117602000D03*
X200152000Y-93980000D03*
X203073000Y-107188000D03*
X120015000Y-131953000D03*
X127508000Y-105410000D03*
X157607000Y-119761000D03*
X137414000Y-121158000D03*
X197866000Y-103505000D03*
X124968000Y-136652000D03*
X195453000Y-93218000D03*
X186309000Y-91694000D03*
X176403000Y-80391000D03*
X161290000Y-99822000D03*
X165354000Y-119253000D03*
X175895000Y-97409000D03*
X178308000Y-98298000D03*
X121158000Y-101092000D03*
X170180000Y-77978000D03*
X197358000Y-118745000D03*
X153924000Y-121158000D03*
X128016000Y-109220000D03*
X184912000Y-115570000D03*
X177927000Y-122428000D03*
X167894000Y-80772000D03*
X172339000Y-100838000D03*
X178562000Y-90424000D03*
X193294000Y-80391000D03*
X203200000Y-113411000D03*
X189865000Y-112014000D03*
X160147000Y-78359000D03*
X176657000Y-104521000D03*
X153670000Y-104775000D03*
X170942000Y-119761000D03*
X184023000Y-107950000D03*
D15*
%TO.N,/MCU/NRST*%
X151892000Y-98044000D03*
X170942000Y-97282000D03*
D14*
%TO.N,VDDA*%
X193675000Y-102997000D03*
X172212000Y-103124000D03*
%TO.N,+1V8*%
X128270000Y-107442000D03*
X177165000Y-113157000D03*
%TO.N,+5V*%
X199644000Y-98298000D03*
X195834000Y-116586000D03*
D15*
%TO.N,/MCU/RX*%
X186944000Y-96012000D03*
%TO.N,/MCU/TX*%
X187706000Y-94996000D03*
%TO.N,SCL*%
X176276000Y-95504000D03*
%TO.N,SDA*%
X175006000Y-95758000D03*
%TD*%
D16*
%TO.N,VCC*%
X173482000Y-85598000D02*
X174498000Y-84582000D01*
X170307000Y-85598000D02*
X173482000Y-85598000D01*
X183642000Y-98552000D02*
X186309000Y-101219000D01*
X183642000Y-89027000D02*
X183642000Y-98552000D01*
%TO.N,VDDA*%
X193675000Y-102997000D02*
X172339000Y-102997000D01*
X172339000Y-102997000D02*
X172212000Y-103124000D01*
%TO.N,VCC*%
X180152000Y-80071000D02*
X180152000Y-78232000D01*
X174498000Y-84582000D02*
X175641000Y-84582000D01*
X175641000Y-84582000D02*
X180152000Y-80071000D01*
D17*
%TO.N,GND*%
X193294000Y-84455000D02*
X193294000Y-80391000D01*
X193167000Y-84582000D02*
X193294000Y-84455000D01*
X162560000Y-82804000D02*
X161417000Y-83947000D01*
X161417000Y-83947000D02*
X161417000Y-86868000D01*
X165862000Y-82804000D02*
X162560000Y-82804000D01*
X167894000Y-80772000D02*
X165862000Y-82804000D01*
D18*
X160147000Y-78359000D02*
X162560000Y-80772000D01*
X162560000Y-80772000D02*
X167894000Y-80772000D01*
X175895000Y-97409000D02*
X178562000Y-94742000D01*
X178562000Y-94742000D02*
X178562000Y-90424000D01*
D17*
X189484000Y-104140000D02*
X189611000Y-104267000D01*
X189611000Y-104267000D02*
X189611000Y-107696000D01*
X169992000Y-80772000D02*
X172532000Y-78232000D01*
X167894000Y-80772000D02*
X169992000Y-80772000D01*
D18*
X127254000Y-105156000D02*
X127508000Y-105410000D01*
X127254000Y-101092000D02*
X127254000Y-105156000D01*
X121158000Y-101092000D02*
X127254000Y-101092000D01*
D16*
%TO.N,VCC*%
X146844000Y-115856000D02*
X130810000Y-115856000D01*
X149860000Y-92456000D02*
X155702000Y-86614000D01*
X147066000Y-116078000D02*
X146844000Y-115856000D01*
X149860000Y-97536000D02*
X149860000Y-92456000D01*
D18*
%TO.N,GND*%
X165354000Y-119253000D02*
X158115000Y-119253000D01*
X184023000Y-109347000D02*
X184023000Y-107950000D01*
X183896000Y-108077000D02*
X184023000Y-107950000D01*
X189865000Y-112014000D02*
X186690000Y-112014000D01*
X170942000Y-119761000D02*
X165862000Y-119761000D01*
X158115000Y-119253000D02*
X157607000Y-119761000D01*
X177546000Y-105410000D02*
X176657000Y-104521000D01*
X178562000Y-90424000D02*
X178562000Y-86106000D01*
X183896000Y-114554000D02*
X183896000Y-108077000D01*
X184912000Y-115570000D02*
X183896000Y-114554000D01*
X186309000Y-88265000D02*
X186309000Y-91694000D01*
X137414000Y-121158000D02*
X153924000Y-121158000D01*
X178562000Y-86106000D02*
X181356000Y-83312000D01*
X193294000Y-113792000D02*
X197866000Y-109220000D01*
X197866000Y-109220000D02*
X197866000Y-103505000D01*
X165862000Y-119761000D02*
X165354000Y-119253000D01*
X186690000Y-112014000D02*
X184023000Y-109347000D01*
X181356000Y-83312000D02*
X186309000Y-88265000D01*
X184023000Y-105410000D02*
X177546000Y-105410000D01*
%TO.N,/MCU/NRST*%
X152654000Y-97282000D02*
X170942000Y-97282000D01*
X151892000Y-98044000D02*
X152654000Y-97282000D01*
D16*
%TO.N,+1V8*%
X128270000Y-107442000D02*
X129540000Y-107442000D01*
X129540000Y-107442000D02*
X135255000Y-113157000D01*
X135255000Y-113157000D02*
X177165000Y-113157000D01*
D19*
%TO.N,+5V*%
X199644000Y-112776000D02*
X199644000Y-98298000D01*
X195834000Y-116586000D02*
X199644000Y-112776000D01*
D18*
%TO.N,/MCU/RX*%
X194818000Y-85344000D02*
X194818000Y-78232000D01*
X186944000Y-96012000D02*
X186944000Y-93218000D01*
X186944000Y-93218000D02*
X194818000Y-85344000D01*
%TO.N,/MCU/TX*%
X187706000Y-94996000D02*
X196342000Y-86360000D01*
X196342000Y-86360000D02*
X196342000Y-79248000D01*
X196342000Y-79248000D02*
X197358000Y-78232000D01*
%TO.N,SCL*%
X169926000Y-89154000D02*
X155702000Y-89154000D01*
X176276000Y-95504000D02*
X169926000Y-89154000D01*
%TO.N,SDA*%
X155956000Y-91440000D02*
X155702000Y-91694000D01*
X175006000Y-95758000D02*
X170688000Y-91440000D01*
X170688000Y-91440000D02*
X155956000Y-91440000D01*
%TD*%
%TA.AperFunction,Conductor*%
%TO.N,GND*%
G36*
X200792167Y-75057475D02*
G01*
X200954604Y-75077723D01*
X200958943Y-75078423D01*
X201199817Y-75126336D01*
X201428362Y-75174257D01*
X201432469Y-75175266D01*
X201492507Y-75192198D01*
X201668938Y-75241956D01*
X201892797Y-75308603D01*
X201896555Y-75309854D01*
X202127212Y-75394948D01*
X202344914Y-75479896D01*
X202348278Y-75481326D01*
X202571124Y-75584059D01*
X202572222Y-75584581D01*
X202781719Y-75686998D01*
X202784751Y-75688587D01*
X202870633Y-75736683D01*
X202998820Y-75808471D01*
X203000128Y-75809227D01*
X203200442Y-75928589D01*
X203203106Y-75930271D01*
X203317815Y-76006917D01*
X203407013Y-76066517D01*
X203408548Y-76067577D01*
X203598317Y-76203069D01*
X203600648Y-76204819D01*
X203793225Y-76356635D01*
X203794912Y-76358014D01*
X203972778Y-76508659D01*
X203974779Y-76510430D01*
X204061179Y-76590297D01*
X204154868Y-76676902D01*
X204156622Y-76678589D01*
X204321408Y-76843375D01*
X204323096Y-76845130D01*
X204489570Y-77025221D01*
X204491343Y-77027223D01*
X204541205Y-77086095D01*
X204641974Y-77205073D01*
X204643352Y-77206760D01*
X204795181Y-77399354D01*
X204796950Y-77401711D01*
X204858987Y-77488598D01*
X204913861Y-77565454D01*
X204932384Y-77591396D01*
X204933476Y-77592978D01*
X205069718Y-77796879D01*
X205071429Y-77799588D01*
X205190736Y-77999813D01*
X205191569Y-78001255D01*
X205311408Y-78215240D01*
X205313007Y-78218293D01*
X205319709Y-78232000D01*
X205415369Y-78427676D01*
X205415974Y-78428949D01*
X205518663Y-78651700D01*
X205520117Y-78655120D01*
X205605052Y-78872792D01*
X205690140Y-79103435D01*
X205691395Y-79107204D01*
X205758033Y-79331031D01*
X205824738Y-79567551D01*
X205825746Y-79571658D01*
X205873662Y-79800180D01*
X205903949Y-79952442D01*
X205921567Y-80041010D01*
X205922280Y-80045426D01*
X205951167Y-80277178D01*
X205979995Y-80520743D01*
X205980372Y-80525470D01*
X205990039Y-80759191D01*
X205993952Y-80858760D01*
X205994000Y-80861194D01*
X205994000Y-144138779D01*
X205993952Y-144141214D01*
X205990020Y-144241282D01*
X205980373Y-144474515D01*
X205979996Y-144479242D01*
X205951150Y-144722959D01*
X205922280Y-144954561D01*
X205921565Y-144958988D01*
X205873637Y-145199940D01*
X205825749Y-145428331D01*
X205824740Y-145432438D01*
X205758033Y-145668965D01*
X205691399Y-145892783D01*
X205690144Y-145896552D01*
X205605028Y-146127271D01*
X205520122Y-146344865D01*
X205518668Y-146348285D01*
X205415973Y-146571050D01*
X205415368Y-146572323D01*
X205313011Y-146781700D01*
X205311405Y-146784765D01*
X205191557Y-146998766D01*
X205190724Y-147000208D01*
X205071446Y-147200383D01*
X205069735Y-147203092D01*
X204933448Y-147407060D01*
X204932356Y-147408641D01*
X204796967Y-147598265D01*
X204795198Y-147600622D01*
X204643348Y-147793242D01*
X204641969Y-147794929D01*
X204491354Y-147972761D01*
X204489570Y-147974776D01*
X204323096Y-148154867D01*
X204321408Y-148156622D01*
X204156622Y-148321408D01*
X204154867Y-148323096D01*
X203974776Y-148489570D01*
X203972761Y-148491354D01*
X203794929Y-148641969D01*
X203793242Y-148643348D01*
X203600622Y-148795198D01*
X203598265Y-148796967D01*
X203408641Y-148932356D01*
X203407060Y-148933448D01*
X203203092Y-149069735D01*
X203200383Y-149071446D01*
X203000208Y-149190724D01*
X202998766Y-149191557D01*
X202784765Y-149311405D01*
X202781700Y-149313011D01*
X202572323Y-149415368D01*
X202571050Y-149415973D01*
X202348285Y-149518668D01*
X202344865Y-149520122D01*
X202127270Y-149605028D01*
X201896556Y-149690142D01*
X201892788Y-149691397D01*
X201770370Y-149727844D01*
X201734986Y-149733000D01*
X117265013Y-149733000D01*
X117229631Y-149727845D01*
X117206186Y-149720865D01*
X117107215Y-149691399D01*
X117103446Y-149690144D01*
X116872747Y-149605035D01*
X116758043Y-149560277D01*
X116655133Y-149520122D01*
X116651713Y-149518668D01*
X116428948Y-149415973D01*
X116427675Y-149415368D01*
X116293469Y-149349759D01*
X116218286Y-149313004D01*
X116215266Y-149311422D01*
X116055303Y-149221838D01*
X116001232Y-149191557D01*
X115999790Y-149190724D01*
X115932512Y-149150635D01*
X115799606Y-149071440D01*
X115796906Y-149069735D01*
X115592938Y-148933448D01*
X115591380Y-148932372D01*
X115401714Y-148796953D01*
X115399376Y-148795198D01*
X115206756Y-148643348D01*
X115205069Y-148641969D01*
X115093846Y-148547769D01*
X115027224Y-148491343D01*
X115025222Y-148489570D01*
X114845131Y-148323096D01*
X114843376Y-148321408D01*
X114678590Y-148156622D01*
X114676915Y-148154880D01*
X114510428Y-147974776D01*
X114508662Y-147972781D01*
X114358029Y-147794929D01*
X114356650Y-147793242D01*
X114277863Y-147693302D01*
X114204789Y-147600607D01*
X114203056Y-147598299D01*
X114067608Y-147408592D01*
X114066550Y-147407060D01*
X114019250Y-147336271D01*
X113930261Y-147203089D01*
X113928571Y-147200414D01*
X113809253Y-147000172D01*
X113808441Y-146998766D01*
X113688562Y-146784706D01*
X113687008Y-146781740D01*
X113584620Y-146572302D01*
X113584067Y-146571139D01*
X113481323Y-146348268D01*
X113479886Y-146344888D01*
X113394955Y-146127228D01*
X113309854Y-145896552D01*
X113308599Y-145892783D01*
X113241976Y-145669001D01*
X113175252Y-145432413D01*
X113174256Y-145428362D01*
X113126381Y-145200038D01*
X113078430Y-144958972D01*
X113077718Y-144954560D01*
X113048865Y-144723088D01*
X113030430Y-144567333D01*
X113030000Y-144560039D01*
X113030000Y-119856005D01*
X129304357Y-119856005D01*
X129324890Y-120103812D01*
X129324892Y-120103824D01*
X129385936Y-120344881D01*
X129485826Y-120572606D01*
X129621833Y-120780782D01*
X129621836Y-120780785D01*
X129790256Y-120963738D01*
X129986491Y-121116474D01*
X130205190Y-121234828D01*
X130440386Y-121315571D01*
X130685665Y-121356500D01*
X130934335Y-121356500D01*
X131179614Y-121315571D01*
X131414810Y-121234828D01*
X131633509Y-121116474D01*
X131829744Y-120963738D01*
X131998164Y-120780785D01*
X132134173Y-120572607D01*
X132234063Y-120344881D01*
X132295108Y-120103821D01*
X132315643Y-119856000D01*
X132295108Y-119608179D01*
X132234063Y-119367119D01*
X132134173Y-119139393D01*
X132134173Y-119139392D01*
X131998166Y-118931217D01*
X131976557Y-118907744D01*
X131829744Y-118748262D01*
X131633509Y-118595526D01*
X131633507Y-118595525D01*
X131633506Y-118595524D01*
X131414811Y-118477172D01*
X131414802Y-118477169D01*
X131179616Y-118396429D01*
X130934335Y-118355500D01*
X130685665Y-118355500D01*
X130440383Y-118396429D01*
X130205197Y-118477169D01*
X130205188Y-118477172D01*
X129986493Y-118595524D01*
X129790257Y-118748261D01*
X129621833Y-118931217D01*
X129485826Y-119139393D01*
X129385936Y-119367118D01*
X129324892Y-119608175D01*
X129324890Y-119608187D01*
X129304357Y-119855994D01*
X129304357Y-119856005D01*
X113030000Y-119856005D01*
X113030000Y-116903870D01*
X129309500Y-116903870D01*
X129309501Y-116903876D01*
X129315908Y-116963483D01*
X129366202Y-117098328D01*
X129366206Y-117098335D01*
X129452452Y-117213544D01*
X129452455Y-117213547D01*
X129567664Y-117299793D01*
X129567671Y-117299797D01*
X129702517Y-117350091D01*
X129702516Y-117350091D01*
X129709444Y-117350835D01*
X129762127Y-117356500D01*
X131857872Y-117356499D01*
X131917483Y-117350091D01*
X132052331Y-117299796D01*
X132167546Y-117213546D01*
X132253796Y-117098331D01*
X132304091Y-116963483D01*
X132310500Y-116903873D01*
X132310500Y-116671000D01*
X132330185Y-116603961D01*
X132382989Y-116558206D01*
X132434500Y-116547000D01*
X146098836Y-116547000D01*
X146165875Y-116566685D01*
X146208195Y-116612548D01*
X146223403Y-116641002D01*
X146223405Y-116641005D01*
X146349431Y-116794568D01*
X146502994Y-116920594D01*
X146503001Y-116920598D01*
X146678191Y-117014239D01*
X146678193Y-117014239D01*
X146678196Y-117014241D01*
X146868299Y-117071908D01*
X146868298Y-117071908D01*
X146887769Y-117073825D01*
X147066000Y-117091380D01*
X147263701Y-117071908D01*
X147453804Y-117014241D01*
X147629004Y-116920595D01*
X147782568Y-116794568D01*
X147908595Y-116641004D01*
X147937995Y-116586000D01*
X194820620Y-116586000D01*
X194840091Y-116783699D01*
X194897760Y-116973808D01*
X194991401Y-117148998D01*
X194991405Y-117149005D01*
X195117431Y-117302568D01*
X195270994Y-117428594D01*
X195271001Y-117428598D01*
X195446191Y-117522239D01*
X195446193Y-117522239D01*
X195446196Y-117522241D01*
X195636299Y-117579908D01*
X195636298Y-117579908D01*
X195654024Y-117581653D01*
X195834000Y-117599380D01*
X196031701Y-117579908D01*
X196221804Y-117522241D01*
X196397004Y-117428595D01*
X196550568Y-117302568D01*
X196676595Y-117149004D01*
X196770241Y-116973804D01*
X196827908Y-116783701D01*
X196837170Y-116689657D01*
X196863330Y-116624870D01*
X196872883Y-116614139D01*
X200132264Y-113354758D01*
X200145883Y-113342988D01*
X200165294Y-113328539D01*
X200199075Y-113288279D01*
X200202709Y-113284313D01*
X200208583Y-113278441D01*
X200228534Y-113253207D01*
X200229535Y-113251978D01*
X200278667Y-113193427D01*
X200278670Y-113193420D01*
X200282637Y-113187390D01*
X200282683Y-113187420D01*
X200286795Y-113180965D01*
X200286748Y-113180936D01*
X200290532Y-113174799D01*
X200290539Y-113174791D01*
X200322798Y-113105608D01*
X200323562Y-113104031D01*
X200357824Y-113035811D01*
X200357827Y-113035795D01*
X200360293Y-113029024D01*
X200360346Y-113029043D01*
X200362858Y-113021815D01*
X200362807Y-113021798D01*
X200365077Y-113014945D01*
X200365077Y-113014943D01*
X200365079Y-113014940D01*
X200380518Y-112940162D01*
X200380901Y-112938440D01*
X200398500Y-112864188D01*
X200398499Y-112864185D01*
X200399339Y-112857012D01*
X200399394Y-112857018D01*
X200400172Y-112849409D01*
X200400116Y-112849405D01*
X200400744Y-112842212D01*
X200400746Y-112842206D01*
X200398622Y-112769196D01*
X200398526Y-112765903D01*
X200398500Y-112764100D01*
X200398500Y-99012715D01*
X200418185Y-98945676D01*
X200426639Y-98934058D01*
X200486595Y-98861004D01*
X200580241Y-98685804D01*
X200637908Y-98495701D01*
X200657380Y-98298000D01*
X200637908Y-98100299D01*
X200580241Y-97910196D01*
X200580239Y-97910193D01*
X200580239Y-97910191D01*
X200486598Y-97735001D01*
X200486594Y-97734994D01*
X200360568Y-97581431D01*
X200207005Y-97455405D01*
X200206998Y-97455401D01*
X200031808Y-97361760D01*
X199873905Y-97313861D01*
X199841701Y-97304092D01*
X199841699Y-97304091D01*
X199841701Y-97304091D01*
X199661725Y-97286365D01*
X199644000Y-97284620D01*
X199643999Y-97284620D01*
X199446300Y-97304091D01*
X199256191Y-97361760D01*
X199081001Y-97455401D01*
X199080994Y-97455405D01*
X198927431Y-97581431D01*
X198801405Y-97734994D01*
X198801401Y-97735001D01*
X198707760Y-97910191D01*
X198650091Y-98100300D01*
X198630620Y-98297999D01*
X198650091Y-98495699D01*
X198707760Y-98685808D01*
X198801401Y-98860998D01*
X198801402Y-98860999D01*
X198801405Y-98861004D01*
X198861353Y-98934051D01*
X198888666Y-98998359D01*
X198889500Y-99012715D01*
X198889500Y-112412113D01*
X198869815Y-112479152D01*
X198853181Y-112499794D01*
X195805868Y-115547106D01*
X195744545Y-115580591D01*
X195730343Y-115582828D01*
X195636300Y-115592091D01*
X195446191Y-115649760D01*
X195271001Y-115743401D01*
X195270994Y-115743405D01*
X195117431Y-115869431D01*
X194991405Y-116022994D01*
X194991401Y-116023001D01*
X194897760Y-116198191D01*
X194840091Y-116388300D01*
X194820620Y-116586000D01*
X147937995Y-116586000D01*
X148002241Y-116465804D01*
X148059908Y-116275701D01*
X148079380Y-116078000D01*
X148059908Y-115880299D01*
X148002241Y-115690196D01*
X148002239Y-115690193D01*
X148002239Y-115690191D01*
X147908598Y-115515001D01*
X147908594Y-115514994D01*
X147782568Y-115361431D01*
X147629005Y-115235405D01*
X147628998Y-115235401D01*
X147453808Y-115141760D01*
X147358752Y-115112925D01*
X147263701Y-115084092D01*
X147263699Y-115084091D01*
X147263701Y-115084091D01*
X147066000Y-115064620D01*
X146868300Y-115084091D01*
X146678192Y-115141760D01*
X146662110Y-115150357D01*
X146603655Y-115165000D01*
X132434499Y-115165000D01*
X132367460Y-115145315D01*
X132321705Y-115092511D01*
X132310499Y-115041000D01*
X132310499Y-114808129D01*
X132310498Y-114808123D01*
X132310497Y-114808116D01*
X132304091Y-114748517D01*
X132253796Y-114613669D01*
X132253795Y-114613668D01*
X132253793Y-114613664D01*
X132167547Y-114498455D01*
X132167544Y-114498452D01*
X132052335Y-114412206D01*
X132052328Y-114412202D01*
X131917482Y-114361908D01*
X131917483Y-114361908D01*
X131857883Y-114355501D01*
X131857881Y-114355500D01*
X131857873Y-114355500D01*
X131857864Y-114355500D01*
X129762129Y-114355500D01*
X129762123Y-114355501D01*
X129702516Y-114361908D01*
X129567671Y-114412202D01*
X129567664Y-114412206D01*
X129452455Y-114498452D01*
X129452452Y-114498455D01*
X129366206Y-114613664D01*
X129366202Y-114613671D01*
X129315908Y-114748517D01*
X129309501Y-114808116D01*
X129309501Y-114808123D01*
X129309500Y-114808135D01*
X129309500Y-116903870D01*
X113030000Y-116903870D01*
X113030000Y-107441999D01*
X127256620Y-107441999D01*
X127276091Y-107639699D01*
X127333760Y-107829808D01*
X127427401Y-108004998D01*
X127427405Y-108005005D01*
X127553431Y-108158568D01*
X127706994Y-108284594D01*
X127707001Y-108284598D01*
X127882191Y-108378239D01*
X127882193Y-108378239D01*
X127882196Y-108378241D01*
X128072299Y-108435908D01*
X128072298Y-108435908D01*
X128090024Y-108437653D01*
X128270000Y-108455380D01*
X128467701Y-108435908D01*
X128657804Y-108378241D01*
X128833004Y-108284595D01*
X128973468Y-108169319D01*
X128983426Y-108161147D01*
X129047736Y-108133834D01*
X129062091Y-108133000D01*
X129202416Y-108133000D01*
X129269455Y-108152685D01*
X129290097Y-108169319D01*
X134750312Y-113629533D01*
X134752848Y-113632227D01*
X134793417Y-113678020D01*
X134843768Y-113712774D01*
X134846755Y-113714972D01*
X134894895Y-113752688D01*
X134903866Y-113756725D01*
X134923411Y-113767748D01*
X134931518Y-113773344D01*
X134988703Y-113795031D01*
X134992120Y-113796446D01*
X135047916Y-113821558D01*
X135057600Y-113823332D01*
X135079229Y-113829362D01*
X135088418Y-113832848D01*
X135149098Y-113840215D01*
X135152801Y-113840779D01*
X135173306Y-113844536D01*
X135212972Y-113851806D01*
X135267771Y-113848490D01*
X135274019Y-113848113D01*
X135277764Y-113848000D01*
X176372909Y-113848000D01*
X176439948Y-113867685D01*
X176451574Y-113876147D01*
X176601994Y-113999594D01*
X176602001Y-113999598D01*
X176777191Y-114093239D01*
X176777193Y-114093239D01*
X176777196Y-114093241D01*
X176967299Y-114150908D01*
X176967298Y-114150908D01*
X176986770Y-114152825D01*
X177165000Y-114170380D01*
X177362701Y-114150908D01*
X177552804Y-114093241D01*
X177728004Y-113999595D01*
X177881568Y-113873568D01*
X178007595Y-113720004D01*
X178101241Y-113544804D01*
X178158908Y-113354701D01*
X178178380Y-113157000D01*
X178158908Y-112959299D01*
X178101241Y-112769196D01*
X178101239Y-112769193D01*
X178101239Y-112769191D01*
X178007598Y-112594001D01*
X178007594Y-112593994D01*
X177881568Y-112440431D01*
X177728005Y-112314405D01*
X177727998Y-112314401D01*
X177552808Y-112220760D01*
X177457752Y-112191925D01*
X177362701Y-112163092D01*
X177362699Y-112163091D01*
X177362701Y-112163091D01*
X177182725Y-112145365D01*
X177165000Y-112143620D01*
X177164999Y-112143620D01*
X176967300Y-112163091D01*
X176777191Y-112220760D01*
X176602001Y-112314401D01*
X176601994Y-112314405D01*
X176451574Y-112437853D01*
X176387264Y-112465166D01*
X176372909Y-112466000D01*
X135592583Y-112466000D01*
X135525544Y-112446315D01*
X135504902Y-112429681D01*
X135218841Y-112143620D01*
X130044686Y-106969464D01*
X130042135Y-106966753D01*
X130001583Y-106920980D01*
X129951251Y-106886238D01*
X129948234Y-106884018D01*
X129900108Y-106846314D01*
X129900099Y-106846308D01*
X129891134Y-106842274D01*
X129871586Y-106831250D01*
X129863482Y-106825656D01*
X129863478Y-106825653D01*
X129814689Y-106807150D01*
X129806302Y-106803969D01*
X129802851Y-106802540D01*
X129747081Y-106777441D01*
X129747082Y-106777441D01*
X129737395Y-106775666D01*
X129715792Y-106769644D01*
X129706582Y-106766152D01*
X129645876Y-106758780D01*
X129642177Y-106758217D01*
X129629211Y-106755841D01*
X129582030Y-106747195D01*
X129582025Y-106747195D01*
X129520992Y-106750887D01*
X129517247Y-106751000D01*
X129062091Y-106751000D01*
X128995052Y-106731315D01*
X128983426Y-106722853D01*
X128833005Y-106599405D01*
X128832998Y-106599401D01*
X128657808Y-106505760D01*
X128562752Y-106476925D01*
X128467701Y-106448092D01*
X128467699Y-106448091D01*
X128467701Y-106448091D01*
X128270000Y-106428620D01*
X128072300Y-106448091D01*
X127882191Y-106505760D01*
X127707001Y-106599401D01*
X127706994Y-106599405D01*
X127553431Y-106725431D01*
X127427405Y-106878994D01*
X127427401Y-106879001D01*
X127333760Y-107054191D01*
X127276091Y-107244300D01*
X127256620Y-107441999D01*
X113030000Y-107441999D01*
X113030000Y-103123999D01*
X171198620Y-103123999D01*
X171218091Y-103321699D01*
X171275760Y-103511808D01*
X171369401Y-103686998D01*
X171369405Y-103687005D01*
X171495431Y-103840568D01*
X171648994Y-103966594D01*
X171649001Y-103966598D01*
X171824191Y-104060239D01*
X171824193Y-104060239D01*
X171824196Y-104060241D01*
X172014299Y-104117908D01*
X172014298Y-104117908D01*
X172033770Y-104119825D01*
X172212000Y-104137380D01*
X172409701Y-104117908D01*
X172599804Y-104060241D01*
X172775004Y-103966595D01*
X172928568Y-103840568D01*
X173016572Y-103733334D01*
X173074317Y-103694001D01*
X173112425Y-103688000D01*
X192882909Y-103688000D01*
X192949948Y-103707685D01*
X192961574Y-103716147D01*
X193111994Y-103839594D01*
X193112001Y-103839598D01*
X193287191Y-103933239D01*
X193287193Y-103933239D01*
X193287196Y-103933241D01*
X193477299Y-103990908D01*
X193477298Y-103990908D01*
X193496769Y-103992825D01*
X193675000Y-104010380D01*
X193872701Y-103990908D01*
X194062804Y-103933241D01*
X194238004Y-103839595D01*
X194391568Y-103713568D01*
X194517595Y-103560004D01*
X194611241Y-103384804D01*
X194668908Y-103194701D01*
X194688380Y-102997000D01*
X194668908Y-102799299D01*
X194611241Y-102609196D01*
X194611239Y-102609193D01*
X194611239Y-102609191D01*
X194517598Y-102434001D01*
X194517594Y-102433994D01*
X194391568Y-102280431D01*
X194238005Y-102154405D01*
X194237998Y-102154401D01*
X194062808Y-102060760D01*
X193967752Y-102031925D01*
X193872701Y-102003092D01*
X193872699Y-102003091D01*
X193872701Y-102003091D01*
X193692725Y-101985365D01*
X193675000Y-101983620D01*
X193674999Y-101983620D01*
X193477300Y-102003091D01*
X193287191Y-102060760D01*
X193112001Y-102154401D01*
X193111994Y-102154405D01*
X192961574Y-102277853D01*
X192897264Y-102305166D01*
X192882909Y-102306000D01*
X186909791Y-102306000D01*
X186842752Y-102286315D01*
X186796997Y-102233511D01*
X186787053Y-102164353D01*
X186816078Y-102100797D01*
X186851338Y-102072642D01*
X186871998Y-102061598D01*
X186872004Y-102061595D01*
X187025568Y-101935568D01*
X187151595Y-101782004D01*
X187245241Y-101606804D01*
X187302908Y-101416701D01*
X187322380Y-101219000D01*
X187302908Y-101021299D01*
X187245241Y-100831196D01*
X187245239Y-100831193D01*
X187245239Y-100831191D01*
X187151598Y-100656001D01*
X187151594Y-100655994D01*
X187025568Y-100502431D01*
X186872005Y-100376405D01*
X186871998Y-100376401D01*
X186696808Y-100282760D01*
X186601752Y-100253925D01*
X186506701Y-100225092D01*
X186506699Y-100225091D01*
X186506701Y-100225091D01*
X186313044Y-100206018D01*
X186248257Y-100179857D01*
X186237517Y-100170296D01*
X184369319Y-98302097D01*
X184335834Y-98240774D01*
X184333000Y-98214416D01*
X184333000Y-96012003D01*
X186133604Y-96012003D01*
X186153920Y-96192324D01*
X186153921Y-96192329D01*
X186213859Y-96363622D01*
X186213861Y-96363625D01*
X186310402Y-96517268D01*
X186310407Y-96517274D01*
X186438725Y-96645592D01*
X186438731Y-96645597D01*
X186592374Y-96742138D01*
X186592377Y-96742140D01*
X186592381Y-96742141D01*
X186592382Y-96742142D01*
X186747655Y-96796474D01*
X186763670Y-96802078D01*
X186763675Y-96802079D01*
X186943996Y-96822396D01*
X186944000Y-96822396D01*
X186944004Y-96822396D01*
X187124324Y-96802079D01*
X187124327Y-96802078D01*
X187124330Y-96802078D01*
X187295618Y-96742142D01*
X187295620Y-96742140D01*
X187295622Y-96742140D01*
X187295625Y-96742138D01*
X187449268Y-96645597D01*
X187449269Y-96645596D01*
X187449274Y-96645593D01*
X187577593Y-96517274D01*
X187593523Y-96491922D01*
X187674138Y-96363625D01*
X187674140Y-96363622D01*
X187674140Y-96363620D01*
X187674142Y-96363618D01*
X187734078Y-96192330D01*
X187740245Y-96137597D01*
X187754396Y-96012003D01*
X187754396Y-96011996D01*
X187744798Y-95926808D01*
X187756853Y-95857986D01*
X187804202Y-95806607D01*
X187854133Y-95789705D01*
X187886330Y-95786078D01*
X188057618Y-95726142D01*
X188057621Y-95726139D01*
X188057625Y-95726138D01*
X188211268Y-95629597D01*
X188211269Y-95629596D01*
X188211274Y-95629593D01*
X188339593Y-95501274D01*
X188339996Y-95500633D01*
X188436138Y-95347625D01*
X188436141Y-95347619D01*
X188436142Y-95347618D01*
X188496078Y-95176330D01*
X188501757Y-95125918D01*
X188528821Y-95061507D01*
X188537286Y-95052131D01*
X196727043Y-86862374D01*
X196739325Y-86852537D01*
X196739144Y-86852318D01*
X196745153Y-86847345D01*
X196745162Y-86847340D01*
X196792072Y-86797385D01*
X196793311Y-86796106D01*
X196813623Y-86775796D01*
X196817892Y-86770290D01*
X196821676Y-86765859D01*
X196853693Y-86731767D01*
X196863389Y-86714128D01*
X196874073Y-86697861D01*
X196886408Y-86681962D01*
X196904978Y-86639046D01*
X196907534Y-86633827D01*
X196930072Y-86592834D01*
X196935078Y-86573334D01*
X196941382Y-86554924D01*
X196949370Y-86536465D01*
X196949373Y-86536459D01*
X196956687Y-86490280D01*
X196957868Y-86484570D01*
X196969500Y-86439272D01*
X196969500Y-86419134D01*
X196971027Y-86399735D01*
X196974174Y-86379867D01*
X196969775Y-86333329D01*
X196969500Y-86327491D01*
X196969500Y-79687642D01*
X196989185Y-79620603D01*
X197041989Y-79574848D01*
X197111147Y-79564904D01*
X197117251Y-79566156D01*
X197117258Y-79566122D01*
X197122584Y-79567060D01*
X197122592Y-79567063D01*
X197299034Y-79582500D01*
X197357999Y-79587659D01*
X197358000Y-79587659D01*
X197358001Y-79587659D01*
X197416966Y-79582500D01*
X197593408Y-79567063D01*
X197821663Y-79505903D01*
X198035830Y-79406035D01*
X198229401Y-79270495D01*
X198396495Y-79103401D01*
X198532035Y-78909830D01*
X198631903Y-78695663D01*
X198693063Y-78467408D01*
X198713659Y-78232000D01*
X198693063Y-77996592D01*
X198631903Y-77768337D01*
X198532035Y-77554171D01*
X198526425Y-77546158D01*
X198396494Y-77360597D01*
X198229402Y-77193506D01*
X198229395Y-77193501D01*
X198035834Y-77057967D01*
X198035830Y-77057965D01*
X198035829Y-77057964D01*
X197821663Y-76958097D01*
X197821659Y-76958096D01*
X197821655Y-76958094D01*
X197593413Y-76896938D01*
X197593403Y-76896936D01*
X197358001Y-76876341D01*
X197357999Y-76876341D01*
X197122596Y-76896936D01*
X197122586Y-76896938D01*
X196894344Y-76958094D01*
X196894335Y-76958098D01*
X196680171Y-77057964D01*
X196680169Y-77057965D01*
X196486597Y-77193505D01*
X196319505Y-77360597D01*
X196189575Y-77546158D01*
X196134998Y-77589783D01*
X196065500Y-77596977D01*
X196003145Y-77565454D01*
X195986425Y-77546158D01*
X195856494Y-77360597D01*
X195689402Y-77193506D01*
X195689395Y-77193501D01*
X195495834Y-77057967D01*
X195495830Y-77057965D01*
X195495829Y-77057964D01*
X195281663Y-76958097D01*
X195281659Y-76958096D01*
X195281655Y-76958094D01*
X195053413Y-76896938D01*
X195053403Y-76896936D01*
X194818001Y-76876341D01*
X194817999Y-76876341D01*
X194582596Y-76896936D01*
X194582586Y-76896938D01*
X194354344Y-76958094D01*
X194354335Y-76958098D01*
X194140171Y-77057964D01*
X194140169Y-77057965D01*
X193946597Y-77193505D01*
X193779505Y-77360597D01*
X193643965Y-77554169D01*
X193643964Y-77554171D01*
X193544098Y-77768335D01*
X193544094Y-77768344D01*
X193482938Y-77996586D01*
X193482936Y-77996596D01*
X193462341Y-78231999D01*
X193462341Y-78232000D01*
X193482936Y-78467403D01*
X193482938Y-78467413D01*
X193544094Y-78695655D01*
X193544096Y-78695659D01*
X193544097Y-78695663D01*
X193607688Y-78832033D01*
X193643965Y-78909830D01*
X193643967Y-78909834D01*
X193708656Y-79002218D01*
X193779505Y-79103401D01*
X193946599Y-79270495D01*
X194137624Y-79404252D01*
X194181248Y-79458828D01*
X194190500Y-79505826D01*
X194190500Y-85032717D01*
X194170815Y-85099756D01*
X194154181Y-85120398D01*
X186558953Y-92715626D01*
X186546669Y-92725469D01*
X186546849Y-92725687D01*
X186540838Y-92730660D01*
X186493981Y-92780556D01*
X186492628Y-92781951D01*
X186472379Y-92802200D01*
X186472375Y-92802205D01*
X186468106Y-92807709D01*
X186464315Y-92812147D01*
X186432308Y-92846230D01*
X186432305Y-92846234D01*
X186422606Y-92863877D01*
X186411928Y-92880133D01*
X186399594Y-92896034D01*
X186399589Y-92896042D01*
X186381025Y-92938943D01*
X186378454Y-92944191D01*
X186355927Y-92985167D01*
X186350920Y-93004668D01*
X186344621Y-93023064D01*
X186342027Y-93029061D01*
X186336625Y-93041544D01*
X186336624Y-93041546D01*
X186329312Y-93087716D01*
X186328127Y-93093438D01*
X186316500Y-93138723D01*
X186316500Y-93158858D01*
X186314973Y-93178257D01*
X186311825Y-93198131D01*
X186316225Y-93244677D01*
X186316500Y-93250515D01*
X186316500Y-95461305D01*
X186297494Y-95527277D01*
X186213859Y-95660379D01*
X186153921Y-95831670D01*
X186153920Y-95831675D01*
X186133604Y-96011996D01*
X186133604Y-96012003D01*
X184333000Y-96012003D01*
X184333000Y-89819091D01*
X184352685Y-89752052D01*
X184361147Y-89740426D01*
X184484594Y-89590005D01*
X184484598Y-89589998D01*
X184578239Y-89414808D01*
X184578239Y-89414807D01*
X184578241Y-89414804D01*
X184635908Y-89224701D01*
X184655380Y-89027000D01*
X184635908Y-88829299D01*
X184578241Y-88639196D01*
X184578239Y-88639193D01*
X184578239Y-88639191D01*
X184484598Y-88464001D01*
X184484594Y-88463994D01*
X184358568Y-88310431D01*
X184205005Y-88184405D01*
X184204998Y-88184401D01*
X184029808Y-88090760D01*
X183934752Y-88061925D01*
X183839701Y-88033092D01*
X183839699Y-88033091D01*
X183839701Y-88033091D01*
X183642000Y-88013620D01*
X183444300Y-88033091D01*
X183254191Y-88090760D01*
X183079001Y-88184401D01*
X183078994Y-88184405D01*
X182925431Y-88310431D01*
X182799405Y-88463994D01*
X182799401Y-88464001D01*
X182705760Y-88639191D01*
X182648091Y-88829300D01*
X182628620Y-89027000D01*
X182648091Y-89224699D01*
X182705760Y-89414808D01*
X182799401Y-89589998D01*
X182799405Y-89590005D01*
X182922853Y-89740426D01*
X182950166Y-89804736D01*
X182951000Y-89819091D01*
X182951000Y-98529247D01*
X182950887Y-98532992D01*
X182947195Y-98594025D01*
X182947195Y-98594028D01*
X182958217Y-98654174D01*
X182958780Y-98657876D01*
X182966152Y-98718582D01*
X182969644Y-98727792D01*
X182975666Y-98749395D01*
X182977441Y-98759081D01*
X183002540Y-98814851D01*
X183003973Y-98818310D01*
X183025653Y-98875478D01*
X183025656Y-98875482D01*
X183031250Y-98883586D01*
X183042274Y-98903134D01*
X183046308Y-98912099D01*
X183046314Y-98912108D01*
X183084018Y-98960234D01*
X183086238Y-98963251D01*
X183120980Y-99013583D01*
X183166753Y-99054135D01*
X183169464Y-99056686D01*
X184283075Y-100170296D01*
X185260296Y-101147517D01*
X185293781Y-101208840D01*
X185296018Y-101223044D01*
X185315091Y-101416699D01*
X185372760Y-101606808D01*
X185466401Y-101781998D01*
X185466405Y-101782005D01*
X185592431Y-101935568D01*
X185745994Y-102061594D01*
X185746001Y-102061598D01*
X185766662Y-102072642D01*
X185816506Y-102121604D01*
X185831967Y-102189741D01*
X185808136Y-102255421D01*
X185752578Y-102297790D01*
X185708209Y-102306000D01*
X172849341Y-102306000D01*
X172782302Y-102286315D01*
X172780112Y-102284720D01*
X172780067Y-102284788D01*
X172774998Y-102281401D01*
X172599808Y-102187760D01*
X172489837Y-102154401D01*
X172409701Y-102130092D01*
X172409699Y-102130091D01*
X172409701Y-102130091D01*
X172229725Y-102112365D01*
X172212000Y-102110620D01*
X172211999Y-102110620D01*
X172014300Y-102130091D01*
X171824191Y-102187760D01*
X171649001Y-102281401D01*
X171648994Y-102281405D01*
X171495431Y-102407431D01*
X171369405Y-102560994D01*
X171369401Y-102561001D01*
X171275760Y-102736191D01*
X171218091Y-102926300D01*
X171198620Y-103123999D01*
X113030000Y-103123999D01*
X113030000Y-97536000D01*
X148846620Y-97536000D01*
X148866091Y-97733699D01*
X148923760Y-97923808D01*
X149017401Y-98098998D01*
X149017405Y-98099005D01*
X149143431Y-98252568D01*
X149296994Y-98378594D01*
X149297001Y-98378598D01*
X149472191Y-98472239D01*
X149472193Y-98472239D01*
X149472196Y-98472241D01*
X149662299Y-98529908D01*
X149662298Y-98529908D01*
X149674655Y-98531125D01*
X149860000Y-98549380D01*
X150057701Y-98529908D01*
X150247804Y-98472241D01*
X150423004Y-98378595D01*
X150576568Y-98252568D01*
X150702595Y-98099004D01*
X150731994Y-98044003D01*
X151081604Y-98044003D01*
X151101920Y-98224324D01*
X151101921Y-98224329D01*
X151161859Y-98395622D01*
X151161861Y-98395625D01*
X151258402Y-98549268D01*
X151258407Y-98549274D01*
X151386725Y-98677592D01*
X151386731Y-98677597D01*
X151540374Y-98774138D01*
X151540377Y-98774140D01*
X151540381Y-98774141D01*
X151540382Y-98774142D01*
X151711670Y-98834077D01*
X151711670Y-98834078D01*
X151711675Y-98834079D01*
X151891996Y-98854396D01*
X151892000Y-98854396D01*
X151892004Y-98854396D01*
X152072324Y-98834079D01*
X152072327Y-98834078D01*
X152072330Y-98834078D01*
X152243618Y-98774142D01*
X152243620Y-98774140D01*
X152243622Y-98774140D01*
X152243625Y-98774138D01*
X152397268Y-98677597D01*
X152397269Y-98677596D01*
X152397274Y-98677593D01*
X152525593Y-98549274D01*
X152538177Y-98529247D01*
X152622138Y-98395625D01*
X152622141Y-98395619D01*
X152622142Y-98395618D01*
X152682078Y-98224330D01*
X152687757Y-98173918D01*
X152714821Y-98109507D01*
X152723276Y-98100142D01*
X152877601Y-97945816D01*
X152938924Y-97912334D01*
X152965281Y-97909500D01*
X170391305Y-97909500D01*
X170457276Y-97928505D01*
X170590382Y-98012142D01*
X170761669Y-98072077D01*
X170761670Y-98072078D01*
X170761675Y-98072079D01*
X170941996Y-98092396D01*
X170942000Y-98092396D01*
X170942004Y-98092396D01*
X171122324Y-98072079D01*
X171122327Y-98072078D01*
X171122330Y-98072078D01*
X171293618Y-98012142D01*
X171293620Y-98012140D01*
X171293622Y-98012140D01*
X171293625Y-98012138D01*
X171447268Y-97915597D01*
X171447269Y-97915596D01*
X171447274Y-97915593D01*
X171575593Y-97787274D01*
X171575597Y-97787268D01*
X171672138Y-97633625D01*
X171672140Y-97633622D01*
X171672140Y-97633620D01*
X171672142Y-97633618D01*
X171732078Y-97462330D01*
X171732079Y-97462324D01*
X171752396Y-97282003D01*
X171752396Y-97281996D01*
X171732079Y-97101675D01*
X171732078Y-97101670D01*
X171687053Y-96972996D01*
X171672142Y-96930382D01*
X171672141Y-96930381D01*
X171672140Y-96930377D01*
X171672138Y-96930374D01*
X171575597Y-96776731D01*
X171575591Y-96776724D01*
X171447274Y-96648407D01*
X171447268Y-96648402D01*
X171293625Y-96551861D01*
X171293622Y-96551859D01*
X171122329Y-96491921D01*
X171122324Y-96491920D01*
X170942004Y-96471604D01*
X170941996Y-96471604D01*
X170761675Y-96491920D01*
X170761670Y-96491921D01*
X170590379Y-96551859D01*
X170457277Y-96635494D01*
X170391305Y-96654500D01*
X152736967Y-96654500D01*
X152721318Y-96652772D01*
X152721292Y-96653054D01*
X152713524Y-96652319D01*
X152645109Y-96654469D01*
X152643162Y-96654500D01*
X152614522Y-96654500D01*
X152607618Y-96655371D01*
X152601800Y-96655829D01*
X152555060Y-96657298D01*
X152555054Y-96657299D01*
X152535719Y-96662916D01*
X152516680Y-96666859D01*
X152496715Y-96669382D01*
X152496701Y-96669385D01*
X152453235Y-96686594D01*
X152447710Y-96688485D01*
X152402809Y-96701531D01*
X152402806Y-96701533D01*
X152385480Y-96711779D01*
X152368010Y-96720337D01*
X152349298Y-96727745D01*
X152311463Y-96755233D01*
X152306580Y-96758440D01*
X152266346Y-96782234D01*
X152252106Y-96796474D01*
X152237320Y-96809102D01*
X152221033Y-96820936D01*
X152221032Y-96820936D01*
X152191227Y-96856963D01*
X152187295Y-96861285D01*
X151835877Y-97212702D01*
X151774554Y-97246187D01*
X151762081Y-97248241D01*
X151711672Y-97253921D01*
X151540377Y-97313859D01*
X151540374Y-97313861D01*
X151386731Y-97410402D01*
X151386725Y-97410407D01*
X151258407Y-97538725D01*
X151258402Y-97538731D01*
X151161861Y-97692374D01*
X151161859Y-97692377D01*
X151101921Y-97863670D01*
X151101920Y-97863675D01*
X151081604Y-98043996D01*
X151081604Y-98044003D01*
X150731994Y-98044003D01*
X150796241Y-97923804D01*
X150853908Y-97733701D01*
X150873380Y-97536000D01*
X150853908Y-97338299D01*
X150796241Y-97148196D01*
X150796239Y-97148193D01*
X150796239Y-97148191D01*
X150702598Y-96973001D01*
X150702594Y-96972994D01*
X150579147Y-96822574D01*
X150551834Y-96758264D01*
X150551000Y-96743909D01*
X150551000Y-92793582D01*
X150570685Y-92726543D01*
X150587314Y-92705906D01*
X154141647Y-89151572D01*
X154202968Y-89118089D01*
X154272660Y-89123073D01*
X154328593Y-89164945D01*
X154352854Y-89228447D01*
X154366936Y-89389403D01*
X154366938Y-89389413D01*
X154428094Y-89617655D01*
X154428096Y-89617659D01*
X154428097Y-89617663D01*
X154486808Y-89743568D01*
X154527965Y-89831830D01*
X154527967Y-89831834D01*
X154663501Y-90025395D01*
X154663506Y-90025402D01*
X154830597Y-90192493D01*
X154830603Y-90192498D01*
X155016158Y-90322425D01*
X155059783Y-90377002D01*
X155066977Y-90446500D01*
X155035454Y-90508855D01*
X155016158Y-90525575D01*
X154830597Y-90655505D01*
X154663505Y-90822597D01*
X154527965Y-91016169D01*
X154527964Y-91016171D01*
X154428098Y-91230335D01*
X154428094Y-91230344D01*
X154366938Y-91458586D01*
X154366936Y-91458596D01*
X154346341Y-91693999D01*
X154346341Y-91694000D01*
X154366936Y-91929403D01*
X154366938Y-91929413D01*
X154428094Y-92157655D01*
X154428096Y-92157659D01*
X154428097Y-92157663D01*
X154443851Y-92191447D01*
X154527965Y-92371830D01*
X154527967Y-92371834D01*
X154602832Y-92478751D01*
X154663505Y-92565401D01*
X154830599Y-92732495D01*
X154917840Y-92793582D01*
X155024165Y-92868032D01*
X155024167Y-92868033D01*
X155024170Y-92868035D01*
X155238337Y-92967903D01*
X155466592Y-93029063D01*
X155654918Y-93045539D01*
X155701999Y-93049659D01*
X155702000Y-93049659D01*
X155702001Y-93049659D01*
X155741234Y-93046226D01*
X155937408Y-93029063D01*
X156165663Y-92967903D01*
X156379830Y-92868035D01*
X156573401Y-92732495D01*
X156740495Y-92565401D01*
X156876035Y-92371830D01*
X156975903Y-92157663D01*
X156975907Y-92157646D01*
X156977757Y-92152569D01*
X156979269Y-92153119D01*
X157011799Y-92099748D01*
X157074646Y-92069217D01*
X157095211Y-92067500D01*
X170376719Y-92067500D01*
X170443758Y-92087185D01*
X170464400Y-92103819D01*
X174174702Y-95814121D01*
X174208187Y-95875444D01*
X174210241Y-95887918D01*
X174215920Y-95938325D01*
X174215921Y-95938329D01*
X174275859Y-96109622D01*
X174275861Y-96109625D01*
X174372402Y-96263268D01*
X174372407Y-96263274D01*
X174500725Y-96391592D01*
X174500731Y-96391597D01*
X174654374Y-96488138D01*
X174654377Y-96488140D01*
X174654381Y-96488141D01*
X174654382Y-96488142D01*
X174665182Y-96491921D01*
X174825670Y-96548078D01*
X174825675Y-96548079D01*
X175005996Y-96568396D01*
X175006000Y-96568396D01*
X175006004Y-96568396D01*
X175186324Y-96548079D01*
X175186327Y-96548078D01*
X175186330Y-96548078D01*
X175357618Y-96488142D01*
X175357620Y-96488140D01*
X175357622Y-96488140D01*
X175357625Y-96488138D01*
X175511268Y-96391597D01*
X175511269Y-96391596D01*
X175511274Y-96391593D01*
X175639593Y-96263274D01*
X175667356Y-96219088D01*
X175719690Y-96172797D01*
X175788743Y-96162148D01*
X175838322Y-96180066D01*
X175857837Y-96192329D01*
X175924378Y-96234140D01*
X175924379Y-96234140D01*
X175924382Y-96234142D01*
X176095670Y-96294077D01*
X176095670Y-96294078D01*
X176095675Y-96294079D01*
X176275996Y-96314396D01*
X176276000Y-96314396D01*
X176276004Y-96314396D01*
X176456324Y-96294079D01*
X176456327Y-96294078D01*
X176456330Y-96294078D01*
X176627618Y-96234142D01*
X176627620Y-96234140D01*
X176627622Y-96234140D01*
X176627625Y-96234138D01*
X176781268Y-96137597D01*
X176781269Y-96137596D01*
X176781274Y-96137593D01*
X176909593Y-96009274D01*
X176909597Y-96009268D01*
X177006138Y-95855625D01*
X177006140Y-95855622D01*
X177006140Y-95855620D01*
X177006142Y-95855618D01*
X177066078Y-95684330D01*
X177066079Y-95684324D01*
X177086396Y-95504003D01*
X177086396Y-95503996D01*
X177066079Y-95323675D01*
X177066078Y-95323670D01*
X177006140Y-95152377D01*
X177006138Y-95152374D01*
X176909597Y-94998731D01*
X176909592Y-94998725D01*
X176781274Y-94870407D01*
X176781268Y-94870402D01*
X176627625Y-94773861D01*
X176627622Y-94773859D01*
X176456329Y-94713921D01*
X176456325Y-94713920D01*
X176405918Y-94708241D01*
X176341504Y-94681174D01*
X176332121Y-94672702D01*
X170428376Y-88768957D01*
X170418531Y-88756668D01*
X170418313Y-88756849D01*
X170413340Y-88750837D01*
X170363443Y-88703981D01*
X170362043Y-88702624D01*
X170341797Y-88682377D01*
X170336296Y-88678111D01*
X170331848Y-88674312D01*
X170297768Y-88642308D01*
X170297763Y-88642304D01*
X170280122Y-88632606D01*
X170263857Y-88621922D01*
X170247963Y-88609593D01*
X170247962Y-88609592D01*
X170232804Y-88603032D01*
X170205054Y-88591023D01*
X170199807Y-88588453D01*
X170158837Y-88565929D01*
X170158828Y-88565926D01*
X170139334Y-88560920D01*
X170120933Y-88554620D01*
X170102459Y-88546626D01*
X170102452Y-88546624D01*
X170056287Y-88539313D01*
X170050563Y-88538128D01*
X170005279Y-88526500D01*
X170005272Y-88526500D01*
X169985142Y-88526500D01*
X169965743Y-88524973D01*
X169945868Y-88521825D01*
X169945867Y-88521825D01*
X169899321Y-88526225D01*
X169893483Y-88526500D01*
X156975826Y-88526500D01*
X156908787Y-88506815D01*
X156874251Y-88473623D01*
X156740494Y-88282597D01*
X156573402Y-88115506D01*
X156573396Y-88115501D01*
X156387842Y-87985575D01*
X156344217Y-87930998D01*
X156337023Y-87861500D01*
X156368546Y-87799145D01*
X156387842Y-87782425D01*
X156410026Y-87766891D01*
X156573401Y-87652495D01*
X156740495Y-87485401D01*
X156876035Y-87291830D01*
X156975903Y-87077663D01*
X157037063Y-86849408D01*
X157057659Y-86614000D01*
X157037063Y-86378592D01*
X156987519Y-86193688D01*
X156975905Y-86150344D01*
X156975904Y-86150343D01*
X156975903Y-86150337D01*
X156876035Y-85936171D01*
X156813163Y-85846379D01*
X156740494Y-85742597D01*
X156595896Y-85598000D01*
X169293620Y-85598000D01*
X169313091Y-85795699D01*
X169370760Y-85985808D01*
X169464401Y-86160998D01*
X169464405Y-86161005D01*
X169590431Y-86314568D01*
X169743994Y-86440594D01*
X169744001Y-86440598D01*
X169919191Y-86534239D01*
X169919193Y-86534239D01*
X169919196Y-86534241D01*
X170109299Y-86591908D01*
X170109298Y-86591908D01*
X170127024Y-86593653D01*
X170307000Y-86611380D01*
X170504701Y-86591908D01*
X170694804Y-86534241D01*
X170870004Y-86440595D01*
X171000708Y-86333329D01*
X171020426Y-86317147D01*
X171084736Y-86289834D01*
X171099091Y-86289000D01*
X173459247Y-86289000D01*
X173462992Y-86289113D01*
X173524026Y-86292805D01*
X173524026Y-86292804D01*
X173524028Y-86292805D01*
X173584185Y-86281779D01*
X173587870Y-86281219D01*
X173648582Y-86273848D01*
X173657788Y-86270356D01*
X173679403Y-86264330D01*
X173689085Y-86262557D01*
X173744865Y-86237451D01*
X173748281Y-86236037D01*
X173805482Y-86214344D01*
X173813579Y-86208754D01*
X173833139Y-86197722D01*
X173842105Y-86193688D01*
X173890249Y-86155968D01*
X173893255Y-86153757D01*
X173898213Y-86150335D01*
X173943583Y-86119020D01*
X173984144Y-86073234D01*
X173986678Y-86070542D01*
X174426519Y-85630701D01*
X174487840Y-85597218D01*
X174502032Y-85594982D01*
X174695701Y-85575908D01*
X174885804Y-85518241D01*
X175061004Y-85424595D01*
X175163969Y-85340094D01*
X175211426Y-85301147D01*
X175275736Y-85273834D01*
X175290091Y-85273000D01*
X175618247Y-85273000D01*
X175621992Y-85273113D01*
X175683026Y-85276805D01*
X175683026Y-85276804D01*
X175683028Y-85276805D01*
X175743185Y-85265779D01*
X175746870Y-85265219D01*
X175807582Y-85257848D01*
X175816788Y-85254356D01*
X175838403Y-85248330D01*
X175848085Y-85246557D01*
X175903865Y-85221451D01*
X175907281Y-85220037D01*
X175964482Y-85198344D01*
X175972579Y-85192754D01*
X175992139Y-85181722D01*
X176001105Y-85177688D01*
X176049249Y-85139968D01*
X176052255Y-85137757D01*
X176102583Y-85103020D01*
X176143144Y-85057234D01*
X176145678Y-85054542D01*
X180624542Y-80575678D01*
X180627234Y-80573144D01*
X180673020Y-80532583D01*
X180707759Y-80482254D01*
X180709962Y-80479258D01*
X180747688Y-80431106D01*
X180751729Y-80422126D01*
X180762750Y-80402584D01*
X180768344Y-80394482D01*
X180790031Y-80337296D01*
X180791451Y-80333865D01*
X180816557Y-80278085D01*
X180818330Y-80268403D01*
X180824356Y-80246788D01*
X180827848Y-80237582D01*
X180835219Y-80176872D01*
X180835781Y-80173182D01*
X180846804Y-80113034D01*
X180846805Y-80113029D01*
X180843111Y-80051961D01*
X180842999Y-80048280D01*
X180842999Y-79706498D01*
X180862684Y-79639460D01*
X180915488Y-79593705D01*
X180966999Y-79582499D01*
X181049871Y-79582499D01*
X181049872Y-79582499D01*
X181109483Y-79576091D01*
X181244331Y-79525796D01*
X181359546Y-79439546D01*
X181445796Y-79324331D01*
X181496091Y-79189483D01*
X181502500Y-79129873D01*
X181502500Y-79129870D01*
X188387500Y-79129870D01*
X188387501Y-79129876D01*
X188393908Y-79189483D01*
X188444202Y-79324328D01*
X188444206Y-79324335D01*
X188530452Y-79439544D01*
X188530455Y-79439547D01*
X188645664Y-79525793D01*
X188645671Y-79525797D01*
X188780517Y-79576091D01*
X188780516Y-79576091D01*
X188787444Y-79576835D01*
X188840127Y-79582500D01*
X190635872Y-79582499D01*
X190695483Y-79576091D01*
X190830331Y-79525796D01*
X190945546Y-79439546D01*
X191031796Y-79324331D01*
X191082091Y-79189483D01*
X191088500Y-79129873D01*
X191088499Y-77334128D01*
X191082091Y-77274517D01*
X191080810Y-77271083D01*
X191031797Y-77139671D01*
X191031793Y-77139664D01*
X190945547Y-77024455D01*
X190945544Y-77024452D01*
X190830335Y-76938206D01*
X190830328Y-76938202D01*
X190695482Y-76887908D01*
X190695483Y-76887908D01*
X190635883Y-76881501D01*
X190635881Y-76881500D01*
X190635873Y-76881500D01*
X190635864Y-76881500D01*
X188840129Y-76881500D01*
X188840123Y-76881501D01*
X188780516Y-76887908D01*
X188645671Y-76938202D01*
X188645664Y-76938206D01*
X188530455Y-77024452D01*
X188530452Y-77024455D01*
X188444206Y-77139664D01*
X188444202Y-77139671D01*
X188393908Y-77274517D01*
X188387501Y-77334116D01*
X188387501Y-77334123D01*
X188387500Y-77334135D01*
X188387500Y-79129870D01*
X181502500Y-79129870D01*
X181502499Y-77334128D01*
X181496091Y-77274517D01*
X181494810Y-77271083D01*
X181445797Y-77139671D01*
X181445793Y-77139664D01*
X181359547Y-77024455D01*
X181359544Y-77024452D01*
X181244335Y-76938206D01*
X181244328Y-76938202D01*
X181109482Y-76887908D01*
X181109483Y-76887908D01*
X181049883Y-76881501D01*
X181049881Y-76881500D01*
X181049873Y-76881500D01*
X181049864Y-76881500D01*
X179254129Y-76881500D01*
X179254123Y-76881501D01*
X179194516Y-76887908D01*
X179059671Y-76938202D01*
X179059664Y-76938206D01*
X178944455Y-77024452D01*
X178944452Y-77024455D01*
X178858206Y-77139664D01*
X178858203Y-77139669D01*
X178809189Y-77271083D01*
X178767317Y-77327016D01*
X178701853Y-77351433D01*
X178633580Y-77336581D01*
X178605326Y-77315430D01*
X178483402Y-77193506D01*
X178483395Y-77193501D01*
X178289834Y-77057967D01*
X178289830Y-77057965D01*
X178289828Y-77057964D01*
X178075663Y-76958097D01*
X178075659Y-76958096D01*
X178075655Y-76958094D01*
X177847413Y-76896938D01*
X177847403Y-76896936D01*
X177612001Y-76876341D01*
X177611999Y-76876341D01*
X177376596Y-76896936D01*
X177376586Y-76896938D01*
X177148344Y-76958094D01*
X177148335Y-76958098D01*
X176934171Y-77057964D01*
X176934169Y-77057965D01*
X176740597Y-77193505D01*
X176573505Y-77360597D01*
X176443575Y-77546158D01*
X176388998Y-77589783D01*
X176319500Y-77596977D01*
X176257145Y-77565454D01*
X176240425Y-77546158D01*
X176110494Y-77360597D01*
X175943402Y-77193506D01*
X175943395Y-77193501D01*
X175749834Y-77057967D01*
X175749830Y-77057965D01*
X175749828Y-77057964D01*
X175535663Y-76958097D01*
X175535659Y-76958096D01*
X175535655Y-76958094D01*
X175307413Y-76896938D01*
X175307403Y-76896936D01*
X175072001Y-76876341D01*
X175071999Y-76876341D01*
X174836596Y-76896936D01*
X174836586Y-76896938D01*
X174608344Y-76958094D01*
X174608335Y-76958098D01*
X174394171Y-77057964D01*
X174394169Y-77057965D01*
X174200597Y-77193505D01*
X174033505Y-77360597D01*
X173897965Y-77554169D01*
X173897964Y-77554171D01*
X173798098Y-77768335D01*
X173798094Y-77768344D01*
X173736938Y-77996586D01*
X173736936Y-77996596D01*
X173716341Y-78231999D01*
X173716341Y-78232000D01*
X173736936Y-78467403D01*
X173736938Y-78467413D01*
X173798094Y-78695655D01*
X173798096Y-78695659D01*
X173798097Y-78695663D01*
X173861688Y-78832033D01*
X173897965Y-78909830D01*
X173897967Y-78909834D01*
X173962656Y-79002218D01*
X174033505Y-79103401D01*
X174200599Y-79270495D01*
X174287053Y-79331031D01*
X174394165Y-79406032D01*
X174394167Y-79406033D01*
X174394170Y-79406035D01*
X174608337Y-79505903D01*
X174836592Y-79567063D01*
X175013034Y-79582500D01*
X175071999Y-79587659D01*
X175072000Y-79587659D01*
X175072001Y-79587659D01*
X175130966Y-79582500D01*
X175307408Y-79567063D01*
X175535663Y-79505903D01*
X175749830Y-79406035D01*
X175943401Y-79270495D01*
X176110495Y-79103401D01*
X176240424Y-78917842D01*
X176295002Y-78874217D01*
X176364500Y-78867023D01*
X176426855Y-78898546D01*
X176443575Y-78917842D01*
X176573500Y-79103395D01*
X176573505Y-79103401D01*
X176740599Y-79270495D01*
X176827053Y-79331031D01*
X176934165Y-79406032D01*
X176934167Y-79406033D01*
X176934170Y-79406035D01*
X177148337Y-79505903D01*
X177376592Y-79567063D01*
X177553034Y-79582500D01*
X177611999Y-79587659D01*
X177612000Y-79587659D01*
X177612001Y-79587659D01*
X177670966Y-79582500D01*
X177847408Y-79567063D01*
X178075663Y-79505903D01*
X178289830Y-79406035D01*
X178483401Y-79270495D01*
X178605329Y-79148566D01*
X178666648Y-79115084D01*
X178736340Y-79120068D01*
X178792274Y-79161939D01*
X178809189Y-79192917D01*
X178858202Y-79324328D01*
X178858206Y-79324335D01*
X178944452Y-79439544D01*
X178944455Y-79439547D01*
X179059664Y-79525793D01*
X179059671Y-79525797D01*
X179104618Y-79542561D01*
X179194517Y-79576091D01*
X179254127Y-79582500D01*
X179337001Y-79582499D01*
X179404038Y-79602183D01*
X179449794Y-79654986D01*
X179461000Y-79706499D01*
X179461000Y-79733415D01*
X179441315Y-79800454D01*
X179424681Y-79821096D01*
X175391097Y-83854681D01*
X175329774Y-83888166D01*
X175303416Y-83891000D01*
X175290091Y-83891000D01*
X175223052Y-83871315D01*
X175211426Y-83862853D01*
X175061005Y-83739405D01*
X175060998Y-83739401D01*
X174885808Y-83645760D01*
X174790752Y-83616925D01*
X174695701Y-83588092D01*
X174695699Y-83588091D01*
X174695701Y-83588091D01*
X174498000Y-83568620D01*
X174300300Y-83588091D01*
X174110191Y-83645760D01*
X173935001Y-83739401D01*
X173934994Y-83739405D01*
X173781431Y-83865431D01*
X173655405Y-84018994D01*
X173655401Y-84019001D01*
X173561760Y-84194191D01*
X173504091Y-84384300D01*
X173485018Y-84577953D01*
X173458857Y-84642741D01*
X173449297Y-84653480D01*
X173232095Y-84870682D01*
X173170775Y-84904166D01*
X173144416Y-84907000D01*
X171099091Y-84907000D01*
X171032052Y-84887315D01*
X171020426Y-84878853D01*
X170870005Y-84755405D01*
X170869998Y-84755401D01*
X170694808Y-84661760D01*
X170540383Y-84614916D01*
X170504701Y-84604092D01*
X170504699Y-84604091D01*
X170504701Y-84604091D01*
X170324725Y-84586365D01*
X170307000Y-84584620D01*
X170306999Y-84584620D01*
X170109300Y-84604091D01*
X169919191Y-84661760D01*
X169744001Y-84755401D01*
X169743994Y-84755405D01*
X169590431Y-84881431D01*
X169464405Y-85034994D01*
X169464401Y-85035001D01*
X169370760Y-85210191D01*
X169313091Y-85400300D01*
X169293620Y-85598000D01*
X156595896Y-85598000D01*
X156573402Y-85575506D01*
X156573395Y-85575501D01*
X156379834Y-85439967D01*
X156379830Y-85439965D01*
X156344023Y-85423268D01*
X156165663Y-85340097D01*
X156165659Y-85340096D01*
X156165655Y-85340094D01*
X155937413Y-85278938D01*
X155937403Y-85278936D01*
X155702001Y-85258341D01*
X155701999Y-85258341D01*
X155466596Y-85278936D01*
X155466586Y-85278938D01*
X155238344Y-85340094D01*
X155238335Y-85340098D01*
X155024171Y-85439964D01*
X155024169Y-85439965D01*
X154830597Y-85575505D01*
X154663505Y-85742597D01*
X154527965Y-85936169D01*
X154527964Y-85936171D01*
X154428098Y-86150335D01*
X154428094Y-86150344D01*
X154366938Y-86378586D01*
X154366936Y-86378596D01*
X154346341Y-86613999D01*
X154346341Y-86614000D01*
X154366936Y-86849403D01*
X154366938Y-86849413D01*
X154374281Y-86876816D01*
X154372618Y-86946666D01*
X154342187Y-86996590D01*
X149387480Y-91951296D01*
X149384754Y-91953863D01*
X149338985Y-91994411D01*
X149338977Y-91994420D01*
X149304235Y-92044753D01*
X149302015Y-92047769D01*
X149264313Y-92095894D01*
X149264311Y-92095896D01*
X149260271Y-92104873D01*
X149249253Y-92124408D01*
X149243655Y-92132519D01*
X149221968Y-92189700D01*
X149220536Y-92193158D01*
X149195442Y-92248916D01*
X149193666Y-92258606D01*
X149187645Y-92280203D01*
X149184152Y-92289414D01*
X149184152Y-92289415D01*
X149176780Y-92350124D01*
X149176218Y-92353817D01*
X149172917Y-92371834D01*
X149165195Y-92413969D01*
X149165195Y-92413972D01*
X149168887Y-92475006D01*
X149169000Y-92478751D01*
X149169000Y-96743909D01*
X149149315Y-96810948D01*
X149140853Y-96822574D01*
X149017405Y-96972994D01*
X149017401Y-96973001D01*
X148923760Y-97148191D01*
X148866091Y-97338300D01*
X148846620Y-97536000D01*
X113030000Y-97536000D01*
X113030000Y-80439951D01*
X113030429Y-80432670D01*
X113048865Y-80276906D01*
X113077718Y-80045438D01*
X113078428Y-80041035D01*
X113126371Y-79800012D01*
X113174259Y-79571623D01*
X113175248Y-79567599D01*
X113241986Y-79330961D01*
X113308608Y-79107185D01*
X113309848Y-79103463D01*
X113394974Y-78872718D01*
X113479895Y-78655087D01*
X113481312Y-78651755D01*
X113584103Y-78428781D01*
X113584585Y-78427767D01*
X113617714Y-78360001D01*
X163493341Y-78360001D01*
X163513936Y-78595404D01*
X163513938Y-78595414D01*
X163575094Y-78823656D01*
X163575096Y-78823660D01*
X163575097Y-78823664D01*
X163599811Y-78876663D01*
X163674965Y-79037831D01*
X163674967Y-79037835D01*
X163761866Y-79161939D01*
X163810505Y-79231402D01*
X163977599Y-79398496D01*
X164036226Y-79439547D01*
X164171165Y-79534033D01*
X164171167Y-79534034D01*
X164171170Y-79534036D01*
X164385337Y-79633904D01*
X164385343Y-79633905D01*
X164385344Y-79633906D01*
X164440285Y-79648627D01*
X164613592Y-79695064D01*
X164801918Y-79711540D01*
X164848999Y-79715660D01*
X164849000Y-79715660D01*
X164849001Y-79715660D01*
X164888234Y-79712227D01*
X165084408Y-79695064D01*
X165312663Y-79633904D01*
X165526830Y-79534036D01*
X165720401Y-79398496D01*
X165887495Y-79231402D01*
X166017424Y-79045843D01*
X166072002Y-79002218D01*
X166141500Y-78995024D01*
X166203855Y-79026547D01*
X166220575Y-79045843D01*
X166350500Y-79231396D01*
X166350505Y-79231402D01*
X166517599Y-79398496D01*
X166576226Y-79439547D01*
X166711165Y-79534033D01*
X166711167Y-79534034D01*
X166711170Y-79534036D01*
X166925337Y-79633904D01*
X166925343Y-79633905D01*
X166925344Y-79633906D01*
X166980285Y-79648627D01*
X167153592Y-79695064D01*
X167341918Y-79711540D01*
X167388999Y-79715660D01*
X167389000Y-79715660D01*
X167389001Y-79715660D01*
X167428234Y-79712227D01*
X167624408Y-79695064D01*
X167852663Y-79633904D01*
X168066830Y-79534036D01*
X168260401Y-79398496D01*
X168427495Y-79231402D01*
X168563035Y-79037831D01*
X168662903Y-78823664D01*
X168724063Y-78595409D01*
X168744659Y-78360001D01*
X168724063Y-78124593D01*
X168662903Y-77896338D01*
X168563035Y-77682172D01*
X168557425Y-77674159D01*
X168427494Y-77488598D01*
X168260402Y-77321507D01*
X168260395Y-77321502D01*
X168251723Y-77315430D01*
X168193294Y-77274517D01*
X168066834Y-77185968D01*
X168066830Y-77185966D01*
X167967535Y-77139664D01*
X167852663Y-77086098D01*
X167852659Y-77086097D01*
X167852655Y-77086095D01*
X167624413Y-77024939D01*
X167624403Y-77024937D01*
X167389001Y-77004342D01*
X167388999Y-77004342D01*
X167153596Y-77024937D01*
X167153586Y-77024939D01*
X166925344Y-77086095D01*
X166925335Y-77086099D01*
X166711171Y-77185965D01*
X166711169Y-77185966D01*
X166517597Y-77321506D01*
X166350505Y-77488598D01*
X166220575Y-77674159D01*
X166165998Y-77717784D01*
X166096500Y-77724978D01*
X166034145Y-77693455D01*
X166017425Y-77674159D01*
X165887494Y-77488598D01*
X165720402Y-77321507D01*
X165720395Y-77321502D01*
X165711723Y-77315430D01*
X165653294Y-77274517D01*
X165526834Y-77185968D01*
X165526830Y-77185966D01*
X165427535Y-77139664D01*
X165312663Y-77086098D01*
X165312659Y-77086097D01*
X165312655Y-77086095D01*
X165084413Y-77024939D01*
X165084403Y-77024937D01*
X164849001Y-77004342D01*
X164848999Y-77004342D01*
X164613596Y-77024937D01*
X164613586Y-77024939D01*
X164385344Y-77086095D01*
X164385335Y-77086099D01*
X164171171Y-77185965D01*
X164171169Y-77185966D01*
X163977597Y-77321506D01*
X163810505Y-77488598D01*
X163674965Y-77682170D01*
X163674964Y-77682172D01*
X163575098Y-77896336D01*
X163575094Y-77896345D01*
X163513938Y-78124587D01*
X163513936Y-78124597D01*
X163493341Y-78360000D01*
X163493341Y-78360001D01*
X113617714Y-78360001D01*
X113687023Y-78218229D01*
X113688546Y-78215322D01*
X113808494Y-78001139D01*
X113809215Y-77999891D01*
X113928592Y-77799550D01*
X113930237Y-77796945D01*
X114066604Y-77592859D01*
X114067566Y-77591466D01*
X114203085Y-77401659D01*
X114204757Y-77399432D01*
X114356678Y-77206720D01*
X114357995Y-77205109D01*
X114508701Y-77027172D01*
X114510396Y-77025258D01*
X114676963Y-76845066D01*
X114678539Y-76843428D01*
X114843428Y-76678539D01*
X114845066Y-76676963D01*
X115025258Y-76510396D01*
X115027172Y-76508701D01*
X115205109Y-76357995D01*
X115206720Y-76356678D01*
X115399432Y-76204757D01*
X115401659Y-76203085D01*
X115591466Y-76067566D01*
X115592859Y-76066604D01*
X115796945Y-75930237D01*
X115799550Y-75928592D01*
X115999891Y-75809215D01*
X116001139Y-75808494D01*
X116215322Y-75688546D01*
X116218229Y-75687023D01*
X116427767Y-75584585D01*
X116428781Y-75584103D01*
X116651755Y-75481312D01*
X116655087Y-75479895D01*
X116872718Y-75394974D01*
X117103463Y-75309848D01*
X117107185Y-75308608D01*
X117330961Y-75241986D01*
X117567599Y-75175248D01*
X117571623Y-75174259D01*
X117800012Y-75126371D01*
X118041035Y-75078428D01*
X118045438Y-75077718D01*
X118207825Y-75057477D01*
X118215502Y-75057000D01*
X200784498Y-75057000D01*
X200792167Y-75057475D01*
G37*
%TD.AperFunction*%
%TD*%
M02*
