%TF.GenerationSoftware,KiCad,Pcbnew,7.0.5*%
%TF.CreationDate,2024-07-05T18:30:49+07:00*%
%TF.ProjectId,project233,70726f6a-6563-4743-9233-332e6b696361,rev?*%
%TF.SameCoordinates,Original*%
%TF.FileFunction,Legend,Top*%
%TF.FilePolarity,Positive*%
%FSLAX46Y46*%
G04 Gerber Fmt 4.6, Leading zero omitted, Abs format (unit mm)*
G04 Created by KiCad (PCBNEW 7.0.5) date 2024-07-05 18:30:49*
%MOMM*%
%LPD*%
G01*
G04 APERTURE LIST*
%ADD10C,0.500000*%
%ADD11C,0.150000*%
%ADD12C,0.203200*%
%ADD13C,0.100000*%
%ADD14C,0.120000*%
%ADD15C,0.010000*%
%ADD16C,0.152400*%
G04 APERTURE END LIST*
D10*
X115062000Y-96774000D02*
X139954000Y-96774000D01*
X139954000Y-112014000D01*
X115062000Y-112014000D01*
X115062000Y-96774000D01*
D11*
X120446000Y-80772000D02*
X158446000Y-80772000D01*
X158446000Y-94772000D01*
X120446000Y-94772000D01*
X120446000Y-80772000D01*
D12*
X155642160Y-103116093D02*
X155303493Y-102632284D01*
X155061588Y-103116093D02*
X155061588Y-102100093D01*
X155061588Y-102100093D02*
X155448636Y-102100093D01*
X155448636Y-102100093D02*
X155545398Y-102148474D01*
X155545398Y-102148474D02*
X155593779Y-102196855D01*
X155593779Y-102196855D02*
X155642160Y-102293617D01*
X155642160Y-102293617D02*
X155642160Y-102438760D01*
X155642160Y-102438760D02*
X155593779Y-102535522D01*
X155593779Y-102535522D02*
X155545398Y-102583903D01*
X155545398Y-102583903D02*
X155448636Y-102632284D01*
X155448636Y-102632284D02*
X155061588Y-102632284D01*
X156077588Y-102583903D02*
X156416255Y-102583903D01*
X156561398Y-103116093D02*
X156077588Y-103116093D01*
X156077588Y-103116093D02*
X156077588Y-102100093D01*
X156077588Y-102100093D02*
X156561398Y-102100093D01*
X156948445Y-103067713D02*
X157093588Y-103116093D01*
X157093588Y-103116093D02*
X157335493Y-103116093D01*
X157335493Y-103116093D02*
X157432255Y-103067713D01*
X157432255Y-103067713D02*
X157480636Y-103019332D01*
X157480636Y-103019332D02*
X157529017Y-102922570D01*
X157529017Y-102922570D02*
X157529017Y-102825808D01*
X157529017Y-102825808D02*
X157480636Y-102729046D01*
X157480636Y-102729046D02*
X157432255Y-102680665D01*
X157432255Y-102680665D02*
X157335493Y-102632284D01*
X157335493Y-102632284D02*
X157141969Y-102583903D01*
X157141969Y-102583903D02*
X157045207Y-102535522D01*
X157045207Y-102535522D02*
X156996826Y-102487141D01*
X156996826Y-102487141D02*
X156948445Y-102390379D01*
X156948445Y-102390379D02*
X156948445Y-102293617D01*
X156948445Y-102293617D02*
X156996826Y-102196855D01*
X156996826Y-102196855D02*
X157045207Y-102148474D01*
X157045207Y-102148474D02*
X157141969Y-102100093D01*
X157141969Y-102100093D02*
X157383874Y-102100093D01*
X157383874Y-102100093D02*
X157529017Y-102148474D01*
X157964445Y-102583903D02*
X158303112Y-102583903D01*
X158448255Y-103116093D02*
X157964445Y-103116093D01*
X157964445Y-103116093D02*
X157964445Y-102100093D01*
X157964445Y-102100093D02*
X158448255Y-102100093D01*
X158738540Y-102100093D02*
X159319112Y-102100093D01*
X159028826Y-103116093D02*
X159028826Y-102100093D01*
D11*
%TO.C,R2*%
X164298333Y-90624819D02*
X163965000Y-90148628D01*
X163726905Y-90624819D02*
X163726905Y-89624819D01*
X163726905Y-89624819D02*
X164107857Y-89624819D01*
X164107857Y-89624819D02*
X164203095Y-89672438D01*
X164203095Y-89672438D02*
X164250714Y-89720057D01*
X164250714Y-89720057D02*
X164298333Y-89815295D01*
X164298333Y-89815295D02*
X164298333Y-89958152D01*
X164298333Y-89958152D02*
X164250714Y-90053390D01*
X164250714Y-90053390D02*
X164203095Y-90101009D01*
X164203095Y-90101009D02*
X164107857Y-90148628D01*
X164107857Y-90148628D02*
X163726905Y-90148628D01*
X164679286Y-89720057D02*
X164726905Y-89672438D01*
X164726905Y-89672438D02*
X164822143Y-89624819D01*
X164822143Y-89624819D02*
X165060238Y-89624819D01*
X165060238Y-89624819D02*
X165155476Y-89672438D01*
X165155476Y-89672438D02*
X165203095Y-89720057D01*
X165203095Y-89720057D02*
X165250714Y-89815295D01*
X165250714Y-89815295D02*
X165250714Y-89910533D01*
X165250714Y-89910533D02*
X165203095Y-90053390D01*
X165203095Y-90053390D02*
X164631667Y-90624819D01*
X164631667Y-90624819D02*
X165250714Y-90624819D01*
%TO.C,C22*%
X147058142Y-121517580D02*
X147010523Y-121565200D01*
X147010523Y-121565200D02*
X146867666Y-121612819D01*
X146867666Y-121612819D02*
X146772428Y-121612819D01*
X146772428Y-121612819D02*
X146629571Y-121565200D01*
X146629571Y-121565200D02*
X146534333Y-121469961D01*
X146534333Y-121469961D02*
X146486714Y-121374723D01*
X146486714Y-121374723D02*
X146439095Y-121184247D01*
X146439095Y-121184247D02*
X146439095Y-121041390D01*
X146439095Y-121041390D02*
X146486714Y-120850914D01*
X146486714Y-120850914D02*
X146534333Y-120755676D01*
X146534333Y-120755676D02*
X146629571Y-120660438D01*
X146629571Y-120660438D02*
X146772428Y-120612819D01*
X146772428Y-120612819D02*
X146867666Y-120612819D01*
X146867666Y-120612819D02*
X147010523Y-120660438D01*
X147010523Y-120660438D02*
X147058142Y-120708057D01*
X147439095Y-120708057D02*
X147486714Y-120660438D01*
X147486714Y-120660438D02*
X147581952Y-120612819D01*
X147581952Y-120612819D02*
X147820047Y-120612819D01*
X147820047Y-120612819D02*
X147915285Y-120660438D01*
X147915285Y-120660438D02*
X147962904Y-120708057D01*
X147962904Y-120708057D02*
X148010523Y-120803295D01*
X148010523Y-120803295D02*
X148010523Y-120898533D01*
X148010523Y-120898533D02*
X147962904Y-121041390D01*
X147962904Y-121041390D02*
X147391476Y-121612819D01*
X147391476Y-121612819D02*
X148010523Y-121612819D01*
X148391476Y-120708057D02*
X148439095Y-120660438D01*
X148439095Y-120660438D02*
X148534333Y-120612819D01*
X148534333Y-120612819D02*
X148772428Y-120612819D01*
X148772428Y-120612819D02*
X148867666Y-120660438D01*
X148867666Y-120660438D02*
X148915285Y-120708057D01*
X148915285Y-120708057D02*
X148962904Y-120803295D01*
X148962904Y-120803295D02*
X148962904Y-120898533D01*
X148962904Y-120898533D02*
X148915285Y-121041390D01*
X148915285Y-121041390D02*
X148343857Y-121612819D01*
X148343857Y-121612819D02*
X148962904Y-121612819D01*
%TO.C,U4*%
X181229095Y-108547819D02*
X181229095Y-109357342D01*
X181229095Y-109357342D02*
X181276714Y-109452580D01*
X181276714Y-109452580D02*
X181324333Y-109500200D01*
X181324333Y-109500200D02*
X181419571Y-109547819D01*
X181419571Y-109547819D02*
X181610047Y-109547819D01*
X181610047Y-109547819D02*
X181705285Y-109500200D01*
X181705285Y-109500200D02*
X181752904Y-109452580D01*
X181752904Y-109452580D02*
X181800523Y-109357342D01*
X181800523Y-109357342D02*
X181800523Y-108547819D01*
X182705285Y-108881152D02*
X182705285Y-109547819D01*
X182467190Y-108500200D02*
X182229095Y-109214485D01*
X182229095Y-109214485D02*
X182848142Y-109214485D01*
%TO.C,R13*%
X161663142Y-116532819D02*
X161329809Y-116056628D01*
X161091714Y-116532819D02*
X161091714Y-115532819D01*
X161091714Y-115532819D02*
X161472666Y-115532819D01*
X161472666Y-115532819D02*
X161567904Y-115580438D01*
X161567904Y-115580438D02*
X161615523Y-115628057D01*
X161615523Y-115628057D02*
X161663142Y-115723295D01*
X161663142Y-115723295D02*
X161663142Y-115866152D01*
X161663142Y-115866152D02*
X161615523Y-115961390D01*
X161615523Y-115961390D02*
X161567904Y-116009009D01*
X161567904Y-116009009D02*
X161472666Y-116056628D01*
X161472666Y-116056628D02*
X161091714Y-116056628D01*
X162615523Y-116532819D02*
X162044095Y-116532819D01*
X162329809Y-116532819D02*
X162329809Y-115532819D01*
X162329809Y-115532819D02*
X162234571Y-115675676D01*
X162234571Y-115675676D02*
X162139333Y-115770914D01*
X162139333Y-115770914D02*
X162044095Y-115818533D01*
X162948857Y-115532819D02*
X163567904Y-115532819D01*
X163567904Y-115532819D02*
X163234571Y-115913771D01*
X163234571Y-115913771D02*
X163377428Y-115913771D01*
X163377428Y-115913771D02*
X163472666Y-115961390D01*
X163472666Y-115961390D02*
X163520285Y-116009009D01*
X163520285Y-116009009D02*
X163567904Y-116104247D01*
X163567904Y-116104247D02*
X163567904Y-116342342D01*
X163567904Y-116342342D02*
X163520285Y-116437580D01*
X163520285Y-116437580D02*
X163472666Y-116485200D01*
X163472666Y-116485200D02*
X163377428Y-116532819D01*
X163377428Y-116532819D02*
X163091714Y-116532819D01*
X163091714Y-116532819D02*
X162996476Y-116485200D01*
X162996476Y-116485200D02*
X162948857Y-116437580D01*
%TO.C,R8*%
X117181333Y-105610819D02*
X116848000Y-105134628D01*
X116609905Y-105610819D02*
X116609905Y-104610819D01*
X116609905Y-104610819D02*
X116990857Y-104610819D01*
X116990857Y-104610819D02*
X117086095Y-104658438D01*
X117086095Y-104658438D02*
X117133714Y-104706057D01*
X117133714Y-104706057D02*
X117181333Y-104801295D01*
X117181333Y-104801295D02*
X117181333Y-104944152D01*
X117181333Y-104944152D02*
X117133714Y-105039390D01*
X117133714Y-105039390D02*
X117086095Y-105087009D01*
X117086095Y-105087009D02*
X116990857Y-105134628D01*
X116990857Y-105134628D02*
X116609905Y-105134628D01*
X117752762Y-105039390D02*
X117657524Y-104991771D01*
X117657524Y-104991771D02*
X117609905Y-104944152D01*
X117609905Y-104944152D02*
X117562286Y-104848914D01*
X117562286Y-104848914D02*
X117562286Y-104801295D01*
X117562286Y-104801295D02*
X117609905Y-104706057D01*
X117609905Y-104706057D02*
X117657524Y-104658438D01*
X117657524Y-104658438D02*
X117752762Y-104610819D01*
X117752762Y-104610819D02*
X117943238Y-104610819D01*
X117943238Y-104610819D02*
X118038476Y-104658438D01*
X118038476Y-104658438D02*
X118086095Y-104706057D01*
X118086095Y-104706057D02*
X118133714Y-104801295D01*
X118133714Y-104801295D02*
X118133714Y-104848914D01*
X118133714Y-104848914D02*
X118086095Y-104944152D01*
X118086095Y-104944152D02*
X118038476Y-104991771D01*
X118038476Y-104991771D02*
X117943238Y-105039390D01*
X117943238Y-105039390D02*
X117752762Y-105039390D01*
X117752762Y-105039390D02*
X117657524Y-105087009D01*
X117657524Y-105087009D02*
X117609905Y-105134628D01*
X117609905Y-105134628D02*
X117562286Y-105229866D01*
X117562286Y-105229866D02*
X117562286Y-105420342D01*
X117562286Y-105420342D02*
X117609905Y-105515580D01*
X117609905Y-105515580D02*
X117657524Y-105563200D01*
X117657524Y-105563200D02*
X117752762Y-105610819D01*
X117752762Y-105610819D02*
X117943238Y-105610819D01*
X117943238Y-105610819D02*
X118038476Y-105563200D01*
X118038476Y-105563200D02*
X118086095Y-105515580D01*
X118086095Y-105515580D02*
X118133714Y-105420342D01*
X118133714Y-105420342D02*
X118133714Y-105229866D01*
X118133714Y-105229866D02*
X118086095Y-105134628D01*
X118086095Y-105134628D02*
X118038476Y-105087009D01*
X118038476Y-105087009D02*
X117943238Y-105039390D01*
%TO.C,D5*%
X203096905Y-121993819D02*
X203096905Y-120993819D01*
X203096905Y-120993819D02*
X203335000Y-120993819D01*
X203335000Y-120993819D02*
X203477857Y-121041438D01*
X203477857Y-121041438D02*
X203573095Y-121136676D01*
X203573095Y-121136676D02*
X203620714Y-121231914D01*
X203620714Y-121231914D02*
X203668333Y-121422390D01*
X203668333Y-121422390D02*
X203668333Y-121565247D01*
X203668333Y-121565247D02*
X203620714Y-121755723D01*
X203620714Y-121755723D02*
X203573095Y-121850961D01*
X203573095Y-121850961D02*
X203477857Y-121946200D01*
X203477857Y-121946200D02*
X203335000Y-121993819D01*
X203335000Y-121993819D02*
X203096905Y-121993819D01*
X204573095Y-120993819D02*
X204096905Y-120993819D01*
X204096905Y-120993819D02*
X204049286Y-121470009D01*
X204049286Y-121470009D02*
X204096905Y-121422390D01*
X204096905Y-121422390D02*
X204192143Y-121374771D01*
X204192143Y-121374771D02*
X204430238Y-121374771D01*
X204430238Y-121374771D02*
X204525476Y-121422390D01*
X204525476Y-121422390D02*
X204573095Y-121470009D01*
X204573095Y-121470009D02*
X204620714Y-121565247D01*
X204620714Y-121565247D02*
X204620714Y-121803342D01*
X204620714Y-121803342D02*
X204573095Y-121898580D01*
X204573095Y-121898580D02*
X204525476Y-121946200D01*
X204525476Y-121946200D02*
X204430238Y-121993819D01*
X204430238Y-121993819D02*
X204192143Y-121993819D01*
X204192143Y-121993819D02*
X204096905Y-121946200D01*
X204096905Y-121946200D02*
X204049286Y-121898580D01*
%TO.C,C5*%
X183475333Y-90373580D02*
X183427714Y-90421200D01*
X183427714Y-90421200D02*
X183284857Y-90468819D01*
X183284857Y-90468819D02*
X183189619Y-90468819D01*
X183189619Y-90468819D02*
X183046762Y-90421200D01*
X183046762Y-90421200D02*
X182951524Y-90325961D01*
X182951524Y-90325961D02*
X182903905Y-90230723D01*
X182903905Y-90230723D02*
X182856286Y-90040247D01*
X182856286Y-90040247D02*
X182856286Y-89897390D01*
X182856286Y-89897390D02*
X182903905Y-89706914D01*
X182903905Y-89706914D02*
X182951524Y-89611676D01*
X182951524Y-89611676D02*
X183046762Y-89516438D01*
X183046762Y-89516438D02*
X183189619Y-89468819D01*
X183189619Y-89468819D02*
X183284857Y-89468819D01*
X183284857Y-89468819D02*
X183427714Y-89516438D01*
X183427714Y-89516438D02*
X183475333Y-89564057D01*
X184380095Y-89468819D02*
X183903905Y-89468819D01*
X183903905Y-89468819D02*
X183856286Y-89945009D01*
X183856286Y-89945009D02*
X183903905Y-89897390D01*
X183903905Y-89897390D02*
X183999143Y-89849771D01*
X183999143Y-89849771D02*
X184237238Y-89849771D01*
X184237238Y-89849771D02*
X184332476Y-89897390D01*
X184332476Y-89897390D02*
X184380095Y-89945009D01*
X184380095Y-89945009D02*
X184427714Y-90040247D01*
X184427714Y-90040247D02*
X184427714Y-90278342D01*
X184427714Y-90278342D02*
X184380095Y-90373580D01*
X184380095Y-90373580D02*
X184332476Y-90421200D01*
X184332476Y-90421200D02*
X184237238Y-90468819D01*
X184237238Y-90468819D02*
X183999143Y-90468819D01*
X183999143Y-90468819D02*
X183903905Y-90421200D01*
X183903905Y-90421200D02*
X183856286Y-90373580D01*
%TO.C,C10*%
X165661142Y-103483580D02*
X165613523Y-103531200D01*
X165613523Y-103531200D02*
X165470666Y-103578819D01*
X165470666Y-103578819D02*
X165375428Y-103578819D01*
X165375428Y-103578819D02*
X165232571Y-103531200D01*
X165232571Y-103531200D02*
X165137333Y-103435961D01*
X165137333Y-103435961D02*
X165089714Y-103340723D01*
X165089714Y-103340723D02*
X165042095Y-103150247D01*
X165042095Y-103150247D02*
X165042095Y-103007390D01*
X165042095Y-103007390D02*
X165089714Y-102816914D01*
X165089714Y-102816914D02*
X165137333Y-102721676D01*
X165137333Y-102721676D02*
X165232571Y-102626438D01*
X165232571Y-102626438D02*
X165375428Y-102578819D01*
X165375428Y-102578819D02*
X165470666Y-102578819D01*
X165470666Y-102578819D02*
X165613523Y-102626438D01*
X165613523Y-102626438D02*
X165661142Y-102674057D01*
X166613523Y-103578819D02*
X166042095Y-103578819D01*
X166327809Y-103578819D02*
X166327809Y-102578819D01*
X166327809Y-102578819D02*
X166232571Y-102721676D01*
X166232571Y-102721676D02*
X166137333Y-102816914D01*
X166137333Y-102816914D02*
X166042095Y-102864533D01*
X167232571Y-102578819D02*
X167327809Y-102578819D01*
X167327809Y-102578819D02*
X167423047Y-102626438D01*
X167423047Y-102626438D02*
X167470666Y-102674057D01*
X167470666Y-102674057D02*
X167518285Y-102769295D01*
X167518285Y-102769295D02*
X167565904Y-102959771D01*
X167565904Y-102959771D02*
X167565904Y-103197866D01*
X167565904Y-103197866D02*
X167518285Y-103388342D01*
X167518285Y-103388342D02*
X167470666Y-103483580D01*
X167470666Y-103483580D02*
X167423047Y-103531200D01*
X167423047Y-103531200D02*
X167327809Y-103578819D01*
X167327809Y-103578819D02*
X167232571Y-103578819D01*
X167232571Y-103578819D02*
X167137333Y-103531200D01*
X167137333Y-103531200D02*
X167089714Y-103483580D01*
X167089714Y-103483580D02*
X167042095Y-103388342D01*
X167042095Y-103388342D02*
X166994476Y-103197866D01*
X166994476Y-103197866D02*
X166994476Y-102959771D01*
X166994476Y-102959771D02*
X167042095Y-102769295D01*
X167042095Y-102769295D02*
X167089714Y-102674057D01*
X167089714Y-102674057D02*
X167137333Y-102626438D01*
X167137333Y-102626438D02*
X167232571Y-102578819D01*
%TO.C,C6*%
X165060333Y-100435580D02*
X165012714Y-100483200D01*
X165012714Y-100483200D02*
X164869857Y-100530819D01*
X164869857Y-100530819D02*
X164774619Y-100530819D01*
X164774619Y-100530819D02*
X164631762Y-100483200D01*
X164631762Y-100483200D02*
X164536524Y-100387961D01*
X164536524Y-100387961D02*
X164488905Y-100292723D01*
X164488905Y-100292723D02*
X164441286Y-100102247D01*
X164441286Y-100102247D02*
X164441286Y-99959390D01*
X164441286Y-99959390D02*
X164488905Y-99768914D01*
X164488905Y-99768914D02*
X164536524Y-99673676D01*
X164536524Y-99673676D02*
X164631762Y-99578438D01*
X164631762Y-99578438D02*
X164774619Y-99530819D01*
X164774619Y-99530819D02*
X164869857Y-99530819D01*
X164869857Y-99530819D02*
X165012714Y-99578438D01*
X165012714Y-99578438D02*
X165060333Y-99626057D01*
X165917476Y-99530819D02*
X165727000Y-99530819D01*
X165727000Y-99530819D02*
X165631762Y-99578438D01*
X165631762Y-99578438D02*
X165584143Y-99626057D01*
X165584143Y-99626057D02*
X165488905Y-99768914D01*
X165488905Y-99768914D02*
X165441286Y-99959390D01*
X165441286Y-99959390D02*
X165441286Y-100340342D01*
X165441286Y-100340342D02*
X165488905Y-100435580D01*
X165488905Y-100435580D02*
X165536524Y-100483200D01*
X165536524Y-100483200D02*
X165631762Y-100530819D01*
X165631762Y-100530819D02*
X165822238Y-100530819D01*
X165822238Y-100530819D02*
X165917476Y-100483200D01*
X165917476Y-100483200D02*
X165965095Y-100435580D01*
X165965095Y-100435580D02*
X166012714Y-100340342D01*
X166012714Y-100340342D02*
X166012714Y-100102247D01*
X166012714Y-100102247D02*
X165965095Y-100007009D01*
X165965095Y-100007009D02*
X165917476Y-99959390D01*
X165917476Y-99959390D02*
X165822238Y-99911771D01*
X165822238Y-99911771D02*
X165631762Y-99911771D01*
X165631762Y-99911771D02*
X165536524Y-99959390D01*
X165536524Y-99959390D02*
X165488905Y-100007009D01*
X165488905Y-100007009D02*
X165441286Y-100102247D01*
%TO.C,C27*%
X186047142Y-103991580D02*
X185999523Y-104039200D01*
X185999523Y-104039200D02*
X185856666Y-104086819D01*
X185856666Y-104086819D02*
X185761428Y-104086819D01*
X185761428Y-104086819D02*
X185618571Y-104039200D01*
X185618571Y-104039200D02*
X185523333Y-103943961D01*
X185523333Y-103943961D02*
X185475714Y-103848723D01*
X185475714Y-103848723D02*
X185428095Y-103658247D01*
X185428095Y-103658247D02*
X185428095Y-103515390D01*
X185428095Y-103515390D02*
X185475714Y-103324914D01*
X185475714Y-103324914D02*
X185523333Y-103229676D01*
X185523333Y-103229676D02*
X185618571Y-103134438D01*
X185618571Y-103134438D02*
X185761428Y-103086819D01*
X185761428Y-103086819D02*
X185856666Y-103086819D01*
X185856666Y-103086819D02*
X185999523Y-103134438D01*
X185999523Y-103134438D02*
X186047142Y-103182057D01*
X186428095Y-103182057D02*
X186475714Y-103134438D01*
X186475714Y-103134438D02*
X186570952Y-103086819D01*
X186570952Y-103086819D02*
X186809047Y-103086819D01*
X186809047Y-103086819D02*
X186904285Y-103134438D01*
X186904285Y-103134438D02*
X186951904Y-103182057D01*
X186951904Y-103182057D02*
X186999523Y-103277295D01*
X186999523Y-103277295D02*
X186999523Y-103372533D01*
X186999523Y-103372533D02*
X186951904Y-103515390D01*
X186951904Y-103515390D02*
X186380476Y-104086819D01*
X186380476Y-104086819D02*
X186999523Y-104086819D01*
X187332857Y-103086819D02*
X187999523Y-103086819D01*
X187999523Y-103086819D02*
X187570952Y-104086819D01*
%TO.C,FB1*%
X190936666Y-104071009D02*
X190603333Y-104071009D01*
X190603333Y-104594819D02*
X190603333Y-103594819D01*
X190603333Y-103594819D02*
X191079523Y-103594819D01*
X191793809Y-104071009D02*
X191936666Y-104118628D01*
X191936666Y-104118628D02*
X191984285Y-104166247D01*
X191984285Y-104166247D02*
X192031904Y-104261485D01*
X192031904Y-104261485D02*
X192031904Y-104404342D01*
X192031904Y-104404342D02*
X191984285Y-104499580D01*
X191984285Y-104499580D02*
X191936666Y-104547200D01*
X191936666Y-104547200D02*
X191841428Y-104594819D01*
X191841428Y-104594819D02*
X191460476Y-104594819D01*
X191460476Y-104594819D02*
X191460476Y-103594819D01*
X191460476Y-103594819D02*
X191793809Y-103594819D01*
X191793809Y-103594819D02*
X191889047Y-103642438D01*
X191889047Y-103642438D02*
X191936666Y-103690057D01*
X191936666Y-103690057D02*
X191984285Y-103785295D01*
X191984285Y-103785295D02*
X191984285Y-103880533D01*
X191984285Y-103880533D02*
X191936666Y-103975771D01*
X191936666Y-103975771D02*
X191889047Y-104023390D01*
X191889047Y-104023390D02*
X191793809Y-104071009D01*
X191793809Y-104071009D02*
X191460476Y-104071009D01*
X192984285Y-104594819D02*
X192412857Y-104594819D01*
X192698571Y-104594819D02*
X192698571Y-103594819D01*
X192698571Y-103594819D02*
X192603333Y-103737676D01*
X192603333Y-103737676D02*
X192508095Y-103832914D01*
X192508095Y-103832914D02*
X192412857Y-103880533D01*
%TO.C,R5*%
X188936333Y-119326819D02*
X188603000Y-118850628D01*
X188364905Y-119326819D02*
X188364905Y-118326819D01*
X188364905Y-118326819D02*
X188745857Y-118326819D01*
X188745857Y-118326819D02*
X188841095Y-118374438D01*
X188841095Y-118374438D02*
X188888714Y-118422057D01*
X188888714Y-118422057D02*
X188936333Y-118517295D01*
X188936333Y-118517295D02*
X188936333Y-118660152D01*
X188936333Y-118660152D02*
X188888714Y-118755390D01*
X188888714Y-118755390D02*
X188841095Y-118803009D01*
X188841095Y-118803009D02*
X188745857Y-118850628D01*
X188745857Y-118850628D02*
X188364905Y-118850628D01*
X189841095Y-118326819D02*
X189364905Y-118326819D01*
X189364905Y-118326819D02*
X189317286Y-118803009D01*
X189317286Y-118803009D02*
X189364905Y-118755390D01*
X189364905Y-118755390D02*
X189460143Y-118707771D01*
X189460143Y-118707771D02*
X189698238Y-118707771D01*
X189698238Y-118707771D02*
X189793476Y-118755390D01*
X189793476Y-118755390D02*
X189841095Y-118803009D01*
X189841095Y-118803009D02*
X189888714Y-118898247D01*
X189888714Y-118898247D02*
X189888714Y-119136342D01*
X189888714Y-119136342D02*
X189841095Y-119231580D01*
X189841095Y-119231580D02*
X189793476Y-119279200D01*
X189793476Y-119279200D02*
X189698238Y-119326819D01*
X189698238Y-119326819D02*
X189460143Y-119326819D01*
X189460143Y-119326819D02*
X189364905Y-119279200D01*
X189364905Y-119279200D02*
X189317286Y-119231580D01*
%TO.C,C11*%
X183319142Y-81639580D02*
X183271523Y-81687200D01*
X183271523Y-81687200D02*
X183128666Y-81734819D01*
X183128666Y-81734819D02*
X183033428Y-81734819D01*
X183033428Y-81734819D02*
X182890571Y-81687200D01*
X182890571Y-81687200D02*
X182795333Y-81591961D01*
X182795333Y-81591961D02*
X182747714Y-81496723D01*
X182747714Y-81496723D02*
X182700095Y-81306247D01*
X182700095Y-81306247D02*
X182700095Y-81163390D01*
X182700095Y-81163390D02*
X182747714Y-80972914D01*
X182747714Y-80972914D02*
X182795333Y-80877676D01*
X182795333Y-80877676D02*
X182890571Y-80782438D01*
X182890571Y-80782438D02*
X183033428Y-80734819D01*
X183033428Y-80734819D02*
X183128666Y-80734819D01*
X183128666Y-80734819D02*
X183271523Y-80782438D01*
X183271523Y-80782438D02*
X183319142Y-80830057D01*
X184271523Y-81734819D02*
X183700095Y-81734819D01*
X183985809Y-81734819D02*
X183985809Y-80734819D01*
X183985809Y-80734819D02*
X183890571Y-80877676D01*
X183890571Y-80877676D02*
X183795333Y-80972914D01*
X183795333Y-80972914D02*
X183700095Y-81020533D01*
X185223904Y-81734819D02*
X184652476Y-81734819D01*
X184938190Y-81734819D02*
X184938190Y-80734819D01*
X184938190Y-80734819D02*
X184842952Y-80877676D01*
X184842952Y-80877676D02*
X184747714Y-80972914D01*
X184747714Y-80972914D02*
X184652476Y-81020533D01*
%TO.C,C15*%
X192129580Y-114942857D02*
X192177200Y-114990476D01*
X192177200Y-114990476D02*
X192224819Y-115133333D01*
X192224819Y-115133333D02*
X192224819Y-115228571D01*
X192224819Y-115228571D02*
X192177200Y-115371428D01*
X192177200Y-115371428D02*
X192081961Y-115466666D01*
X192081961Y-115466666D02*
X191986723Y-115514285D01*
X191986723Y-115514285D02*
X191796247Y-115561904D01*
X191796247Y-115561904D02*
X191653390Y-115561904D01*
X191653390Y-115561904D02*
X191462914Y-115514285D01*
X191462914Y-115514285D02*
X191367676Y-115466666D01*
X191367676Y-115466666D02*
X191272438Y-115371428D01*
X191272438Y-115371428D02*
X191224819Y-115228571D01*
X191224819Y-115228571D02*
X191224819Y-115133333D01*
X191224819Y-115133333D02*
X191272438Y-114990476D01*
X191272438Y-114990476D02*
X191320057Y-114942857D01*
X192224819Y-113990476D02*
X192224819Y-114561904D01*
X192224819Y-114276190D02*
X191224819Y-114276190D01*
X191224819Y-114276190D02*
X191367676Y-114371428D01*
X191367676Y-114371428D02*
X191462914Y-114466666D01*
X191462914Y-114466666D02*
X191510533Y-114561904D01*
X191224819Y-113085714D02*
X191224819Y-113561904D01*
X191224819Y-113561904D02*
X191701009Y-113609523D01*
X191701009Y-113609523D02*
X191653390Y-113561904D01*
X191653390Y-113561904D02*
X191605771Y-113466666D01*
X191605771Y-113466666D02*
X191605771Y-113228571D01*
X191605771Y-113228571D02*
X191653390Y-113133333D01*
X191653390Y-113133333D02*
X191701009Y-113085714D01*
X191701009Y-113085714D02*
X191796247Y-113038095D01*
X191796247Y-113038095D02*
X192034342Y-113038095D01*
X192034342Y-113038095D02*
X192129580Y-113085714D01*
X192129580Y-113085714D02*
X192177200Y-113133333D01*
X192177200Y-113133333D02*
X192224819Y-113228571D01*
X192224819Y-113228571D02*
X192224819Y-113466666D01*
X192224819Y-113466666D02*
X192177200Y-113561904D01*
X192177200Y-113561904D02*
X192129580Y-113609523D01*
%TO.C,C12*%
X203192142Y-116056580D02*
X203144523Y-116104200D01*
X203144523Y-116104200D02*
X203001666Y-116151819D01*
X203001666Y-116151819D02*
X202906428Y-116151819D01*
X202906428Y-116151819D02*
X202763571Y-116104200D01*
X202763571Y-116104200D02*
X202668333Y-116008961D01*
X202668333Y-116008961D02*
X202620714Y-115913723D01*
X202620714Y-115913723D02*
X202573095Y-115723247D01*
X202573095Y-115723247D02*
X202573095Y-115580390D01*
X202573095Y-115580390D02*
X202620714Y-115389914D01*
X202620714Y-115389914D02*
X202668333Y-115294676D01*
X202668333Y-115294676D02*
X202763571Y-115199438D01*
X202763571Y-115199438D02*
X202906428Y-115151819D01*
X202906428Y-115151819D02*
X203001666Y-115151819D01*
X203001666Y-115151819D02*
X203144523Y-115199438D01*
X203144523Y-115199438D02*
X203192142Y-115247057D01*
X204144523Y-116151819D02*
X203573095Y-116151819D01*
X203858809Y-116151819D02*
X203858809Y-115151819D01*
X203858809Y-115151819D02*
X203763571Y-115294676D01*
X203763571Y-115294676D02*
X203668333Y-115389914D01*
X203668333Y-115389914D02*
X203573095Y-115437533D01*
X204525476Y-115247057D02*
X204573095Y-115199438D01*
X204573095Y-115199438D02*
X204668333Y-115151819D01*
X204668333Y-115151819D02*
X204906428Y-115151819D01*
X204906428Y-115151819D02*
X205001666Y-115199438D01*
X205001666Y-115199438D02*
X205049285Y-115247057D01*
X205049285Y-115247057D02*
X205096904Y-115342295D01*
X205096904Y-115342295D02*
X205096904Y-115437533D01*
X205096904Y-115437533D02*
X205049285Y-115580390D01*
X205049285Y-115580390D02*
X204477857Y-116151819D01*
X204477857Y-116151819D02*
X205096904Y-116151819D01*
%TO.C,U1*%
X176403095Y-96101819D02*
X176403095Y-96911342D01*
X176403095Y-96911342D02*
X176450714Y-97006580D01*
X176450714Y-97006580D02*
X176498333Y-97054200D01*
X176498333Y-97054200D02*
X176593571Y-97101819D01*
X176593571Y-97101819D02*
X176784047Y-97101819D01*
X176784047Y-97101819D02*
X176879285Y-97054200D01*
X176879285Y-97054200D02*
X176926904Y-97006580D01*
X176926904Y-97006580D02*
X176974523Y-96911342D01*
X176974523Y-96911342D02*
X176974523Y-96101819D01*
X177974523Y-97101819D02*
X177403095Y-97101819D01*
X177688809Y-97101819D02*
X177688809Y-96101819D01*
X177688809Y-96101819D02*
X177593571Y-96244676D01*
X177593571Y-96244676D02*
X177498333Y-96339914D01*
X177498333Y-96339914D02*
X177403095Y-96387533D01*
%TO.C,R6*%
X124039333Y-98498819D02*
X123706000Y-98022628D01*
X123467905Y-98498819D02*
X123467905Y-97498819D01*
X123467905Y-97498819D02*
X123848857Y-97498819D01*
X123848857Y-97498819D02*
X123944095Y-97546438D01*
X123944095Y-97546438D02*
X123991714Y-97594057D01*
X123991714Y-97594057D02*
X124039333Y-97689295D01*
X124039333Y-97689295D02*
X124039333Y-97832152D01*
X124039333Y-97832152D02*
X123991714Y-97927390D01*
X123991714Y-97927390D02*
X123944095Y-97975009D01*
X123944095Y-97975009D02*
X123848857Y-98022628D01*
X123848857Y-98022628D02*
X123467905Y-98022628D01*
X124896476Y-97498819D02*
X124706000Y-97498819D01*
X124706000Y-97498819D02*
X124610762Y-97546438D01*
X124610762Y-97546438D02*
X124563143Y-97594057D01*
X124563143Y-97594057D02*
X124467905Y-97736914D01*
X124467905Y-97736914D02*
X124420286Y-97927390D01*
X124420286Y-97927390D02*
X124420286Y-98308342D01*
X124420286Y-98308342D02*
X124467905Y-98403580D01*
X124467905Y-98403580D02*
X124515524Y-98451200D01*
X124515524Y-98451200D02*
X124610762Y-98498819D01*
X124610762Y-98498819D02*
X124801238Y-98498819D01*
X124801238Y-98498819D02*
X124896476Y-98451200D01*
X124896476Y-98451200D02*
X124944095Y-98403580D01*
X124944095Y-98403580D02*
X124991714Y-98308342D01*
X124991714Y-98308342D02*
X124991714Y-98070247D01*
X124991714Y-98070247D02*
X124944095Y-97975009D01*
X124944095Y-97975009D02*
X124896476Y-97927390D01*
X124896476Y-97927390D02*
X124801238Y-97879771D01*
X124801238Y-97879771D02*
X124610762Y-97879771D01*
X124610762Y-97879771D02*
X124515524Y-97927390D01*
X124515524Y-97927390D02*
X124467905Y-97975009D01*
X124467905Y-97975009D02*
X124420286Y-98070247D01*
%TO.C,C3*%
X149439333Y-103229580D02*
X149391714Y-103277200D01*
X149391714Y-103277200D02*
X149248857Y-103324819D01*
X149248857Y-103324819D02*
X149153619Y-103324819D01*
X149153619Y-103324819D02*
X149010762Y-103277200D01*
X149010762Y-103277200D02*
X148915524Y-103181961D01*
X148915524Y-103181961D02*
X148867905Y-103086723D01*
X148867905Y-103086723D02*
X148820286Y-102896247D01*
X148820286Y-102896247D02*
X148820286Y-102753390D01*
X148820286Y-102753390D02*
X148867905Y-102562914D01*
X148867905Y-102562914D02*
X148915524Y-102467676D01*
X148915524Y-102467676D02*
X149010762Y-102372438D01*
X149010762Y-102372438D02*
X149153619Y-102324819D01*
X149153619Y-102324819D02*
X149248857Y-102324819D01*
X149248857Y-102324819D02*
X149391714Y-102372438D01*
X149391714Y-102372438D02*
X149439333Y-102420057D01*
X149772667Y-102324819D02*
X150391714Y-102324819D01*
X150391714Y-102324819D02*
X150058381Y-102705771D01*
X150058381Y-102705771D02*
X150201238Y-102705771D01*
X150201238Y-102705771D02*
X150296476Y-102753390D01*
X150296476Y-102753390D02*
X150344095Y-102801009D01*
X150344095Y-102801009D02*
X150391714Y-102896247D01*
X150391714Y-102896247D02*
X150391714Y-103134342D01*
X150391714Y-103134342D02*
X150344095Y-103229580D01*
X150344095Y-103229580D02*
X150296476Y-103277200D01*
X150296476Y-103277200D02*
X150201238Y-103324819D01*
X150201238Y-103324819D02*
X149915524Y-103324819D01*
X149915524Y-103324819D02*
X149820286Y-103277200D01*
X149820286Y-103277200D02*
X149772667Y-103229580D01*
%TO.C,C16*%
X182237142Y-107039580D02*
X182189523Y-107087200D01*
X182189523Y-107087200D02*
X182046666Y-107134819D01*
X182046666Y-107134819D02*
X181951428Y-107134819D01*
X181951428Y-107134819D02*
X181808571Y-107087200D01*
X181808571Y-107087200D02*
X181713333Y-106991961D01*
X181713333Y-106991961D02*
X181665714Y-106896723D01*
X181665714Y-106896723D02*
X181618095Y-106706247D01*
X181618095Y-106706247D02*
X181618095Y-106563390D01*
X181618095Y-106563390D02*
X181665714Y-106372914D01*
X181665714Y-106372914D02*
X181713333Y-106277676D01*
X181713333Y-106277676D02*
X181808571Y-106182438D01*
X181808571Y-106182438D02*
X181951428Y-106134819D01*
X181951428Y-106134819D02*
X182046666Y-106134819D01*
X182046666Y-106134819D02*
X182189523Y-106182438D01*
X182189523Y-106182438D02*
X182237142Y-106230057D01*
X183189523Y-107134819D02*
X182618095Y-107134819D01*
X182903809Y-107134819D02*
X182903809Y-106134819D01*
X182903809Y-106134819D02*
X182808571Y-106277676D01*
X182808571Y-106277676D02*
X182713333Y-106372914D01*
X182713333Y-106372914D02*
X182618095Y-106420533D01*
X184046666Y-106134819D02*
X183856190Y-106134819D01*
X183856190Y-106134819D02*
X183760952Y-106182438D01*
X183760952Y-106182438D02*
X183713333Y-106230057D01*
X183713333Y-106230057D02*
X183618095Y-106372914D01*
X183618095Y-106372914D02*
X183570476Y-106563390D01*
X183570476Y-106563390D02*
X183570476Y-106944342D01*
X183570476Y-106944342D02*
X183618095Y-107039580D01*
X183618095Y-107039580D02*
X183665714Y-107087200D01*
X183665714Y-107087200D02*
X183760952Y-107134819D01*
X183760952Y-107134819D02*
X183951428Y-107134819D01*
X183951428Y-107134819D02*
X184046666Y-107087200D01*
X184046666Y-107087200D02*
X184094285Y-107039580D01*
X184094285Y-107039580D02*
X184141904Y-106944342D01*
X184141904Y-106944342D02*
X184141904Y-106706247D01*
X184141904Y-106706247D02*
X184094285Y-106611009D01*
X184094285Y-106611009D02*
X184046666Y-106563390D01*
X184046666Y-106563390D02*
X183951428Y-106515771D01*
X183951428Y-106515771D02*
X183760952Y-106515771D01*
X183760952Y-106515771D02*
X183665714Y-106563390D01*
X183665714Y-106563390D02*
X183618095Y-106611009D01*
X183618095Y-106611009D02*
X183570476Y-106706247D01*
%TO.C,HSE1*%
X162774524Y-95958819D02*
X162774524Y-94958819D01*
X162774524Y-95435009D02*
X163345952Y-95435009D01*
X163345952Y-95958819D02*
X163345952Y-94958819D01*
X163774524Y-95911200D02*
X163917381Y-95958819D01*
X163917381Y-95958819D02*
X164155476Y-95958819D01*
X164155476Y-95958819D02*
X164250714Y-95911200D01*
X164250714Y-95911200D02*
X164298333Y-95863580D01*
X164298333Y-95863580D02*
X164345952Y-95768342D01*
X164345952Y-95768342D02*
X164345952Y-95673104D01*
X164345952Y-95673104D02*
X164298333Y-95577866D01*
X164298333Y-95577866D02*
X164250714Y-95530247D01*
X164250714Y-95530247D02*
X164155476Y-95482628D01*
X164155476Y-95482628D02*
X163965000Y-95435009D01*
X163965000Y-95435009D02*
X163869762Y-95387390D01*
X163869762Y-95387390D02*
X163822143Y-95339771D01*
X163822143Y-95339771D02*
X163774524Y-95244533D01*
X163774524Y-95244533D02*
X163774524Y-95149295D01*
X163774524Y-95149295D02*
X163822143Y-95054057D01*
X163822143Y-95054057D02*
X163869762Y-95006438D01*
X163869762Y-95006438D02*
X163965000Y-94958819D01*
X163965000Y-94958819D02*
X164203095Y-94958819D01*
X164203095Y-94958819D02*
X164345952Y-95006438D01*
X164774524Y-95435009D02*
X165107857Y-95435009D01*
X165250714Y-95958819D02*
X164774524Y-95958819D01*
X164774524Y-95958819D02*
X164774524Y-94958819D01*
X164774524Y-94958819D02*
X165250714Y-94958819D01*
X166203095Y-95958819D02*
X165631667Y-95958819D01*
X165917381Y-95958819D02*
X165917381Y-94958819D01*
X165917381Y-94958819D02*
X165822143Y-95101676D01*
X165822143Y-95101676D02*
X165726905Y-95196914D01*
X165726905Y-95196914D02*
X165631667Y-95244533D01*
%TO.C,D4*%
X185443905Y-123136819D02*
X185443905Y-122136819D01*
X185443905Y-122136819D02*
X185682000Y-122136819D01*
X185682000Y-122136819D02*
X185824857Y-122184438D01*
X185824857Y-122184438D02*
X185920095Y-122279676D01*
X185920095Y-122279676D02*
X185967714Y-122374914D01*
X185967714Y-122374914D02*
X186015333Y-122565390D01*
X186015333Y-122565390D02*
X186015333Y-122708247D01*
X186015333Y-122708247D02*
X185967714Y-122898723D01*
X185967714Y-122898723D02*
X185920095Y-122993961D01*
X185920095Y-122993961D02*
X185824857Y-123089200D01*
X185824857Y-123089200D02*
X185682000Y-123136819D01*
X185682000Y-123136819D02*
X185443905Y-123136819D01*
X186872476Y-122470152D02*
X186872476Y-123136819D01*
X186634381Y-122089200D02*
X186396286Y-122803485D01*
X186396286Y-122803485D02*
X187015333Y-122803485D01*
%TO.C,D3*%
X199540905Y-105737819D02*
X199540905Y-104737819D01*
X199540905Y-104737819D02*
X199779000Y-104737819D01*
X199779000Y-104737819D02*
X199921857Y-104785438D01*
X199921857Y-104785438D02*
X200017095Y-104880676D01*
X200017095Y-104880676D02*
X200064714Y-104975914D01*
X200064714Y-104975914D02*
X200112333Y-105166390D01*
X200112333Y-105166390D02*
X200112333Y-105309247D01*
X200112333Y-105309247D02*
X200064714Y-105499723D01*
X200064714Y-105499723D02*
X200017095Y-105594961D01*
X200017095Y-105594961D02*
X199921857Y-105690200D01*
X199921857Y-105690200D02*
X199779000Y-105737819D01*
X199779000Y-105737819D02*
X199540905Y-105737819D01*
X200445667Y-104737819D02*
X201064714Y-104737819D01*
X201064714Y-104737819D02*
X200731381Y-105118771D01*
X200731381Y-105118771D02*
X200874238Y-105118771D01*
X200874238Y-105118771D02*
X200969476Y-105166390D01*
X200969476Y-105166390D02*
X201017095Y-105214009D01*
X201017095Y-105214009D02*
X201064714Y-105309247D01*
X201064714Y-105309247D02*
X201064714Y-105547342D01*
X201064714Y-105547342D02*
X201017095Y-105642580D01*
X201017095Y-105642580D02*
X200969476Y-105690200D01*
X200969476Y-105690200D02*
X200874238Y-105737819D01*
X200874238Y-105737819D02*
X200588524Y-105737819D01*
X200588524Y-105737819D02*
X200493286Y-105690200D01*
X200493286Y-105690200D02*
X200445667Y-105642580D01*
%TO.C,C13*%
X203573142Y-111357580D02*
X203525523Y-111405200D01*
X203525523Y-111405200D02*
X203382666Y-111452819D01*
X203382666Y-111452819D02*
X203287428Y-111452819D01*
X203287428Y-111452819D02*
X203144571Y-111405200D01*
X203144571Y-111405200D02*
X203049333Y-111309961D01*
X203049333Y-111309961D02*
X203001714Y-111214723D01*
X203001714Y-111214723D02*
X202954095Y-111024247D01*
X202954095Y-111024247D02*
X202954095Y-110881390D01*
X202954095Y-110881390D02*
X203001714Y-110690914D01*
X203001714Y-110690914D02*
X203049333Y-110595676D01*
X203049333Y-110595676D02*
X203144571Y-110500438D01*
X203144571Y-110500438D02*
X203287428Y-110452819D01*
X203287428Y-110452819D02*
X203382666Y-110452819D01*
X203382666Y-110452819D02*
X203525523Y-110500438D01*
X203525523Y-110500438D02*
X203573142Y-110548057D01*
X204525523Y-111452819D02*
X203954095Y-111452819D01*
X204239809Y-111452819D02*
X204239809Y-110452819D01*
X204239809Y-110452819D02*
X204144571Y-110595676D01*
X204144571Y-110595676D02*
X204049333Y-110690914D01*
X204049333Y-110690914D02*
X203954095Y-110738533D01*
X204858857Y-110452819D02*
X205477904Y-110452819D01*
X205477904Y-110452819D02*
X205144571Y-110833771D01*
X205144571Y-110833771D02*
X205287428Y-110833771D01*
X205287428Y-110833771D02*
X205382666Y-110881390D01*
X205382666Y-110881390D02*
X205430285Y-110929009D01*
X205430285Y-110929009D02*
X205477904Y-111024247D01*
X205477904Y-111024247D02*
X205477904Y-111262342D01*
X205477904Y-111262342D02*
X205430285Y-111357580D01*
X205430285Y-111357580D02*
X205382666Y-111405200D01*
X205382666Y-111405200D02*
X205287428Y-111452819D01*
X205287428Y-111452819D02*
X205001714Y-111452819D01*
X205001714Y-111452819D02*
X204906476Y-111405200D01*
X204906476Y-111405200D02*
X204858857Y-111357580D01*
%TO.C,C1*%
X178141333Y-87354580D02*
X178093714Y-87402200D01*
X178093714Y-87402200D02*
X177950857Y-87449819D01*
X177950857Y-87449819D02*
X177855619Y-87449819D01*
X177855619Y-87449819D02*
X177712762Y-87402200D01*
X177712762Y-87402200D02*
X177617524Y-87306961D01*
X177617524Y-87306961D02*
X177569905Y-87211723D01*
X177569905Y-87211723D02*
X177522286Y-87021247D01*
X177522286Y-87021247D02*
X177522286Y-86878390D01*
X177522286Y-86878390D02*
X177569905Y-86687914D01*
X177569905Y-86687914D02*
X177617524Y-86592676D01*
X177617524Y-86592676D02*
X177712762Y-86497438D01*
X177712762Y-86497438D02*
X177855619Y-86449819D01*
X177855619Y-86449819D02*
X177950857Y-86449819D01*
X177950857Y-86449819D02*
X178093714Y-86497438D01*
X178093714Y-86497438D02*
X178141333Y-86545057D01*
X179093714Y-87449819D02*
X178522286Y-87449819D01*
X178808000Y-87449819D02*
X178808000Y-86449819D01*
X178808000Y-86449819D02*
X178712762Y-86592676D01*
X178712762Y-86592676D02*
X178617524Y-86687914D01*
X178617524Y-86687914D02*
X178522286Y-86735533D01*
D13*
%TO.C,SW3*%
X166306667Y-116106800D02*
X166449524Y-116154419D01*
X166449524Y-116154419D02*
X166687619Y-116154419D01*
X166687619Y-116154419D02*
X166782857Y-116106800D01*
X166782857Y-116106800D02*
X166830476Y-116059180D01*
X166830476Y-116059180D02*
X166878095Y-115963942D01*
X166878095Y-115963942D02*
X166878095Y-115868704D01*
X166878095Y-115868704D02*
X166830476Y-115773466D01*
X166830476Y-115773466D02*
X166782857Y-115725847D01*
X166782857Y-115725847D02*
X166687619Y-115678228D01*
X166687619Y-115678228D02*
X166497143Y-115630609D01*
X166497143Y-115630609D02*
X166401905Y-115582990D01*
X166401905Y-115582990D02*
X166354286Y-115535371D01*
X166354286Y-115535371D02*
X166306667Y-115440133D01*
X166306667Y-115440133D02*
X166306667Y-115344895D01*
X166306667Y-115344895D02*
X166354286Y-115249657D01*
X166354286Y-115249657D02*
X166401905Y-115202038D01*
X166401905Y-115202038D02*
X166497143Y-115154419D01*
X166497143Y-115154419D02*
X166735238Y-115154419D01*
X166735238Y-115154419D02*
X166878095Y-115202038D01*
X167211429Y-115154419D02*
X167449524Y-116154419D01*
X167449524Y-116154419D02*
X167640000Y-115440133D01*
X167640000Y-115440133D02*
X167830476Y-116154419D01*
X167830476Y-116154419D02*
X168068572Y-115154419D01*
X168354286Y-115154419D02*
X168973333Y-115154419D01*
X168973333Y-115154419D02*
X168640000Y-115535371D01*
X168640000Y-115535371D02*
X168782857Y-115535371D01*
X168782857Y-115535371D02*
X168878095Y-115582990D01*
X168878095Y-115582990D02*
X168925714Y-115630609D01*
X168925714Y-115630609D02*
X168973333Y-115725847D01*
X168973333Y-115725847D02*
X168973333Y-115963942D01*
X168973333Y-115963942D02*
X168925714Y-116059180D01*
X168925714Y-116059180D02*
X168878095Y-116106800D01*
X168878095Y-116106800D02*
X168782857Y-116154419D01*
X168782857Y-116154419D02*
X168497143Y-116154419D01*
X168497143Y-116154419D02*
X168401905Y-116106800D01*
X168401905Y-116106800D02*
X168354286Y-116059180D01*
D11*
%TO.C,C23*%
X160266142Y-121771580D02*
X160218523Y-121819200D01*
X160218523Y-121819200D02*
X160075666Y-121866819D01*
X160075666Y-121866819D02*
X159980428Y-121866819D01*
X159980428Y-121866819D02*
X159837571Y-121819200D01*
X159837571Y-121819200D02*
X159742333Y-121723961D01*
X159742333Y-121723961D02*
X159694714Y-121628723D01*
X159694714Y-121628723D02*
X159647095Y-121438247D01*
X159647095Y-121438247D02*
X159647095Y-121295390D01*
X159647095Y-121295390D02*
X159694714Y-121104914D01*
X159694714Y-121104914D02*
X159742333Y-121009676D01*
X159742333Y-121009676D02*
X159837571Y-120914438D01*
X159837571Y-120914438D02*
X159980428Y-120866819D01*
X159980428Y-120866819D02*
X160075666Y-120866819D01*
X160075666Y-120866819D02*
X160218523Y-120914438D01*
X160218523Y-120914438D02*
X160266142Y-120962057D01*
X160647095Y-120962057D02*
X160694714Y-120914438D01*
X160694714Y-120914438D02*
X160789952Y-120866819D01*
X160789952Y-120866819D02*
X161028047Y-120866819D01*
X161028047Y-120866819D02*
X161123285Y-120914438D01*
X161123285Y-120914438D02*
X161170904Y-120962057D01*
X161170904Y-120962057D02*
X161218523Y-121057295D01*
X161218523Y-121057295D02*
X161218523Y-121152533D01*
X161218523Y-121152533D02*
X161170904Y-121295390D01*
X161170904Y-121295390D02*
X160599476Y-121866819D01*
X160599476Y-121866819D02*
X161218523Y-121866819D01*
X161551857Y-120866819D02*
X162170904Y-120866819D01*
X162170904Y-120866819D02*
X161837571Y-121247771D01*
X161837571Y-121247771D02*
X161980428Y-121247771D01*
X161980428Y-121247771D02*
X162075666Y-121295390D01*
X162075666Y-121295390D02*
X162123285Y-121343009D01*
X162123285Y-121343009D02*
X162170904Y-121438247D01*
X162170904Y-121438247D02*
X162170904Y-121676342D01*
X162170904Y-121676342D02*
X162123285Y-121771580D01*
X162123285Y-121771580D02*
X162075666Y-121819200D01*
X162075666Y-121819200D02*
X161980428Y-121866819D01*
X161980428Y-121866819D02*
X161694714Y-121866819D01*
X161694714Y-121866819D02*
X161599476Y-121819200D01*
X161599476Y-121819200D02*
X161551857Y-121771580D01*
%TO.C,C8*%
X179411333Y-106277580D02*
X179363714Y-106325200D01*
X179363714Y-106325200D02*
X179220857Y-106372819D01*
X179220857Y-106372819D02*
X179125619Y-106372819D01*
X179125619Y-106372819D02*
X178982762Y-106325200D01*
X178982762Y-106325200D02*
X178887524Y-106229961D01*
X178887524Y-106229961D02*
X178839905Y-106134723D01*
X178839905Y-106134723D02*
X178792286Y-105944247D01*
X178792286Y-105944247D02*
X178792286Y-105801390D01*
X178792286Y-105801390D02*
X178839905Y-105610914D01*
X178839905Y-105610914D02*
X178887524Y-105515676D01*
X178887524Y-105515676D02*
X178982762Y-105420438D01*
X178982762Y-105420438D02*
X179125619Y-105372819D01*
X179125619Y-105372819D02*
X179220857Y-105372819D01*
X179220857Y-105372819D02*
X179363714Y-105420438D01*
X179363714Y-105420438D02*
X179411333Y-105468057D01*
X179982762Y-105801390D02*
X179887524Y-105753771D01*
X179887524Y-105753771D02*
X179839905Y-105706152D01*
X179839905Y-105706152D02*
X179792286Y-105610914D01*
X179792286Y-105610914D02*
X179792286Y-105563295D01*
X179792286Y-105563295D02*
X179839905Y-105468057D01*
X179839905Y-105468057D02*
X179887524Y-105420438D01*
X179887524Y-105420438D02*
X179982762Y-105372819D01*
X179982762Y-105372819D02*
X180173238Y-105372819D01*
X180173238Y-105372819D02*
X180268476Y-105420438D01*
X180268476Y-105420438D02*
X180316095Y-105468057D01*
X180316095Y-105468057D02*
X180363714Y-105563295D01*
X180363714Y-105563295D02*
X180363714Y-105610914D01*
X180363714Y-105610914D02*
X180316095Y-105706152D01*
X180316095Y-105706152D02*
X180268476Y-105753771D01*
X180268476Y-105753771D02*
X180173238Y-105801390D01*
X180173238Y-105801390D02*
X179982762Y-105801390D01*
X179982762Y-105801390D02*
X179887524Y-105849009D01*
X179887524Y-105849009D02*
X179839905Y-105896628D01*
X179839905Y-105896628D02*
X179792286Y-105991866D01*
X179792286Y-105991866D02*
X179792286Y-106182342D01*
X179792286Y-106182342D02*
X179839905Y-106277580D01*
X179839905Y-106277580D02*
X179887524Y-106325200D01*
X179887524Y-106325200D02*
X179982762Y-106372819D01*
X179982762Y-106372819D02*
X180173238Y-106372819D01*
X180173238Y-106372819D02*
X180268476Y-106325200D01*
X180268476Y-106325200D02*
X180316095Y-106277580D01*
X180316095Y-106277580D02*
X180363714Y-106182342D01*
X180363714Y-106182342D02*
X180363714Y-105991866D01*
X180363714Y-105991866D02*
X180316095Y-105896628D01*
X180316095Y-105896628D02*
X180268476Y-105849009D01*
X180268476Y-105849009D02*
X180173238Y-105801390D01*
%TO.C,FB2*%
X194111666Y-104071009D02*
X193778333Y-104071009D01*
X193778333Y-104594819D02*
X193778333Y-103594819D01*
X193778333Y-103594819D02*
X194254523Y-103594819D01*
X194968809Y-104071009D02*
X195111666Y-104118628D01*
X195111666Y-104118628D02*
X195159285Y-104166247D01*
X195159285Y-104166247D02*
X195206904Y-104261485D01*
X195206904Y-104261485D02*
X195206904Y-104404342D01*
X195206904Y-104404342D02*
X195159285Y-104499580D01*
X195159285Y-104499580D02*
X195111666Y-104547200D01*
X195111666Y-104547200D02*
X195016428Y-104594819D01*
X195016428Y-104594819D02*
X194635476Y-104594819D01*
X194635476Y-104594819D02*
X194635476Y-103594819D01*
X194635476Y-103594819D02*
X194968809Y-103594819D01*
X194968809Y-103594819D02*
X195064047Y-103642438D01*
X195064047Y-103642438D02*
X195111666Y-103690057D01*
X195111666Y-103690057D02*
X195159285Y-103785295D01*
X195159285Y-103785295D02*
X195159285Y-103880533D01*
X195159285Y-103880533D02*
X195111666Y-103975771D01*
X195111666Y-103975771D02*
X195064047Y-104023390D01*
X195064047Y-104023390D02*
X194968809Y-104071009D01*
X194968809Y-104071009D02*
X194635476Y-104071009D01*
X195587857Y-103690057D02*
X195635476Y-103642438D01*
X195635476Y-103642438D02*
X195730714Y-103594819D01*
X195730714Y-103594819D02*
X195968809Y-103594819D01*
X195968809Y-103594819D02*
X196064047Y-103642438D01*
X196064047Y-103642438D02*
X196111666Y-103690057D01*
X196111666Y-103690057D02*
X196159285Y-103785295D01*
X196159285Y-103785295D02*
X196159285Y-103880533D01*
X196159285Y-103880533D02*
X196111666Y-104023390D01*
X196111666Y-104023390D02*
X195540238Y-104594819D01*
X195540238Y-104594819D02*
X196159285Y-104594819D01*
%TO.C,J2*%
X182148666Y-77686819D02*
X182148666Y-78401104D01*
X182148666Y-78401104D02*
X182101047Y-78543961D01*
X182101047Y-78543961D02*
X182005809Y-78639200D01*
X182005809Y-78639200D02*
X181862952Y-78686819D01*
X181862952Y-78686819D02*
X181767714Y-78686819D01*
X182577238Y-77782057D02*
X182624857Y-77734438D01*
X182624857Y-77734438D02*
X182720095Y-77686819D01*
X182720095Y-77686819D02*
X182958190Y-77686819D01*
X182958190Y-77686819D02*
X183053428Y-77734438D01*
X183053428Y-77734438D02*
X183101047Y-77782057D01*
X183101047Y-77782057D02*
X183148666Y-77877295D01*
X183148666Y-77877295D02*
X183148666Y-77972533D01*
X183148666Y-77972533D02*
X183101047Y-78115390D01*
X183101047Y-78115390D02*
X182529619Y-78686819D01*
X182529619Y-78686819D02*
X183148666Y-78686819D01*
%TO.C,C21*%
X203192142Y-96244580D02*
X203144523Y-96292200D01*
X203144523Y-96292200D02*
X203001666Y-96339819D01*
X203001666Y-96339819D02*
X202906428Y-96339819D01*
X202906428Y-96339819D02*
X202763571Y-96292200D01*
X202763571Y-96292200D02*
X202668333Y-96196961D01*
X202668333Y-96196961D02*
X202620714Y-96101723D01*
X202620714Y-96101723D02*
X202573095Y-95911247D01*
X202573095Y-95911247D02*
X202573095Y-95768390D01*
X202573095Y-95768390D02*
X202620714Y-95577914D01*
X202620714Y-95577914D02*
X202668333Y-95482676D01*
X202668333Y-95482676D02*
X202763571Y-95387438D01*
X202763571Y-95387438D02*
X202906428Y-95339819D01*
X202906428Y-95339819D02*
X203001666Y-95339819D01*
X203001666Y-95339819D02*
X203144523Y-95387438D01*
X203144523Y-95387438D02*
X203192142Y-95435057D01*
X203573095Y-95435057D02*
X203620714Y-95387438D01*
X203620714Y-95387438D02*
X203715952Y-95339819D01*
X203715952Y-95339819D02*
X203954047Y-95339819D01*
X203954047Y-95339819D02*
X204049285Y-95387438D01*
X204049285Y-95387438D02*
X204096904Y-95435057D01*
X204096904Y-95435057D02*
X204144523Y-95530295D01*
X204144523Y-95530295D02*
X204144523Y-95625533D01*
X204144523Y-95625533D02*
X204096904Y-95768390D01*
X204096904Y-95768390D02*
X203525476Y-96339819D01*
X203525476Y-96339819D02*
X204144523Y-96339819D01*
X205096904Y-96339819D02*
X204525476Y-96339819D01*
X204811190Y-96339819D02*
X204811190Y-95339819D01*
X204811190Y-95339819D02*
X204715952Y-95482676D01*
X204715952Y-95482676D02*
X204620714Y-95577914D01*
X204620714Y-95577914D02*
X204525476Y-95625533D01*
%TO.C,R7*%
X129373333Y-102308819D02*
X129040000Y-101832628D01*
X128801905Y-102308819D02*
X128801905Y-101308819D01*
X128801905Y-101308819D02*
X129182857Y-101308819D01*
X129182857Y-101308819D02*
X129278095Y-101356438D01*
X129278095Y-101356438D02*
X129325714Y-101404057D01*
X129325714Y-101404057D02*
X129373333Y-101499295D01*
X129373333Y-101499295D02*
X129373333Y-101642152D01*
X129373333Y-101642152D02*
X129325714Y-101737390D01*
X129325714Y-101737390D02*
X129278095Y-101785009D01*
X129278095Y-101785009D02*
X129182857Y-101832628D01*
X129182857Y-101832628D02*
X128801905Y-101832628D01*
X129706667Y-101308819D02*
X130373333Y-101308819D01*
X130373333Y-101308819D02*
X129944762Y-102308819D01*
%TO.C,C17*%
X183493580Y-123578857D02*
X183541200Y-123626476D01*
X183541200Y-123626476D02*
X183588819Y-123769333D01*
X183588819Y-123769333D02*
X183588819Y-123864571D01*
X183588819Y-123864571D02*
X183541200Y-124007428D01*
X183541200Y-124007428D02*
X183445961Y-124102666D01*
X183445961Y-124102666D02*
X183350723Y-124150285D01*
X183350723Y-124150285D02*
X183160247Y-124197904D01*
X183160247Y-124197904D02*
X183017390Y-124197904D01*
X183017390Y-124197904D02*
X182826914Y-124150285D01*
X182826914Y-124150285D02*
X182731676Y-124102666D01*
X182731676Y-124102666D02*
X182636438Y-124007428D01*
X182636438Y-124007428D02*
X182588819Y-123864571D01*
X182588819Y-123864571D02*
X182588819Y-123769333D01*
X182588819Y-123769333D02*
X182636438Y-123626476D01*
X182636438Y-123626476D02*
X182684057Y-123578857D01*
X183588819Y-122626476D02*
X183588819Y-123197904D01*
X183588819Y-122912190D02*
X182588819Y-122912190D01*
X182588819Y-122912190D02*
X182731676Y-123007428D01*
X182731676Y-123007428D02*
X182826914Y-123102666D01*
X182826914Y-123102666D02*
X182874533Y-123197904D01*
X182588819Y-122293142D02*
X182588819Y-121626476D01*
X182588819Y-121626476D02*
X183588819Y-122055047D01*
%TO.C,C18*%
X181080580Y-123578857D02*
X181128200Y-123626476D01*
X181128200Y-123626476D02*
X181175819Y-123769333D01*
X181175819Y-123769333D02*
X181175819Y-123864571D01*
X181175819Y-123864571D02*
X181128200Y-124007428D01*
X181128200Y-124007428D02*
X181032961Y-124102666D01*
X181032961Y-124102666D02*
X180937723Y-124150285D01*
X180937723Y-124150285D02*
X180747247Y-124197904D01*
X180747247Y-124197904D02*
X180604390Y-124197904D01*
X180604390Y-124197904D02*
X180413914Y-124150285D01*
X180413914Y-124150285D02*
X180318676Y-124102666D01*
X180318676Y-124102666D02*
X180223438Y-124007428D01*
X180223438Y-124007428D02*
X180175819Y-123864571D01*
X180175819Y-123864571D02*
X180175819Y-123769333D01*
X180175819Y-123769333D02*
X180223438Y-123626476D01*
X180223438Y-123626476D02*
X180271057Y-123578857D01*
X181175819Y-122626476D02*
X181175819Y-123197904D01*
X181175819Y-122912190D02*
X180175819Y-122912190D01*
X180175819Y-122912190D02*
X180318676Y-123007428D01*
X180318676Y-123007428D02*
X180413914Y-123102666D01*
X180413914Y-123102666D02*
X180461533Y-123197904D01*
X180604390Y-122055047D02*
X180556771Y-122150285D01*
X180556771Y-122150285D02*
X180509152Y-122197904D01*
X180509152Y-122197904D02*
X180413914Y-122245523D01*
X180413914Y-122245523D02*
X180366295Y-122245523D01*
X180366295Y-122245523D02*
X180271057Y-122197904D01*
X180271057Y-122197904D02*
X180223438Y-122150285D01*
X180223438Y-122150285D02*
X180175819Y-122055047D01*
X180175819Y-122055047D02*
X180175819Y-121864571D01*
X180175819Y-121864571D02*
X180223438Y-121769333D01*
X180223438Y-121769333D02*
X180271057Y-121721714D01*
X180271057Y-121721714D02*
X180366295Y-121674095D01*
X180366295Y-121674095D02*
X180413914Y-121674095D01*
X180413914Y-121674095D02*
X180509152Y-121721714D01*
X180509152Y-121721714D02*
X180556771Y-121769333D01*
X180556771Y-121769333D02*
X180604390Y-121864571D01*
X180604390Y-121864571D02*
X180604390Y-122055047D01*
X180604390Y-122055047D02*
X180652009Y-122150285D01*
X180652009Y-122150285D02*
X180699628Y-122197904D01*
X180699628Y-122197904D02*
X180794866Y-122245523D01*
X180794866Y-122245523D02*
X180985342Y-122245523D01*
X180985342Y-122245523D02*
X181080580Y-122197904D01*
X181080580Y-122197904D02*
X181128200Y-122150285D01*
X181128200Y-122150285D02*
X181175819Y-122055047D01*
X181175819Y-122055047D02*
X181175819Y-121864571D01*
X181175819Y-121864571D02*
X181128200Y-121769333D01*
X181128200Y-121769333D02*
X181080580Y-121721714D01*
X181080580Y-121721714D02*
X180985342Y-121674095D01*
X180985342Y-121674095D02*
X180794866Y-121674095D01*
X180794866Y-121674095D02*
X180699628Y-121721714D01*
X180699628Y-121721714D02*
X180652009Y-121769333D01*
X180652009Y-121769333D02*
X180604390Y-121864571D01*
%TO.C,R3*%
X197572333Y-85925819D02*
X197239000Y-85449628D01*
X197000905Y-85925819D02*
X197000905Y-84925819D01*
X197000905Y-84925819D02*
X197381857Y-84925819D01*
X197381857Y-84925819D02*
X197477095Y-84973438D01*
X197477095Y-84973438D02*
X197524714Y-85021057D01*
X197524714Y-85021057D02*
X197572333Y-85116295D01*
X197572333Y-85116295D02*
X197572333Y-85259152D01*
X197572333Y-85259152D02*
X197524714Y-85354390D01*
X197524714Y-85354390D02*
X197477095Y-85402009D01*
X197477095Y-85402009D02*
X197381857Y-85449628D01*
X197381857Y-85449628D02*
X197000905Y-85449628D01*
X197905667Y-84925819D02*
X198524714Y-84925819D01*
X198524714Y-84925819D02*
X198191381Y-85306771D01*
X198191381Y-85306771D02*
X198334238Y-85306771D01*
X198334238Y-85306771D02*
X198429476Y-85354390D01*
X198429476Y-85354390D02*
X198477095Y-85402009D01*
X198477095Y-85402009D02*
X198524714Y-85497247D01*
X198524714Y-85497247D02*
X198524714Y-85735342D01*
X198524714Y-85735342D02*
X198477095Y-85830580D01*
X198477095Y-85830580D02*
X198429476Y-85878200D01*
X198429476Y-85878200D02*
X198334238Y-85925819D01*
X198334238Y-85925819D02*
X198048524Y-85925819D01*
X198048524Y-85925819D02*
X197953286Y-85878200D01*
X197953286Y-85878200D02*
X197905667Y-85830580D01*
%TO.C,R4*%
X197191333Y-105483819D02*
X196858000Y-105007628D01*
X196619905Y-105483819D02*
X196619905Y-104483819D01*
X196619905Y-104483819D02*
X197000857Y-104483819D01*
X197000857Y-104483819D02*
X197096095Y-104531438D01*
X197096095Y-104531438D02*
X197143714Y-104579057D01*
X197143714Y-104579057D02*
X197191333Y-104674295D01*
X197191333Y-104674295D02*
X197191333Y-104817152D01*
X197191333Y-104817152D02*
X197143714Y-104912390D01*
X197143714Y-104912390D02*
X197096095Y-104960009D01*
X197096095Y-104960009D02*
X197000857Y-105007628D01*
X197000857Y-105007628D02*
X196619905Y-105007628D01*
X198048476Y-104817152D02*
X198048476Y-105483819D01*
X197810381Y-104436200D02*
X197572286Y-105150485D01*
X197572286Y-105150485D02*
X198191333Y-105150485D01*
%TO.C,C28*%
X196842142Y-117834580D02*
X196794523Y-117882200D01*
X196794523Y-117882200D02*
X196651666Y-117929819D01*
X196651666Y-117929819D02*
X196556428Y-117929819D01*
X196556428Y-117929819D02*
X196413571Y-117882200D01*
X196413571Y-117882200D02*
X196318333Y-117786961D01*
X196318333Y-117786961D02*
X196270714Y-117691723D01*
X196270714Y-117691723D02*
X196223095Y-117501247D01*
X196223095Y-117501247D02*
X196223095Y-117358390D01*
X196223095Y-117358390D02*
X196270714Y-117167914D01*
X196270714Y-117167914D02*
X196318333Y-117072676D01*
X196318333Y-117072676D02*
X196413571Y-116977438D01*
X196413571Y-116977438D02*
X196556428Y-116929819D01*
X196556428Y-116929819D02*
X196651666Y-116929819D01*
X196651666Y-116929819D02*
X196794523Y-116977438D01*
X196794523Y-116977438D02*
X196842142Y-117025057D01*
X197223095Y-117025057D02*
X197270714Y-116977438D01*
X197270714Y-116977438D02*
X197365952Y-116929819D01*
X197365952Y-116929819D02*
X197604047Y-116929819D01*
X197604047Y-116929819D02*
X197699285Y-116977438D01*
X197699285Y-116977438D02*
X197746904Y-117025057D01*
X197746904Y-117025057D02*
X197794523Y-117120295D01*
X197794523Y-117120295D02*
X197794523Y-117215533D01*
X197794523Y-117215533D02*
X197746904Y-117358390D01*
X197746904Y-117358390D02*
X197175476Y-117929819D01*
X197175476Y-117929819D02*
X197794523Y-117929819D01*
X198365952Y-117358390D02*
X198270714Y-117310771D01*
X198270714Y-117310771D02*
X198223095Y-117263152D01*
X198223095Y-117263152D02*
X198175476Y-117167914D01*
X198175476Y-117167914D02*
X198175476Y-117120295D01*
X198175476Y-117120295D02*
X198223095Y-117025057D01*
X198223095Y-117025057D02*
X198270714Y-116977438D01*
X198270714Y-116977438D02*
X198365952Y-116929819D01*
X198365952Y-116929819D02*
X198556428Y-116929819D01*
X198556428Y-116929819D02*
X198651666Y-116977438D01*
X198651666Y-116977438D02*
X198699285Y-117025057D01*
X198699285Y-117025057D02*
X198746904Y-117120295D01*
X198746904Y-117120295D02*
X198746904Y-117167914D01*
X198746904Y-117167914D02*
X198699285Y-117263152D01*
X198699285Y-117263152D02*
X198651666Y-117310771D01*
X198651666Y-117310771D02*
X198556428Y-117358390D01*
X198556428Y-117358390D02*
X198365952Y-117358390D01*
X198365952Y-117358390D02*
X198270714Y-117406009D01*
X198270714Y-117406009D02*
X198223095Y-117453628D01*
X198223095Y-117453628D02*
X198175476Y-117548866D01*
X198175476Y-117548866D02*
X198175476Y-117739342D01*
X198175476Y-117739342D02*
X198223095Y-117834580D01*
X198223095Y-117834580D02*
X198270714Y-117882200D01*
X198270714Y-117882200D02*
X198365952Y-117929819D01*
X198365952Y-117929819D02*
X198556428Y-117929819D01*
X198556428Y-117929819D02*
X198651666Y-117882200D01*
X198651666Y-117882200D02*
X198699285Y-117834580D01*
X198699285Y-117834580D02*
X198746904Y-117739342D01*
X198746904Y-117739342D02*
X198746904Y-117548866D01*
X198746904Y-117548866D02*
X198699285Y-117453628D01*
X198699285Y-117453628D02*
X198651666Y-117406009D01*
X198651666Y-117406009D02*
X198556428Y-117358390D01*
%TO.C,C2*%
X178141333Y-89640580D02*
X178093714Y-89688200D01*
X178093714Y-89688200D02*
X177950857Y-89735819D01*
X177950857Y-89735819D02*
X177855619Y-89735819D01*
X177855619Y-89735819D02*
X177712762Y-89688200D01*
X177712762Y-89688200D02*
X177617524Y-89592961D01*
X177617524Y-89592961D02*
X177569905Y-89497723D01*
X177569905Y-89497723D02*
X177522286Y-89307247D01*
X177522286Y-89307247D02*
X177522286Y-89164390D01*
X177522286Y-89164390D02*
X177569905Y-88973914D01*
X177569905Y-88973914D02*
X177617524Y-88878676D01*
X177617524Y-88878676D02*
X177712762Y-88783438D01*
X177712762Y-88783438D02*
X177855619Y-88735819D01*
X177855619Y-88735819D02*
X177950857Y-88735819D01*
X177950857Y-88735819D02*
X178093714Y-88783438D01*
X178093714Y-88783438D02*
X178141333Y-88831057D01*
X178522286Y-88831057D02*
X178569905Y-88783438D01*
X178569905Y-88783438D02*
X178665143Y-88735819D01*
X178665143Y-88735819D02*
X178903238Y-88735819D01*
X178903238Y-88735819D02*
X178998476Y-88783438D01*
X178998476Y-88783438D02*
X179046095Y-88831057D01*
X179046095Y-88831057D02*
X179093714Y-88926295D01*
X179093714Y-88926295D02*
X179093714Y-89021533D01*
X179093714Y-89021533D02*
X179046095Y-89164390D01*
X179046095Y-89164390D02*
X178474667Y-89735819D01*
X178474667Y-89735819D02*
X179093714Y-89735819D01*
D13*
%TO.C,BZ1*%
X136025047Y-121821609D02*
X136167904Y-121869228D01*
X136167904Y-121869228D02*
X136215523Y-121916847D01*
X136215523Y-121916847D02*
X136263142Y-122012085D01*
X136263142Y-122012085D02*
X136263142Y-122154942D01*
X136263142Y-122154942D02*
X136215523Y-122250180D01*
X136215523Y-122250180D02*
X136167904Y-122297800D01*
X136167904Y-122297800D02*
X136072666Y-122345419D01*
X136072666Y-122345419D02*
X135691714Y-122345419D01*
X135691714Y-122345419D02*
X135691714Y-121345419D01*
X135691714Y-121345419D02*
X136025047Y-121345419D01*
X136025047Y-121345419D02*
X136120285Y-121393038D01*
X136120285Y-121393038D02*
X136167904Y-121440657D01*
X136167904Y-121440657D02*
X136215523Y-121535895D01*
X136215523Y-121535895D02*
X136215523Y-121631133D01*
X136215523Y-121631133D02*
X136167904Y-121726371D01*
X136167904Y-121726371D02*
X136120285Y-121773990D01*
X136120285Y-121773990D02*
X136025047Y-121821609D01*
X136025047Y-121821609D02*
X135691714Y-121821609D01*
X136596476Y-121345419D02*
X137263142Y-121345419D01*
X137263142Y-121345419D02*
X136596476Y-122345419D01*
X136596476Y-122345419D02*
X137263142Y-122345419D01*
X138167904Y-122345419D02*
X137596476Y-122345419D01*
X137882190Y-122345419D02*
X137882190Y-121345419D01*
X137882190Y-121345419D02*
X137786952Y-121488276D01*
X137786952Y-121488276D02*
X137691714Y-121583514D01*
X137691714Y-121583514D02*
X137596476Y-121631133D01*
D11*
%TO.C,R11*%
X163380142Y-83258819D02*
X163046809Y-82782628D01*
X162808714Y-83258819D02*
X162808714Y-82258819D01*
X162808714Y-82258819D02*
X163189666Y-82258819D01*
X163189666Y-82258819D02*
X163284904Y-82306438D01*
X163284904Y-82306438D02*
X163332523Y-82354057D01*
X163332523Y-82354057D02*
X163380142Y-82449295D01*
X163380142Y-82449295D02*
X163380142Y-82592152D01*
X163380142Y-82592152D02*
X163332523Y-82687390D01*
X163332523Y-82687390D02*
X163284904Y-82735009D01*
X163284904Y-82735009D02*
X163189666Y-82782628D01*
X163189666Y-82782628D02*
X162808714Y-82782628D01*
X164332523Y-83258819D02*
X163761095Y-83258819D01*
X164046809Y-83258819D02*
X164046809Y-82258819D01*
X164046809Y-82258819D02*
X163951571Y-82401676D01*
X163951571Y-82401676D02*
X163856333Y-82496914D01*
X163856333Y-82496914D02*
X163761095Y-82544533D01*
X165284904Y-83258819D02*
X164713476Y-83258819D01*
X164999190Y-83258819D02*
X164999190Y-82258819D01*
X164999190Y-82258819D02*
X164903952Y-82401676D01*
X164903952Y-82401676D02*
X164808714Y-82496914D01*
X164808714Y-82496914D02*
X164713476Y-82544533D01*
%TO.C,D2*%
X194587905Y-92021819D02*
X194587905Y-91021819D01*
X194587905Y-91021819D02*
X194826000Y-91021819D01*
X194826000Y-91021819D02*
X194968857Y-91069438D01*
X194968857Y-91069438D02*
X195064095Y-91164676D01*
X195064095Y-91164676D02*
X195111714Y-91259914D01*
X195111714Y-91259914D02*
X195159333Y-91450390D01*
X195159333Y-91450390D02*
X195159333Y-91593247D01*
X195159333Y-91593247D02*
X195111714Y-91783723D01*
X195111714Y-91783723D02*
X195064095Y-91878961D01*
X195064095Y-91878961D02*
X194968857Y-91974200D01*
X194968857Y-91974200D02*
X194826000Y-92021819D01*
X194826000Y-92021819D02*
X194587905Y-92021819D01*
X195540286Y-91117057D02*
X195587905Y-91069438D01*
X195587905Y-91069438D02*
X195683143Y-91021819D01*
X195683143Y-91021819D02*
X195921238Y-91021819D01*
X195921238Y-91021819D02*
X196016476Y-91069438D01*
X196016476Y-91069438D02*
X196064095Y-91117057D01*
X196064095Y-91117057D02*
X196111714Y-91212295D01*
X196111714Y-91212295D02*
X196111714Y-91307533D01*
X196111714Y-91307533D02*
X196064095Y-91450390D01*
X196064095Y-91450390D02*
X195492667Y-92021819D01*
X195492667Y-92021819D02*
X196111714Y-92021819D01*
%TO.C,R10*%
X141929644Y-115326821D02*
X141596311Y-114850630D01*
X141358216Y-115326821D02*
X141358216Y-114326821D01*
X141358216Y-114326821D02*
X141739168Y-114326821D01*
X141739168Y-114326821D02*
X141834406Y-114374440D01*
X141834406Y-114374440D02*
X141882025Y-114422059D01*
X141882025Y-114422059D02*
X141929644Y-114517297D01*
X141929644Y-114517297D02*
X141929644Y-114660154D01*
X141929644Y-114660154D02*
X141882025Y-114755392D01*
X141882025Y-114755392D02*
X141834406Y-114803011D01*
X141834406Y-114803011D02*
X141739168Y-114850630D01*
X141739168Y-114850630D02*
X141358216Y-114850630D01*
X142882025Y-115326821D02*
X142310597Y-115326821D01*
X142596311Y-115326821D02*
X142596311Y-114326821D01*
X142596311Y-114326821D02*
X142501073Y-114469678D01*
X142501073Y-114469678D02*
X142405835Y-114564916D01*
X142405835Y-114564916D02*
X142310597Y-114612535D01*
X143501073Y-114326821D02*
X143596311Y-114326821D01*
X143596311Y-114326821D02*
X143691549Y-114374440D01*
X143691549Y-114374440D02*
X143739168Y-114422059D01*
X143739168Y-114422059D02*
X143786787Y-114517297D01*
X143786787Y-114517297D02*
X143834406Y-114707773D01*
X143834406Y-114707773D02*
X143834406Y-114945868D01*
X143834406Y-114945868D02*
X143786787Y-115136344D01*
X143786787Y-115136344D02*
X143739168Y-115231582D01*
X143739168Y-115231582D02*
X143691549Y-115279202D01*
X143691549Y-115279202D02*
X143596311Y-115326821D01*
X143596311Y-115326821D02*
X143501073Y-115326821D01*
X143501073Y-115326821D02*
X143405835Y-115279202D01*
X143405835Y-115279202D02*
X143358216Y-115231582D01*
X143358216Y-115231582D02*
X143310597Y-115136344D01*
X143310597Y-115136344D02*
X143262978Y-114945868D01*
X143262978Y-114945868D02*
X143262978Y-114707773D01*
X143262978Y-114707773D02*
X143310597Y-114517297D01*
X143310597Y-114517297D02*
X143358216Y-114422059D01*
X143358216Y-114422059D02*
X143405835Y-114374440D01*
X143405835Y-114374440D02*
X143501073Y-114326821D01*
D13*
%TO.C,SW2*%
X152463667Y-115998800D02*
X152606524Y-116046419D01*
X152606524Y-116046419D02*
X152844619Y-116046419D01*
X152844619Y-116046419D02*
X152939857Y-115998800D01*
X152939857Y-115998800D02*
X152987476Y-115951180D01*
X152987476Y-115951180D02*
X153035095Y-115855942D01*
X153035095Y-115855942D02*
X153035095Y-115760704D01*
X153035095Y-115760704D02*
X152987476Y-115665466D01*
X152987476Y-115665466D02*
X152939857Y-115617847D01*
X152939857Y-115617847D02*
X152844619Y-115570228D01*
X152844619Y-115570228D02*
X152654143Y-115522609D01*
X152654143Y-115522609D02*
X152558905Y-115474990D01*
X152558905Y-115474990D02*
X152511286Y-115427371D01*
X152511286Y-115427371D02*
X152463667Y-115332133D01*
X152463667Y-115332133D02*
X152463667Y-115236895D01*
X152463667Y-115236895D02*
X152511286Y-115141657D01*
X152511286Y-115141657D02*
X152558905Y-115094038D01*
X152558905Y-115094038D02*
X152654143Y-115046419D01*
X152654143Y-115046419D02*
X152892238Y-115046419D01*
X152892238Y-115046419D02*
X153035095Y-115094038D01*
X153368429Y-115046419D02*
X153606524Y-116046419D01*
X153606524Y-116046419D02*
X153797000Y-115332133D01*
X153797000Y-115332133D02*
X153987476Y-116046419D01*
X153987476Y-116046419D02*
X154225572Y-115046419D01*
X154558905Y-115141657D02*
X154606524Y-115094038D01*
X154606524Y-115094038D02*
X154701762Y-115046419D01*
X154701762Y-115046419D02*
X154939857Y-115046419D01*
X154939857Y-115046419D02*
X155035095Y-115094038D01*
X155035095Y-115094038D02*
X155082714Y-115141657D01*
X155082714Y-115141657D02*
X155130333Y-115236895D01*
X155130333Y-115236895D02*
X155130333Y-115332133D01*
X155130333Y-115332133D02*
X155082714Y-115474990D01*
X155082714Y-115474990D02*
X154511286Y-116046419D01*
X154511286Y-116046419D02*
X155130333Y-116046419D01*
D11*
%TO.C,J4*%
X159940666Y-76543819D02*
X159940666Y-77258104D01*
X159940666Y-77258104D02*
X159893047Y-77400961D01*
X159893047Y-77400961D02*
X159797809Y-77496200D01*
X159797809Y-77496200D02*
X159654952Y-77543819D01*
X159654952Y-77543819D02*
X159559714Y-77543819D01*
X160845428Y-76877152D02*
X160845428Y-77543819D01*
X160607333Y-76496200D02*
X160369238Y-77210485D01*
X160369238Y-77210485D02*
X160988285Y-77210485D01*
%TO.C,C7*%
X171283333Y-87354580D02*
X171235714Y-87402200D01*
X171235714Y-87402200D02*
X171092857Y-87449819D01*
X171092857Y-87449819D02*
X170997619Y-87449819D01*
X170997619Y-87449819D02*
X170854762Y-87402200D01*
X170854762Y-87402200D02*
X170759524Y-87306961D01*
X170759524Y-87306961D02*
X170711905Y-87211723D01*
X170711905Y-87211723D02*
X170664286Y-87021247D01*
X170664286Y-87021247D02*
X170664286Y-86878390D01*
X170664286Y-86878390D02*
X170711905Y-86687914D01*
X170711905Y-86687914D02*
X170759524Y-86592676D01*
X170759524Y-86592676D02*
X170854762Y-86497438D01*
X170854762Y-86497438D02*
X170997619Y-86449819D01*
X170997619Y-86449819D02*
X171092857Y-86449819D01*
X171092857Y-86449819D02*
X171235714Y-86497438D01*
X171235714Y-86497438D02*
X171283333Y-86545057D01*
X171616667Y-86449819D02*
X172283333Y-86449819D01*
X172283333Y-86449819D02*
X171854762Y-87449819D01*
%TO.C,C9*%
X166584333Y-106150580D02*
X166536714Y-106198200D01*
X166536714Y-106198200D02*
X166393857Y-106245819D01*
X166393857Y-106245819D02*
X166298619Y-106245819D01*
X166298619Y-106245819D02*
X166155762Y-106198200D01*
X166155762Y-106198200D02*
X166060524Y-106102961D01*
X166060524Y-106102961D02*
X166012905Y-106007723D01*
X166012905Y-106007723D02*
X165965286Y-105817247D01*
X165965286Y-105817247D02*
X165965286Y-105674390D01*
X165965286Y-105674390D02*
X166012905Y-105483914D01*
X166012905Y-105483914D02*
X166060524Y-105388676D01*
X166060524Y-105388676D02*
X166155762Y-105293438D01*
X166155762Y-105293438D02*
X166298619Y-105245819D01*
X166298619Y-105245819D02*
X166393857Y-105245819D01*
X166393857Y-105245819D02*
X166536714Y-105293438D01*
X166536714Y-105293438D02*
X166584333Y-105341057D01*
X167060524Y-106245819D02*
X167251000Y-106245819D01*
X167251000Y-106245819D02*
X167346238Y-106198200D01*
X167346238Y-106198200D02*
X167393857Y-106150580D01*
X167393857Y-106150580D02*
X167489095Y-106007723D01*
X167489095Y-106007723D02*
X167536714Y-105817247D01*
X167536714Y-105817247D02*
X167536714Y-105436295D01*
X167536714Y-105436295D02*
X167489095Y-105341057D01*
X167489095Y-105341057D02*
X167441476Y-105293438D01*
X167441476Y-105293438D02*
X167346238Y-105245819D01*
X167346238Y-105245819D02*
X167155762Y-105245819D01*
X167155762Y-105245819D02*
X167060524Y-105293438D01*
X167060524Y-105293438D02*
X167012905Y-105341057D01*
X167012905Y-105341057D02*
X166965286Y-105436295D01*
X166965286Y-105436295D02*
X166965286Y-105674390D01*
X166965286Y-105674390D02*
X167012905Y-105769628D01*
X167012905Y-105769628D02*
X167060524Y-105817247D01*
X167060524Y-105817247D02*
X167155762Y-105864866D01*
X167155762Y-105864866D02*
X167346238Y-105864866D01*
X167346238Y-105864866D02*
X167441476Y-105817247D01*
X167441476Y-105817247D02*
X167489095Y-105769628D01*
X167489095Y-105769628D02*
X167536714Y-105674390D01*
%TO.C,C19*%
X125976142Y-111357580D02*
X125928523Y-111405200D01*
X125928523Y-111405200D02*
X125785666Y-111452819D01*
X125785666Y-111452819D02*
X125690428Y-111452819D01*
X125690428Y-111452819D02*
X125547571Y-111405200D01*
X125547571Y-111405200D02*
X125452333Y-111309961D01*
X125452333Y-111309961D02*
X125404714Y-111214723D01*
X125404714Y-111214723D02*
X125357095Y-111024247D01*
X125357095Y-111024247D02*
X125357095Y-110881390D01*
X125357095Y-110881390D02*
X125404714Y-110690914D01*
X125404714Y-110690914D02*
X125452333Y-110595676D01*
X125452333Y-110595676D02*
X125547571Y-110500438D01*
X125547571Y-110500438D02*
X125690428Y-110452819D01*
X125690428Y-110452819D02*
X125785666Y-110452819D01*
X125785666Y-110452819D02*
X125928523Y-110500438D01*
X125928523Y-110500438D02*
X125976142Y-110548057D01*
X126928523Y-111452819D02*
X126357095Y-111452819D01*
X126642809Y-111452819D02*
X126642809Y-110452819D01*
X126642809Y-110452819D02*
X126547571Y-110595676D01*
X126547571Y-110595676D02*
X126452333Y-110690914D01*
X126452333Y-110690914D02*
X126357095Y-110738533D01*
X127404714Y-111452819D02*
X127595190Y-111452819D01*
X127595190Y-111452819D02*
X127690428Y-111405200D01*
X127690428Y-111405200D02*
X127738047Y-111357580D01*
X127738047Y-111357580D02*
X127833285Y-111214723D01*
X127833285Y-111214723D02*
X127880904Y-111024247D01*
X127880904Y-111024247D02*
X127880904Y-110643295D01*
X127880904Y-110643295D02*
X127833285Y-110548057D01*
X127833285Y-110548057D02*
X127785666Y-110500438D01*
X127785666Y-110500438D02*
X127690428Y-110452819D01*
X127690428Y-110452819D02*
X127499952Y-110452819D01*
X127499952Y-110452819D02*
X127404714Y-110500438D01*
X127404714Y-110500438D02*
X127357095Y-110548057D01*
X127357095Y-110548057D02*
X127309476Y-110643295D01*
X127309476Y-110643295D02*
X127309476Y-110881390D01*
X127309476Y-110881390D02*
X127357095Y-110976628D01*
X127357095Y-110976628D02*
X127404714Y-111024247D01*
X127404714Y-111024247D02*
X127499952Y-111071866D01*
X127499952Y-111071866D02*
X127690428Y-111071866D01*
X127690428Y-111071866D02*
X127785666Y-111024247D01*
X127785666Y-111024247D02*
X127833285Y-110976628D01*
X127833285Y-110976628D02*
X127880904Y-110881390D01*
D13*
%TO.C,U5*%
X158742095Y-136609419D02*
X158742095Y-137418942D01*
X158742095Y-137418942D02*
X158789714Y-137514180D01*
X158789714Y-137514180D02*
X158837333Y-137561800D01*
X158837333Y-137561800D02*
X158932571Y-137609419D01*
X158932571Y-137609419D02*
X159123047Y-137609419D01*
X159123047Y-137609419D02*
X159218285Y-137561800D01*
X159218285Y-137561800D02*
X159265904Y-137514180D01*
X159265904Y-137514180D02*
X159313523Y-137418942D01*
X159313523Y-137418942D02*
X159313523Y-136609419D01*
X160265904Y-136609419D02*
X159789714Y-136609419D01*
X159789714Y-136609419D02*
X159742095Y-137085609D01*
X159742095Y-137085609D02*
X159789714Y-137037990D01*
X159789714Y-137037990D02*
X159884952Y-136990371D01*
X159884952Y-136990371D02*
X160123047Y-136990371D01*
X160123047Y-136990371D02*
X160218285Y-137037990D01*
X160218285Y-137037990D02*
X160265904Y-137085609D01*
X160265904Y-137085609D02*
X160313523Y-137180847D01*
X160313523Y-137180847D02*
X160313523Y-137418942D01*
X160313523Y-137418942D02*
X160265904Y-137514180D01*
X160265904Y-137514180D02*
X160218285Y-137561800D01*
X160218285Y-137561800D02*
X160123047Y-137609419D01*
X160123047Y-137609419D02*
X159884952Y-137609419D01*
X159884952Y-137609419D02*
X159789714Y-137561800D01*
X159789714Y-137561800D02*
X159742095Y-137514180D01*
D10*
X190198862Y-136684666D02*
X188675053Y-136684666D01*
X189436957Y-135922761D02*
X189436957Y-137446571D01*
X129198862Y-136684666D02*
X127675053Y-136684666D01*
D11*
%TO.C,J3*%
X187074666Y-77686819D02*
X187074666Y-78401104D01*
X187074666Y-78401104D02*
X187027047Y-78543961D01*
X187027047Y-78543961D02*
X186931809Y-78639200D01*
X186931809Y-78639200D02*
X186788952Y-78686819D01*
X186788952Y-78686819D02*
X186693714Y-78686819D01*
X187455619Y-77686819D02*
X188074666Y-77686819D01*
X188074666Y-77686819D02*
X187741333Y-78067771D01*
X187741333Y-78067771D02*
X187884190Y-78067771D01*
X187884190Y-78067771D02*
X187979428Y-78115390D01*
X187979428Y-78115390D02*
X188027047Y-78163009D01*
X188027047Y-78163009D02*
X188074666Y-78258247D01*
X188074666Y-78258247D02*
X188074666Y-78496342D01*
X188074666Y-78496342D02*
X188027047Y-78591580D01*
X188027047Y-78591580D02*
X187979428Y-78639200D01*
X187979428Y-78639200D02*
X187884190Y-78686819D01*
X187884190Y-78686819D02*
X187598476Y-78686819D01*
X187598476Y-78686819D02*
X187503238Y-78639200D01*
X187503238Y-78639200D02*
X187455619Y-78591580D01*
%TO.C,U2*%
X118364095Y-100292819D02*
X118364095Y-101102342D01*
X118364095Y-101102342D02*
X118411714Y-101197580D01*
X118411714Y-101197580D02*
X118459333Y-101245200D01*
X118459333Y-101245200D02*
X118554571Y-101292819D01*
X118554571Y-101292819D02*
X118745047Y-101292819D01*
X118745047Y-101292819D02*
X118840285Y-101245200D01*
X118840285Y-101245200D02*
X118887904Y-101197580D01*
X118887904Y-101197580D02*
X118935523Y-101102342D01*
X118935523Y-101102342D02*
X118935523Y-100292819D01*
X119364095Y-100388057D02*
X119411714Y-100340438D01*
X119411714Y-100340438D02*
X119506952Y-100292819D01*
X119506952Y-100292819D02*
X119745047Y-100292819D01*
X119745047Y-100292819D02*
X119840285Y-100340438D01*
X119840285Y-100340438D02*
X119887904Y-100388057D01*
X119887904Y-100388057D02*
X119935523Y-100483295D01*
X119935523Y-100483295D02*
X119935523Y-100578533D01*
X119935523Y-100578533D02*
X119887904Y-100721390D01*
X119887904Y-100721390D02*
X119316476Y-101292819D01*
X119316476Y-101292819D02*
X119935523Y-101292819D01*
%TO.C,J5*%
X155368666Y-81198819D02*
X155368666Y-81913104D01*
X155368666Y-81913104D02*
X155321047Y-82055961D01*
X155321047Y-82055961D02*
X155225809Y-82151200D01*
X155225809Y-82151200D02*
X155082952Y-82198819D01*
X155082952Y-82198819D02*
X154987714Y-82198819D01*
X156321047Y-81198819D02*
X155844857Y-81198819D01*
X155844857Y-81198819D02*
X155797238Y-81675009D01*
X155797238Y-81675009D02*
X155844857Y-81627390D01*
X155844857Y-81627390D02*
X155940095Y-81579771D01*
X155940095Y-81579771D02*
X156178190Y-81579771D01*
X156178190Y-81579771D02*
X156273428Y-81627390D01*
X156273428Y-81627390D02*
X156321047Y-81675009D01*
X156321047Y-81675009D02*
X156368666Y-81770247D01*
X156368666Y-81770247D02*
X156368666Y-82008342D01*
X156368666Y-82008342D02*
X156321047Y-82103580D01*
X156321047Y-82103580D02*
X156273428Y-82151200D01*
X156273428Y-82151200D02*
X156178190Y-82198819D01*
X156178190Y-82198819D02*
X155940095Y-82198819D01*
X155940095Y-82198819D02*
X155844857Y-82151200D01*
X155844857Y-82151200D02*
X155797238Y-82103580D01*
%TO.C,D1*%
X163980905Y-86560819D02*
X163980905Y-85560819D01*
X163980905Y-85560819D02*
X164219000Y-85560819D01*
X164219000Y-85560819D02*
X164361857Y-85608438D01*
X164361857Y-85608438D02*
X164457095Y-85703676D01*
X164457095Y-85703676D02*
X164504714Y-85798914D01*
X164504714Y-85798914D02*
X164552333Y-85989390D01*
X164552333Y-85989390D02*
X164552333Y-86132247D01*
X164552333Y-86132247D02*
X164504714Y-86322723D01*
X164504714Y-86322723D02*
X164457095Y-86417961D01*
X164457095Y-86417961D02*
X164361857Y-86513200D01*
X164361857Y-86513200D02*
X164219000Y-86560819D01*
X164219000Y-86560819D02*
X163980905Y-86560819D01*
X165504714Y-86560819D02*
X164933286Y-86560819D01*
X165219000Y-86560819D02*
X165219000Y-85560819D01*
X165219000Y-85560819D02*
X165123762Y-85703676D01*
X165123762Y-85703676D02*
X165028524Y-85798914D01*
X165028524Y-85798914D02*
X164933286Y-85846533D01*
%TO.C,R9*%
X198207333Y-124914819D02*
X197874000Y-124438628D01*
X197635905Y-124914819D02*
X197635905Y-123914819D01*
X197635905Y-123914819D02*
X198016857Y-123914819D01*
X198016857Y-123914819D02*
X198112095Y-123962438D01*
X198112095Y-123962438D02*
X198159714Y-124010057D01*
X198159714Y-124010057D02*
X198207333Y-124105295D01*
X198207333Y-124105295D02*
X198207333Y-124248152D01*
X198207333Y-124248152D02*
X198159714Y-124343390D01*
X198159714Y-124343390D02*
X198112095Y-124391009D01*
X198112095Y-124391009D02*
X198016857Y-124438628D01*
X198016857Y-124438628D02*
X197635905Y-124438628D01*
X198683524Y-124914819D02*
X198874000Y-124914819D01*
X198874000Y-124914819D02*
X198969238Y-124867200D01*
X198969238Y-124867200D02*
X199016857Y-124819580D01*
X199016857Y-124819580D02*
X199112095Y-124676723D01*
X199112095Y-124676723D02*
X199159714Y-124486247D01*
X199159714Y-124486247D02*
X199159714Y-124105295D01*
X199159714Y-124105295D02*
X199112095Y-124010057D01*
X199112095Y-124010057D02*
X199064476Y-123962438D01*
X199064476Y-123962438D02*
X198969238Y-123914819D01*
X198969238Y-123914819D02*
X198778762Y-123914819D01*
X198778762Y-123914819D02*
X198683524Y-123962438D01*
X198683524Y-123962438D02*
X198635905Y-124010057D01*
X198635905Y-124010057D02*
X198588286Y-124105295D01*
X198588286Y-124105295D02*
X198588286Y-124343390D01*
X198588286Y-124343390D02*
X198635905Y-124438628D01*
X198635905Y-124438628D02*
X198683524Y-124486247D01*
X198683524Y-124486247D02*
X198778762Y-124533866D01*
X198778762Y-124533866D02*
X198969238Y-124533866D01*
X198969238Y-124533866D02*
X199064476Y-124486247D01*
X199064476Y-124486247D02*
X199112095Y-124438628D01*
X199112095Y-124438628D02*
X199159714Y-124343390D01*
D13*
%TO.C,SW1*%
X154368667Y-97945800D02*
X154511524Y-97993419D01*
X154511524Y-97993419D02*
X154749619Y-97993419D01*
X154749619Y-97993419D02*
X154844857Y-97945800D01*
X154844857Y-97945800D02*
X154892476Y-97898180D01*
X154892476Y-97898180D02*
X154940095Y-97802942D01*
X154940095Y-97802942D02*
X154940095Y-97707704D01*
X154940095Y-97707704D02*
X154892476Y-97612466D01*
X154892476Y-97612466D02*
X154844857Y-97564847D01*
X154844857Y-97564847D02*
X154749619Y-97517228D01*
X154749619Y-97517228D02*
X154559143Y-97469609D01*
X154559143Y-97469609D02*
X154463905Y-97421990D01*
X154463905Y-97421990D02*
X154416286Y-97374371D01*
X154416286Y-97374371D02*
X154368667Y-97279133D01*
X154368667Y-97279133D02*
X154368667Y-97183895D01*
X154368667Y-97183895D02*
X154416286Y-97088657D01*
X154416286Y-97088657D02*
X154463905Y-97041038D01*
X154463905Y-97041038D02*
X154559143Y-96993419D01*
X154559143Y-96993419D02*
X154797238Y-96993419D01*
X154797238Y-96993419D02*
X154940095Y-97041038D01*
X155273429Y-96993419D02*
X155511524Y-97993419D01*
X155511524Y-97993419D02*
X155702000Y-97279133D01*
X155702000Y-97279133D02*
X155892476Y-97993419D01*
X155892476Y-97993419D02*
X156130572Y-96993419D01*
X157035333Y-97993419D02*
X156463905Y-97993419D01*
X156749619Y-97993419D02*
X156749619Y-96993419D01*
X156749619Y-96993419D02*
X156654381Y-97136276D01*
X156654381Y-97136276D02*
X156559143Y-97231514D01*
X156559143Y-97231514D02*
X156463905Y-97279133D01*
D11*
%TO.C,R12*%
X145153142Y-119072819D02*
X144819809Y-118596628D01*
X144581714Y-119072819D02*
X144581714Y-118072819D01*
X144581714Y-118072819D02*
X144962666Y-118072819D01*
X144962666Y-118072819D02*
X145057904Y-118120438D01*
X145057904Y-118120438D02*
X145105523Y-118168057D01*
X145105523Y-118168057D02*
X145153142Y-118263295D01*
X145153142Y-118263295D02*
X145153142Y-118406152D01*
X145153142Y-118406152D02*
X145105523Y-118501390D01*
X145105523Y-118501390D02*
X145057904Y-118549009D01*
X145057904Y-118549009D02*
X144962666Y-118596628D01*
X144962666Y-118596628D02*
X144581714Y-118596628D01*
X146105523Y-119072819D02*
X145534095Y-119072819D01*
X145819809Y-119072819D02*
X145819809Y-118072819D01*
X145819809Y-118072819D02*
X145724571Y-118215676D01*
X145724571Y-118215676D02*
X145629333Y-118310914D01*
X145629333Y-118310914D02*
X145534095Y-118358533D01*
X146486476Y-118168057D02*
X146534095Y-118120438D01*
X146534095Y-118120438D02*
X146629333Y-118072819D01*
X146629333Y-118072819D02*
X146867428Y-118072819D01*
X146867428Y-118072819D02*
X146962666Y-118120438D01*
X146962666Y-118120438D02*
X147010285Y-118168057D01*
X147010285Y-118168057D02*
X147057904Y-118263295D01*
X147057904Y-118263295D02*
X147057904Y-118358533D01*
X147057904Y-118358533D02*
X147010285Y-118501390D01*
X147010285Y-118501390D02*
X146438857Y-119072819D01*
X146438857Y-119072819D02*
X147057904Y-119072819D01*
%TO.C,Q1*%
X138842761Y-120298057D02*
X138747523Y-120250438D01*
X138747523Y-120250438D02*
X138652285Y-120155200D01*
X138652285Y-120155200D02*
X138509428Y-120012342D01*
X138509428Y-120012342D02*
X138414190Y-119964723D01*
X138414190Y-119964723D02*
X138318952Y-119964723D01*
X138366571Y-120202819D02*
X138271333Y-120155200D01*
X138271333Y-120155200D02*
X138176095Y-120059961D01*
X138176095Y-120059961D02*
X138128476Y-119869485D01*
X138128476Y-119869485D02*
X138128476Y-119536152D01*
X138128476Y-119536152D02*
X138176095Y-119345676D01*
X138176095Y-119345676D02*
X138271333Y-119250438D01*
X138271333Y-119250438D02*
X138366571Y-119202819D01*
X138366571Y-119202819D02*
X138557047Y-119202819D01*
X138557047Y-119202819D02*
X138652285Y-119250438D01*
X138652285Y-119250438D02*
X138747523Y-119345676D01*
X138747523Y-119345676D02*
X138795142Y-119536152D01*
X138795142Y-119536152D02*
X138795142Y-119869485D01*
X138795142Y-119869485D02*
X138747523Y-120059961D01*
X138747523Y-120059961D02*
X138652285Y-120155200D01*
X138652285Y-120155200D02*
X138557047Y-120202819D01*
X138557047Y-120202819D02*
X138366571Y-120202819D01*
X139747523Y-120202819D02*
X139176095Y-120202819D01*
X139461809Y-120202819D02*
X139461809Y-119202819D01*
X139461809Y-119202819D02*
X139366571Y-119345676D01*
X139366571Y-119345676D02*
X139271333Y-119440914D01*
X139271333Y-119440914D02*
X139176095Y-119488533D01*
%TO.C,C20*%
X122928142Y-111357580D02*
X122880523Y-111405200D01*
X122880523Y-111405200D02*
X122737666Y-111452819D01*
X122737666Y-111452819D02*
X122642428Y-111452819D01*
X122642428Y-111452819D02*
X122499571Y-111405200D01*
X122499571Y-111405200D02*
X122404333Y-111309961D01*
X122404333Y-111309961D02*
X122356714Y-111214723D01*
X122356714Y-111214723D02*
X122309095Y-111024247D01*
X122309095Y-111024247D02*
X122309095Y-110881390D01*
X122309095Y-110881390D02*
X122356714Y-110690914D01*
X122356714Y-110690914D02*
X122404333Y-110595676D01*
X122404333Y-110595676D02*
X122499571Y-110500438D01*
X122499571Y-110500438D02*
X122642428Y-110452819D01*
X122642428Y-110452819D02*
X122737666Y-110452819D01*
X122737666Y-110452819D02*
X122880523Y-110500438D01*
X122880523Y-110500438D02*
X122928142Y-110548057D01*
X123309095Y-110548057D02*
X123356714Y-110500438D01*
X123356714Y-110500438D02*
X123451952Y-110452819D01*
X123451952Y-110452819D02*
X123690047Y-110452819D01*
X123690047Y-110452819D02*
X123785285Y-110500438D01*
X123785285Y-110500438D02*
X123832904Y-110548057D01*
X123832904Y-110548057D02*
X123880523Y-110643295D01*
X123880523Y-110643295D02*
X123880523Y-110738533D01*
X123880523Y-110738533D02*
X123832904Y-110881390D01*
X123832904Y-110881390D02*
X123261476Y-111452819D01*
X123261476Y-111452819D02*
X123880523Y-111452819D01*
X124499571Y-110452819D02*
X124594809Y-110452819D01*
X124594809Y-110452819D02*
X124690047Y-110500438D01*
X124690047Y-110500438D02*
X124737666Y-110548057D01*
X124737666Y-110548057D02*
X124785285Y-110643295D01*
X124785285Y-110643295D02*
X124832904Y-110833771D01*
X124832904Y-110833771D02*
X124832904Y-111071866D01*
X124832904Y-111071866D02*
X124785285Y-111262342D01*
X124785285Y-111262342D02*
X124737666Y-111357580D01*
X124737666Y-111357580D02*
X124690047Y-111405200D01*
X124690047Y-111405200D02*
X124594809Y-111452819D01*
X124594809Y-111452819D02*
X124499571Y-111452819D01*
X124499571Y-111452819D02*
X124404333Y-111405200D01*
X124404333Y-111405200D02*
X124356714Y-111357580D01*
X124356714Y-111357580D02*
X124309095Y-111262342D01*
X124309095Y-111262342D02*
X124261476Y-111071866D01*
X124261476Y-111071866D02*
X124261476Y-110833771D01*
X124261476Y-110833771D02*
X124309095Y-110643295D01*
X124309095Y-110643295D02*
X124356714Y-110548057D01*
X124356714Y-110548057D02*
X124404333Y-110500438D01*
X124404333Y-110500438D02*
X124499571Y-110452819D01*
%TO.C,C4*%
X164933333Y-93323580D02*
X164885714Y-93371200D01*
X164885714Y-93371200D02*
X164742857Y-93418819D01*
X164742857Y-93418819D02*
X164647619Y-93418819D01*
X164647619Y-93418819D02*
X164504762Y-93371200D01*
X164504762Y-93371200D02*
X164409524Y-93275961D01*
X164409524Y-93275961D02*
X164361905Y-93180723D01*
X164361905Y-93180723D02*
X164314286Y-92990247D01*
X164314286Y-92990247D02*
X164314286Y-92847390D01*
X164314286Y-92847390D02*
X164361905Y-92656914D01*
X164361905Y-92656914D02*
X164409524Y-92561676D01*
X164409524Y-92561676D02*
X164504762Y-92466438D01*
X164504762Y-92466438D02*
X164647619Y-92418819D01*
X164647619Y-92418819D02*
X164742857Y-92418819D01*
X164742857Y-92418819D02*
X164885714Y-92466438D01*
X164885714Y-92466438D02*
X164933333Y-92514057D01*
X165790476Y-92752152D02*
X165790476Y-93418819D01*
X165552381Y-92371200D02*
X165314286Y-93085485D01*
X165314286Y-93085485D02*
X165933333Y-93085485D01*
%TO.C,U3*%
X197231095Y-114008819D02*
X197231095Y-114818342D01*
X197231095Y-114818342D02*
X197278714Y-114913580D01*
X197278714Y-114913580D02*
X197326333Y-114961200D01*
X197326333Y-114961200D02*
X197421571Y-115008819D01*
X197421571Y-115008819D02*
X197612047Y-115008819D01*
X197612047Y-115008819D02*
X197707285Y-114961200D01*
X197707285Y-114961200D02*
X197754904Y-114913580D01*
X197754904Y-114913580D02*
X197802523Y-114818342D01*
X197802523Y-114818342D02*
X197802523Y-114008819D01*
X198183476Y-114008819D02*
X198802523Y-114008819D01*
X198802523Y-114008819D02*
X198469190Y-114389771D01*
X198469190Y-114389771D02*
X198612047Y-114389771D01*
X198612047Y-114389771D02*
X198707285Y-114437390D01*
X198707285Y-114437390D02*
X198754904Y-114485009D01*
X198754904Y-114485009D02*
X198802523Y-114580247D01*
X198802523Y-114580247D02*
X198802523Y-114818342D01*
X198802523Y-114818342D02*
X198754904Y-114913580D01*
X198754904Y-114913580D02*
X198707285Y-114961200D01*
X198707285Y-114961200D02*
X198612047Y-115008819D01*
X198612047Y-115008819D02*
X198326333Y-115008819D01*
X198326333Y-115008819D02*
X198231095Y-114961200D01*
X198231095Y-114961200D02*
X198183476Y-114913580D01*
%TO.C,C14*%
X195304580Y-114942857D02*
X195352200Y-114990476D01*
X195352200Y-114990476D02*
X195399819Y-115133333D01*
X195399819Y-115133333D02*
X195399819Y-115228571D01*
X195399819Y-115228571D02*
X195352200Y-115371428D01*
X195352200Y-115371428D02*
X195256961Y-115466666D01*
X195256961Y-115466666D02*
X195161723Y-115514285D01*
X195161723Y-115514285D02*
X194971247Y-115561904D01*
X194971247Y-115561904D02*
X194828390Y-115561904D01*
X194828390Y-115561904D02*
X194637914Y-115514285D01*
X194637914Y-115514285D02*
X194542676Y-115466666D01*
X194542676Y-115466666D02*
X194447438Y-115371428D01*
X194447438Y-115371428D02*
X194399819Y-115228571D01*
X194399819Y-115228571D02*
X194399819Y-115133333D01*
X194399819Y-115133333D02*
X194447438Y-114990476D01*
X194447438Y-114990476D02*
X194495057Y-114942857D01*
X195399819Y-113990476D02*
X195399819Y-114561904D01*
X195399819Y-114276190D02*
X194399819Y-114276190D01*
X194399819Y-114276190D02*
X194542676Y-114371428D01*
X194542676Y-114371428D02*
X194637914Y-114466666D01*
X194637914Y-114466666D02*
X194685533Y-114561904D01*
X194733152Y-113133333D02*
X195399819Y-113133333D01*
X194352200Y-113371428D02*
X195066485Y-113609523D01*
X195066485Y-113609523D02*
X195066485Y-112990476D01*
%TO.C,R1*%
X147976333Y-100784819D02*
X147643000Y-100308628D01*
X147404905Y-100784819D02*
X147404905Y-99784819D01*
X147404905Y-99784819D02*
X147785857Y-99784819D01*
X147785857Y-99784819D02*
X147881095Y-99832438D01*
X147881095Y-99832438D02*
X147928714Y-99880057D01*
X147928714Y-99880057D02*
X147976333Y-99975295D01*
X147976333Y-99975295D02*
X147976333Y-100118152D01*
X147976333Y-100118152D02*
X147928714Y-100213390D01*
X147928714Y-100213390D02*
X147881095Y-100261009D01*
X147881095Y-100261009D02*
X147785857Y-100308628D01*
X147785857Y-100308628D02*
X147404905Y-100308628D01*
X148928714Y-100784819D02*
X148357286Y-100784819D01*
X148643000Y-100784819D02*
X148643000Y-99784819D01*
X148643000Y-99784819D02*
X148547762Y-99927676D01*
X148547762Y-99927676D02*
X148452524Y-100022914D01*
X148452524Y-100022914D02*
X148357286Y-100070533D01*
%TO.C,D6*%
X191412905Y-121866819D02*
X191412905Y-120866819D01*
X191412905Y-120866819D02*
X191651000Y-120866819D01*
X191651000Y-120866819D02*
X191793857Y-120914438D01*
X191793857Y-120914438D02*
X191889095Y-121009676D01*
X191889095Y-121009676D02*
X191936714Y-121104914D01*
X191936714Y-121104914D02*
X191984333Y-121295390D01*
X191984333Y-121295390D02*
X191984333Y-121438247D01*
X191984333Y-121438247D02*
X191936714Y-121628723D01*
X191936714Y-121628723D02*
X191889095Y-121723961D01*
X191889095Y-121723961D02*
X191793857Y-121819200D01*
X191793857Y-121819200D02*
X191651000Y-121866819D01*
X191651000Y-121866819D02*
X191412905Y-121866819D01*
X192841476Y-120866819D02*
X192651000Y-120866819D01*
X192651000Y-120866819D02*
X192555762Y-120914438D01*
X192555762Y-120914438D02*
X192508143Y-120962057D01*
X192508143Y-120962057D02*
X192412905Y-121104914D01*
X192412905Y-121104914D02*
X192365286Y-121295390D01*
X192365286Y-121295390D02*
X192365286Y-121676342D01*
X192365286Y-121676342D02*
X192412905Y-121771580D01*
X192412905Y-121771580D02*
X192460524Y-121819200D01*
X192460524Y-121819200D02*
X192555762Y-121866819D01*
X192555762Y-121866819D02*
X192746238Y-121866819D01*
X192746238Y-121866819D02*
X192841476Y-121819200D01*
X192841476Y-121819200D02*
X192889095Y-121771580D01*
X192889095Y-121771580D02*
X192936714Y-121676342D01*
X192936714Y-121676342D02*
X192936714Y-121438247D01*
X192936714Y-121438247D02*
X192889095Y-121343009D01*
X192889095Y-121343009D02*
X192841476Y-121295390D01*
X192841476Y-121295390D02*
X192746238Y-121247771D01*
X192746238Y-121247771D02*
X192555762Y-121247771D01*
X192555762Y-121247771D02*
X192460524Y-121295390D01*
X192460524Y-121295390D02*
X192412905Y-121343009D01*
X192412905Y-121343009D02*
X192365286Y-121438247D01*
%TO.C,J1*%
X197893666Y-89169319D02*
X197893666Y-89883604D01*
X197893666Y-89883604D02*
X197846047Y-90026461D01*
X197846047Y-90026461D02*
X197750809Y-90121700D01*
X197750809Y-90121700D02*
X197607952Y-90169319D01*
X197607952Y-90169319D02*
X197512714Y-90169319D01*
X198893666Y-90169319D02*
X198322238Y-90169319D01*
X198607952Y-90169319D02*
X198607952Y-89169319D01*
X198607952Y-89169319D02*
X198512714Y-89312176D01*
X198512714Y-89312176D02*
X198417476Y-89407414D01*
X198417476Y-89407414D02*
X198322238Y-89455033D01*
D14*
%TO.C,R2*%
X167403758Y-90692500D02*
X166929242Y-90692500D01*
X167403758Y-89647500D02*
X166929242Y-89647500D01*
%TO.C,G\u002A\u002A\u002A*%
D15*
X136828075Y-104610166D02*
X136891083Y-104695430D01*
X136956969Y-104784606D01*
X137018311Y-104867646D01*
X137067688Y-104934506D01*
X137071690Y-104939927D01*
X137168454Y-105070988D01*
X137930536Y-105075394D01*
X138692617Y-105079800D01*
X138648005Y-105164467D01*
X138596435Y-105254011D01*
X138538176Y-105336740D01*
X138465929Y-105422222D01*
X138391582Y-105500623D01*
X138335933Y-105555418D01*
X138280337Y-105605533D01*
X138220158Y-105654299D01*
X138150756Y-105705051D01*
X138067494Y-105761120D01*
X137965734Y-105825840D01*
X137840837Y-105902543D01*
X137786534Y-105935412D01*
X137414871Y-106168448D01*
X137072231Y-106401289D01*
X136759246Y-106633385D01*
X136476547Y-106864185D01*
X136224765Y-107093140D01*
X136004530Y-107319697D01*
X135816474Y-107543308D01*
X135661228Y-107763420D01*
X135626081Y-107820402D01*
X135595709Y-107869072D01*
X135571792Y-107903540D01*
X135559800Y-107916133D01*
X135547208Y-107902748D01*
X135523007Y-107867717D01*
X135493520Y-107820402D01*
X135396724Y-107673432D01*
X135275691Y-107514301D01*
X135135005Y-107348630D01*
X134979251Y-107182039D01*
X134942521Y-107144926D01*
X134751893Y-106962099D01*
X134550835Y-106784984D01*
X134335682Y-106610839D01*
X134102768Y-106436919D01*
X133848430Y-106260481D01*
X133569003Y-106078781D01*
X133282267Y-105901986D01*
X133187800Y-105844298D01*
X133098100Y-105788177D01*
X133019250Y-105737531D01*
X132957333Y-105696267D01*
X132918431Y-105668294D01*
X132918200Y-105668111D01*
X132869289Y-105627310D01*
X132813608Y-105577647D01*
X132756810Y-105524599D01*
X132704548Y-105473639D01*
X132662475Y-105430243D01*
X132636243Y-105399883D01*
X132630334Y-105389322D01*
X132646568Y-105385986D01*
X132692477Y-105382978D01*
X132763868Y-105380406D01*
X132856551Y-105378381D01*
X132966332Y-105377011D01*
X133089022Y-105376407D01*
X133125634Y-105376390D01*
X133620934Y-105376646D01*
X133756400Y-105638692D01*
X133801004Y-105723863D01*
X133840656Y-105797488D01*
X133872651Y-105854709D01*
X133894284Y-105890673D01*
X133902472Y-105900903D01*
X133911312Y-105885934D01*
X133931977Y-105843187D01*
X133962957Y-105776018D01*
X134002743Y-105687779D01*
X134049825Y-105581825D01*
X134102694Y-105461510D01*
X134159841Y-105330187D01*
X134172649Y-105300588D01*
X134230386Y-105167707D01*
X134284080Y-105045447D01*
X134332241Y-104937103D01*
X134373378Y-104845969D01*
X134406001Y-104775339D01*
X134428621Y-104728508D01*
X134439746Y-104708771D01*
X134440517Y-104708405D01*
X134448406Y-104725401D01*
X134467518Y-104770527D01*
X134496496Y-104840468D01*
X134533984Y-104931909D01*
X134578624Y-105041537D01*
X134629062Y-105166035D01*
X134683940Y-105302090D01*
X134712206Y-105372383D01*
X134768878Y-105512608D01*
X134822062Y-105642573D01*
X134870374Y-105759011D01*
X134912429Y-105858660D01*
X134946841Y-105938253D01*
X134972226Y-105994525D01*
X134987200Y-106024213D01*
X134990346Y-106028066D01*
X135001981Y-106013797D01*
X135027528Y-105973496D01*
X135064792Y-105910922D01*
X135111579Y-105829836D01*
X135165695Y-105733997D01*
X135224946Y-105627166D01*
X135234941Y-105608967D01*
X135294601Y-105500776D01*
X135349161Y-105402969D01*
X135396478Y-105319292D01*
X135434410Y-105253498D01*
X135460815Y-105209335D01*
X135473551Y-105190554D01*
X135474195Y-105190155D01*
X135484882Y-105204336D01*
X135509432Y-105243822D01*
X135545296Y-105304294D01*
X135589926Y-105381432D01*
X135640773Y-105470917D01*
X135659043Y-105503421D01*
X135711487Y-105596086D01*
X135758698Y-105677809D01*
X135798105Y-105744281D01*
X135827142Y-105791195D01*
X135843239Y-105814243D01*
X135845310Y-105815876D01*
X135855788Y-105801620D01*
X135881649Y-105760952D01*
X135921190Y-105696699D01*
X135972706Y-105611689D01*
X136034492Y-105508750D01*
X136104845Y-105390708D01*
X136182060Y-105260393D01*
X136264434Y-105120630D01*
X136268679Y-105113409D01*
X136681223Y-104411465D01*
X136828075Y-104610166D01*
G36*
X136828075Y-104610166D02*
G01*
X136891083Y-104695430D01*
X136956969Y-104784606D01*
X137018311Y-104867646D01*
X137067688Y-104934506D01*
X137071690Y-104939927D01*
X137168454Y-105070988D01*
X137930536Y-105075394D01*
X138692617Y-105079800D01*
X138648005Y-105164467D01*
X138596435Y-105254011D01*
X138538176Y-105336740D01*
X138465929Y-105422222D01*
X138391582Y-105500623D01*
X138335933Y-105555418D01*
X138280337Y-105605533D01*
X138220158Y-105654299D01*
X138150756Y-105705051D01*
X138067494Y-105761120D01*
X137965734Y-105825840D01*
X137840837Y-105902543D01*
X137786534Y-105935412D01*
X137414871Y-106168448D01*
X137072231Y-106401289D01*
X136759246Y-106633385D01*
X136476547Y-106864185D01*
X136224765Y-107093140D01*
X136004530Y-107319697D01*
X135816474Y-107543308D01*
X135661228Y-107763420D01*
X135626081Y-107820402D01*
X135595709Y-107869072D01*
X135571792Y-107903540D01*
X135559800Y-107916133D01*
X135547208Y-107902748D01*
X135523007Y-107867717D01*
X135493520Y-107820402D01*
X135396724Y-107673432D01*
X135275691Y-107514301D01*
X135135005Y-107348630D01*
X134979251Y-107182039D01*
X134942521Y-107144926D01*
X134751893Y-106962099D01*
X134550835Y-106784984D01*
X134335682Y-106610839D01*
X134102768Y-106436919D01*
X133848430Y-106260481D01*
X133569003Y-106078781D01*
X133282267Y-105901986D01*
X133187800Y-105844298D01*
X133098100Y-105788177D01*
X133019250Y-105737531D01*
X132957333Y-105696267D01*
X132918431Y-105668294D01*
X132918200Y-105668111D01*
X132869289Y-105627310D01*
X132813608Y-105577647D01*
X132756810Y-105524599D01*
X132704548Y-105473639D01*
X132662475Y-105430243D01*
X132636243Y-105399883D01*
X132630334Y-105389322D01*
X132646568Y-105385986D01*
X132692477Y-105382978D01*
X132763868Y-105380406D01*
X132856551Y-105378381D01*
X132966332Y-105377011D01*
X133089022Y-105376407D01*
X133125634Y-105376390D01*
X133620934Y-105376646D01*
X133756400Y-105638692D01*
X133801004Y-105723863D01*
X133840656Y-105797488D01*
X133872651Y-105854709D01*
X133894284Y-105890673D01*
X133902472Y-105900903D01*
X133911312Y-105885934D01*
X133931977Y-105843187D01*
X133962957Y-105776018D01*
X134002743Y-105687779D01*
X134049825Y-105581825D01*
X134102694Y-105461510D01*
X134159841Y-105330187D01*
X134172649Y-105300588D01*
X134230386Y-105167707D01*
X134284080Y-105045447D01*
X134332241Y-104937103D01*
X134373378Y-104845969D01*
X134406001Y-104775339D01*
X134428621Y-104728508D01*
X134439746Y-104708771D01*
X134440517Y-104708405D01*
X134448406Y-104725401D01*
X134467518Y-104770527D01*
X134496496Y-104840468D01*
X134533984Y-104931909D01*
X134578624Y-105041537D01*
X134629062Y-105166035D01*
X134683940Y-105302090D01*
X134712206Y-105372383D01*
X134768878Y-105512608D01*
X134822062Y-105642573D01*
X134870374Y-105759011D01*
X134912429Y-105858660D01*
X134946841Y-105938253D01*
X134972226Y-105994525D01*
X134987200Y-106024213D01*
X134990346Y-106028066D01*
X135001981Y-106013797D01*
X135027528Y-105973496D01*
X135064792Y-105910922D01*
X135111579Y-105829836D01*
X135165695Y-105733997D01*
X135224946Y-105627166D01*
X135234941Y-105608967D01*
X135294601Y-105500776D01*
X135349161Y-105402969D01*
X135396478Y-105319292D01*
X135434410Y-105253498D01*
X135460815Y-105209335D01*
X135473551Y-105190554D01*
X135474195Y-105190155D01*
X135484882Y-105204336D01*
X135509432Y-105243822D01*
X135545296Y-105304294D01*
X135589926Y-105381432D01*
X135640773Y-105470917D01*
X135659043Y-105503421D01*
X135711487Y-105596086D01*
X135758698Y-105677809D01*
X135798105Y-105744281D01*
X135827142Y-105791195D01*
X135843239Y-105814243D01*
X135845310Y-105815876D01*
X135855788Y-105801620D01*
X135881649Y-105760952D01*
X135921190Y-105696699D01*
X135972706Y-105611689D01*
X136034492Y-105508750D01*
X136104845Y-105390708D01*
X136182060Y-105260393D01*
X136264434Y-105120630D01*
X136268679Y-105113409D01*
X136681223Y-104411465D01*
X136828075Y-104610166D01*
G37*
X137312801Y-102929179D02*
X137468660Y-102947248D01*
X137581272Y-102971079D01*
X137797033Y-103046438D01*
X137998684Y-103150974D01*
X138183629Y-103282012D01*
X138349275Y-103436880D01*
X138493028Y-103612907D01*
X138612294Y-103807418D01*
X138704477Y-104017741D01*
X138752758Y-104178007D01*
X138767963Y-104260908D01*
X138779217Y-104364245D01*
X138786190Y-104478049D01*
X138788556Y-104592347D01*
X138785985Y-104697170D01*
X138778151Y-104782547D01*
X138773503Y-104808867D01*
X138751734Y-104910467D01*
X137229457Y-104910467D01*
X136957662Y-104543117D01*
X136885417Y-104445621D01*
X136819618Y-104357109D01*
X136762991Y-104281222D01*
X136718259Y-104221604D01*
X136688148Y-104181897D01*
X136675383Y-104165743D01*
X136675338Y-104165699D01*
X136664906Y-104177771D01*
X136639114Y-104216285D01*
X136599683Y-104278439D01*
X136548331Y-104361430D01*
X136486779Y-104462458D01*
X136416746Y-104578719D01*
X136339952Y-104707411D01*
X136260472Y-104841735D01*
X136178705Y-104980187D01*
X136102116Y-105109308D01*
X136032421Y-105226240D01*
X135971339Y-105328131D01*
X135920586Y-105412124D01*
X135881880Y-105475364D01*
X135856939Y-105514998D01*
X135847533Y-105528186D01*
X135836996Y-105514240D01*
X135812623Y-105475141D01*
X135777045Y-105415328D01*
X135732897Y-105339238D01*
X135682811Y-105251311D01*
X135673485Y-105234777D01*
X135621529Y-105142951D01*
X135574130Y-105059971D01*
X135534192Y-104990858D01*
X135504618Y-104940631D01*
X135488313Y-104914312D01*
X135487352Y-104912954D01*
X135479123Y-104907960D01*
X135467262Y-104914002D01*
X135449899Y-104933969D01*
X135425166Y-104970749D01*
X135391194Y-105027234D01*
X135346113Y-105106312D01*
X135288054Y-105210873D01*
X135250799Y-105278676D01*
X135192526Y-105384829D01*
X135139103Y-105481863D01*
X135092837Y-105565612D01*
X135056033Y-105631911D01*
X135030997Y-105676594D01*
X135020241Y-105695184D01*
X135010452Y-105686874D01*
X134989666Y-105648374D01*
X134957764Y-105579411D01*
X134914627Y-105479715D01*
X134860138Y-105349011D01*
X134794178Y-105187029D01*
X134728109Y-105022302D01*
X134670259Y-104877728D01*
X134616119Y-104743329D01*
X134566993Y-104622272D01*
X134524184Y-104517730D01*
X134488995Y-104432871D01*
X134462730Y-104370865D01*
X134446691Y-104334883D01*
X134442201Y-104326868D01*
X134433890Y-104341927D01*
X134413723Y-104384837D01*
X134383158Y-104452310D01*
X134343657Y-104541060D01*
X134296678Y-104647799D01*
X134243682Y-104769238D01*
X134186127Y-104902092D01*
X134164008Y-104953393D01*
X133894281Y-105579752D01*
X133849464Y-105503013D01*
X133817164Y-105444671D01*
X133780264Y-105373641D01*
X133755123Y-105322633D01*
X133705600Y-105218991D01*
X132513680Y-105243423D01*
X132463884Y-105144678D01*
X132388173Y-104957442D01*
X132342375Y-104757266D01*
X132326665Y-104547414D01*
X132341216Y-104331149D01*
X132386204Y-104111737D01*
X132405195Y-104047267D01*
X132455854Y-103906134D01*
X132515984Y-103780302D01*
X132593904Y-103652575D01*
X132602028Y-103640466D01*
X132733536Y-103473656D01*
X132890847Y-103321395D01*
X133067835Y-103188070D01*
X133258375Y-103078066D01*
X133456341Y-102995768D01*
X133536267Y-102971581D01*
X133678410Y-102943079D01*
X133839164Y-102927053D01*
X134005510Y-102923870D01*
X134164431Y-102933899D01*
X134273037Y-102950748D01*
X134492958Y-103013382D01*
X134703407Y-103106965D01*
X134899651Y-103228914D01*
X135076961Y-103376644D01*
X135106864Y-103406141D01*
X135204148Y-103510292D01*
X135281354Y-103607569D01*
X135346732Y-103709655D01*
X135408536Y-103828233D01*
X135415887Y-103843667D01*
X135462800Y-103948934D01*
X135495245Y-104039127D01*
X135517059Y-104127667D01*
X135532079Y-104227974D01*
X135535972Y-104263717D01*
X135543281Y-104318723D01*
X135551459Y-104355187D01*
X135558824Y-104365775D01*
X135559299Y-104365317D01*
X135566643Y-104343361D01*
X135576444Y-104296276D01*
X135587033Y-104232549D01*
X135591427Y-104202035D01*
X135631555Y-104014864D01*
X135699937Y-103837534D01*
X135798215Y-103666875D01*
X135928032Y-103499717D01*
X135990530Y-103431692D01*
X136168098Y-103269737D01*
X136361375Y-103137235D01*
X136569011Y-103034945D01*
X136789654Y-102963624D01*
X136846564Y-102950748D01*
X136988892Y-102930573D01*
X137148591Y-102923502D01*
X137312801Y-102929179D01*
G36*
X137312801Y-102929179D02*
G01*
X137468660Y-102947248D01*
X137581272Y-102971079D01*
X137797033Y-103046438D01*
X137998684Y-103150974D01*
X138183629Y-103282012D01*
X138349275Y-103436880D01*
X138493028Y-103612907D01*
X138612294Y-103807418D01*
X138704477Y-104017741D01*
X138752758Y-104178007D01*
X138767963Y-104260908D01*
X138779217Y-104364245D01*
X138786190Y-104478049D01*
X138788556Y-104592347D01*
X138785985Y-104697170D01*
X138778151Y-104782547D01*
X138773503Y-104808867D01*
X138751734Y-104910467D01*
X137229457Y-104910467D01*
X136957662Y-104543117D01*
X136885417Y-104445621D01*
X136819618Y-104357109D01*
X136762991Y-104281222D01*
X136718259Y-104221604D01*
X136688148Y-104181897D01*
X136675383Y-104165743D01*
X136675338Y-104165699D01*
X136664906Y-104177771D01*
X136639114Y-104216285D01*
X136599683Y-104278439D01*
X136548331Y-104361430D01*
X136486779Y-104462458D01*
X136416746Y-104578719D01*
X136339952Y-104707411D01*
X136260472Y-104841735D01*
X136178705Y-104980187D01*
X136102116Y-105109308D01*
X136032421Y-105226240D01*
X135971339Y-105328131D01*
X135920586Y-105412124D01*
X135881880Y-105475364D01*
X135856939Y-105514998D01*
X135847533Y-105528186D01*
X135836996Y-105514240D01*
X135812623Y-105475141D01*
X135777045Y-105415328D01*
X135732897Y-105339238D01*
X135682811Y-105251311D01*
X135673485Y-105234777D01*
X135621529Y-105142951D01*
X135574130Y-105059971D01*
X135534192Y-104990858D01*
X135504618Y-104940631D01*
X135488313Y-104914312D01*
X135487352Y-104912954D01*
X135479123Y-104907960D01*
X135467262Y-104914002D01*
X135449899Y-104933969D01*
X135425166Y-104970749D01*
X135391194Y-105027234D01*
X135346113Y-105106312D01*
X135288054Y-105210873D01*
X135250799Y-105278676D01*
X135192526Y-105384829D01*
X135139103Y-105481863D01*
X135092837Y-105565612D01*
X135056033Y-105631911D01*
X135030997Y-105676594D01*
X135020241Y-105695184D01*
X135010452Y-105686874D01*
X134989666Y-105648374D01*
X134957764Y-105579411D01*
X134914627Y-105479715D01*
X134860138Y-105349011D01*
X134794178Y-105187029D01*
X134728109Y-105022302D01*
X134670259Y-104877728D01*
X134616119Y-104743329D01*
X134566993Y-104622272D01*
X134524184Y-104517730D01*
X134488995Y-104432871D01*
X134462730Y-104370865D01*
X134446691Y-104334883D01*
X134442201Y-104326868D01*
X134433890Y-104341927D01*
X134413723Y-104384837D01*
X134383158Y-104452310D01*
X134343657Y-104541060D01*
X134296678Y-104647799D01*
X134243682Y-104769238D01*
X134186127Y-104902092D01*
X134164008Y-104953393D01*
X133894281Y-105579752D01*
X133849464Y-105503013D01*
X133817164Y-105444671D01*
X133780264Y-105373641D01*
X133755123Y-105322633D01*
X133705600Y-105218991D01*
X132513680Y-105243423D01*
X132463884Y-105144678D01*
X132388173Y-104957442D01*
X132342375Y-104757266D01*
X132326665Y-104547414D01*
X132341216Y-104331149D01*
X132386204Y-104111737D01*
X132405195Y-104047267D01*
X132455854Y-103906134D01*
X132515984Y-103780302D01*
X132593904Y-103652575D01*
X132602028Y-103640466D01*
X132733536Y-103473656D01*
X132890847Y-103321395D01*
X133067835Y-103188070D01*
X133258375Y-103078066D01*
X133456341Y-102995768D01*
X133536267Y-102971581D01*
X133678410Y-102943079D01*
X133839164Y-102927053D01*
X134005510Y-102923870D01*
X134164431Y-102933899D01*
X134273037Y-102950748D01*
X134492958Y-103013382D01*
X134703407Y-103106965D01*
X134899651Y-103228914D01*
X135076961Y-103376644D01*
X135106864Y-103406141D01*
X135204148Y-103510292D01*
X135281354Y-103607569D01*
X135346732Y-103709655D01*
X135408536Y-103828233D01*
X135415887Y-103843667D01*
X135462800Y-103948934D01*
X135495245Y-104039127D01*
X135517059Y-104127667D01*
X135532079Y-104227974D01*
X135535972Y-104263717D01*
X135543281Y-104318723D01*
X135551459Y-104355187D01*
X135558824Y-104365775D01*
X135559299Y-104365317D01*
X135566643Y-104343361D01*
X135576444Y-104296276D01*
X135587033Y-104232549D01*
X135591427Y-104202035D01*
X135631555Y-104014864D01*
X135699937Y-103837534D01*
X135798215Y-103666875D01*
X135928032Y-103499717D01*
X135990530Y-103431692D01*
X136168098Y-103269737D01*
X136361375Y-103137235D01*
X136569011Y-103034945D01*
X136789654Y-102963624D01*
X136846564Y-102950748D01*
X136988892Y-102930573D01*
X137148591Y-102923502D01*
X137312801Y-102929179D01*
G37*
D14*
%TO.C,C22*%
X150741748Y-120423000D02*
X151264252Y-120423000D01*
X150741748Y-121893000D02*
X151264252Y-121893000D01*
%TO.C,U4*%
X188250000Y-116694000D02*
X182240000Y-116694000D01*
X186000000Y-109874000D02*
X182240000Y-109874000D01*
X182240000Y-116694000D02*
X182240000Y-115434000D01*
X182240000Y-109874000D02*
X182240000Y-111134000D01*
%TO.C,R13*%
X162087500Y-118490742D02*
X162087500Y-118965258D01*
X161042500Y-118490742D02*
X161042500Y-118965258D01*
%TO.C,R8*%
X119648500Y-104918742D02*
X119648500Y-105393258D01*
X118603500Y-104918742D02*
X118603500Y-105393258D01*
%TO.C,D5*%
X202676000Y-119202000D02*
X200676000Y-119202000D01*
X202676000Y-119202000D02*
X202676000Y-123062000D01*
X200676000Y-119202000D02*
X200676000Y-123062000D01*
%TO.C,C5*%
X183380748Y-90959000D02*
X183903252Y-90959000D01*
X183380748Y-92429000D02*
X183903252Y-92429000D01*
%TO.C,C10*%
X169867252Y-103859000D02*
X169344748Y-103859000D01*
X169867252Y-102389000D02*
X169344748Y-102389000D01*
%TO.C,C6*%
X168380752Y-100894000D02*
X167858248Y-100894000D01*
X168380752Y-99424000D02*
X167858248Y-99424000D01*
%TO.C,C27*%
X186951252Y-106145000D02*
X186428748Y-106145000D01*
X186951252Y-104675000D02*
X186428748Y-104675000D01*
%TO.C,FB1*%
X192505000Y-106302748D02*
X192505000Y-106825252D01*
X191035000Y-106302748D02*
X191035000Y-106825252D01*
%TO.C,R5*%
X185944742Y-118222500D02*
X186419258Y-118222500D01*
X185944742Y-119267500D02*
X186419258Y-119267500D01*
%TO.C,C11*%
X180144748Y-80545000D02*
X180667252Y-80545000D01*
X180144748Y-82015000D02*
X180667252Y-82015000D01*
%TO.C,C15*%
X192505000Y-110813749D02*
X192505000Y-111336253D01*
X191035000Y-110813749D02*
X191035000Y-111336253D01*
%TO.C,C12*%
X200398748Y-114835000D02*
X200921252Y-114835000D01*
X200398748Y-116305000D02*
X200921252Y-116305000D01*
%TO.C,U1*%
X173399500Y-92993000D02*
X173399500Y-93443000D01*
X173399500Y-93443000D02*
X172109500Y-93443000D01*
X173399500Y-100213000D02*
X173399500Y-99763000D01*
X173849500Y-92993000D02*
X173399500Y-92993000D01*
X173849500Y-100213000D02*
X173399500Y-100213000D01*
X180169500Y-92993000D02*
X180619500Y-92993000D01*
X180169500Y-100213000D02*
X180619500Y-100213000D01*
X180619500Y-92993000D02*
X180619500Y-93443000D01*
X180619500Y-100213000D02*
X180619500Y-99763000D01*
%TO.C,R6*%
X123968742Y-99299500D02*
X124443258Y-99299500D01*
X123968742Y-100344500D02*
X124443258Y-100344500D01*
%TO.C,C3*%
X152392748Y-102135000D02*
X152915252Y-102135000D01*
X152392748Y-103605000D02*
X152915252Y-103605000D01*
%TO.C,C16*%
X186951252Y-108685000D02*
X186428748Y-108685000D01*
X186951252Y-107215000D02*
X186428748Y-107215000D01*
%TO.C,HSE1*%
X169769500Y-94667000D02*
X166469500Y-94667000D01*
X166469500Y-94667000D02*
X166469500Y-98667000D01*
%TO.C,D4*%
X184497000Y-119690000D02*
X184497000Y-121610000D01*
X184497000Y-121610000D02*
X187182000Y-121610000D01*
X187182000Y-119690000D02*
X184497000Y-119690000D01*
%TO.C,D3*%
X201964000Y-108159000D02*
X201964000Y-106239000D01*
X201964000Y-106239000D02*
X199279000Y-106239000D01*
X199279000Y-108159000D02*
X201964000Y-108159000D01*
%TO.C,C13*%
X202411000Y-110747748D02*
X202411000Y-111270252D01*
X200941000Y-110747748D02*
X200941000Y-111270252D01*
%TO.C,C1*%
X175186748Y-86209000D02*
X175709252Y-86209000D01*
X175186748Y-87679000D02*
X175709252Y-87679000D01*
D13*
%TO.C,SW3*%
X163830000Y-118872000D02*
X162814000Y-118872000D01*
X164846000Y-118110000D02*
X165862000Y-118110000D01*
X165862000Y-118110000D02*
X166370000Y-118110000D01*
X166370000Y-118110000D02*
X167640000Y-117348000D01*
X169418000Y-118110000D02*
X167894000Y-118110000D01*
X164132000Y-116634000D02*
X170132000Y-116634000D01*
X170132000Y-116634000D02*
X170132000Y-119634000D01*
X170132000Y-119634000D02*
X164132000Y-119634000D01*
X164132000Y-119634000D02*
X164132000Y-116634000D01*
D14*
%TO.C,C23*%
X164076748Y-120660000D02*
X164599252Y-120660000D01*
X164076748Y-122130000D02*
X164599252Y-122130000D01*
%TO.C,C8*%
X179810752Y-104450000D02*
X179288248Y-104450000D01*
X179810752Y-102980000D02*
X179288248Y-102980000D01*
%TO.C,FB2*%
X195553000Y-106302748D02*
X195553000Y-106825252D01*
X194083000Y-106302748D02*
X194083000Y-106825252D01*
%TO.C,J2*%
X181482000Y-76902000D02*
X181482000Y-78232000D01*
X180152000Y-76902000D02*
X181482000Y-76902000D01*
X178882000Y-76902000D02*
X171202000Y-76902000D01*
X178882000Y-76902000D02*
X178882000Y-79562000D01*
X171202000Y-76902000D02*
X171202000Y-79562000D01*
X178882000Y-79562000D02*
X171202000Y-79562000D01*
%TO.C,C21*%
X200249746Y-95075499D02*
X200772250Y-95075499D01*
X200249746Y-96545499D02*
X200772250Y-96545499D01*
%TO.C,R7*%
X128763500Y-104631258D02*
X128763500Y-104156742D01*
X129808500Y-104631258D02*
X129808500Y-104156742D01*
%TO.C,C17*%
X183868999Y-119372748D02*
X183868999Y-119895252D01*
X182398999Y-119372748D02*
X182398999Y-119895252D01*
%TO.C,C18*%
X181583000Y-119372748D02*
X181583000Y-119895252D01*
X180113000Y-119372748D02*
X180113000Y-119895252D01*
%TO.C,R3*%
X197731498Y-87699242D02*
X197731498Y-88173758D01*
X196686498Y-87699242D02*
X196686498Y-88173758D01*
%TO.C,R4*%
X196835500Y-107563258D02*
X196835500Y-107088742D01*
X197880500Y-107563258D02*
X197880500Y-107088742D01*
%TO.C,C28*%
X200398748Y-116878000D02*
X200921252Y-116878000D01*
X200398748Y-118348000D02*
X200921252Y-118348000D01*
%TO.C,C2*%
X175186748Y-88673000D02*
X175709252Y-88673000D01*
X175186748Y-90143000D02*
X175709252Y-90143000D01*
D13*
%TO.C,BZ1*%
X132310000Y-113356000D02*
G75*
G03*
X129310000Y-113356000I-1500000J-4500000D01*
G01*
X135810000Y-117856000D02*
G75*
G03*
X135810000Y-117856000I-5000000J0D01*
G01*
D14*
%TO.C,R11*%
X164260258Y-81675500D02*
X163785742Y-81675500D01*
X164260258Y-80630500D02*
X163785742Y-80630500D01*
%TO.C,D2*%
X196462999Y-95480500D02*
X198462999Y-95480500D01*
X196462999Y-95480500D02*
X196462999Y-91620500D01*
X198462999Y-95480500D02*
X198462999Y-91620500D01*
%TO.C,R10*%
X141717500Y-117585258D02*
X141717500Y-117110742D01*
X142762500Y-117585258D02*
X142762500Y-117110742D01*
D13*
%TO.C,SW2*%
X150495000Y-118872000D02*
X149479000Y-118872000D01*
X151511000Y-118110000D02*
X152527000Y-118110000D01*
X152527000Y-118110000D02*
X153035000Y-118110000D01*
X153035000Y-118110000D02*
X154305000Y-117348000D01*
X156083000Y-118110000D02*
X154559000Y-118110000D01*
X150797000Y-116634000D02*
X156797000Y-116634000D01*
X156797000Y-116634000D02*
X156797000Y-119634000D01*
X156797000Y-119634000D02*
X150797000Y-119634000D01*
X150797000Y-119634000D02*
X150797000Y-116634000D01*
D14*
%TO.C,J4*%
X160979000Y-79690001D02*
X160979000Y-78360001D01*
X162309000Y-79690001D02*
X160979000Y-79690001D01*
X163579000Y-79690001D02*
X168719000Y-79690001D01*
X163579000Y-79690001D02*
X163579000Y-77030001D01*
X168719000Y-79690001D02*
X168719000Y-77030001D01*
X163579000Y-77030001D02*
X168719000Y-77030001D01*
%TO.C,C7*%
X170715000Y-89669252D02*
X170715000Y-89146748D01*
X172185000Y-89669252D02*
X172185000Y-89146748D01*
%TO.C,C9*%
X169867252Y-106399000D02*
X169344748Y-106399000D01*
X169867252Y-104929000D02*
X169344748Y-104929000D01*
%TO.C,C19*%
X126973000Y-108008748D02*
X126973000Y-108531252D01*
X125503000Y-108008748D02*
X125503000Y-108531252D01*
D13*
%TO.C,U5*%
X201504000Y-146652000D02*
X201504000Y-144652000D01*
X201504000Y-144652000D02*
X201504000Y-144152000D01*
X199004000Y-146652000D02*
X201504000Y-146652000D01*
X202004000Y-147152000D02*
X116004000Y-147152000D01*
X116004000Y-147152000D02*
X116004000Y-126152000D01*
X116004000Y-126152000D02*
X202004000Y-126152000D01*
X202004000Y-126152000D02*
X202004000Y-147152000D01*
X192504000Y-136652000D02*
G75*
G03*
X192504000Y-136652000I-3000000J0D01*
G01*
X131504000Y-136652000D02*
G75*
G03*
X131504000Y-136652000I-3000000J0D01*
G01*
D14*
%TO.C,J3*%
X188408000Y-79562000D02*
X188408000Y-78232000D01*
X189738000Y-79562000D02*
X188408000Y-79562000D01*
X191008000Y-79562000D02*
X198688000Y-79562000D01*
X191008000Y-79562000D02*
X191008000Y-76902000D01*
X198688000Y-79562000D02*
X198688000Y-76902000D01*
X191008000Y-76902000D02*
X198688000Y-76902000D01*
D16*
%TO.C,U2*%
X120420222Y-102136173D02*
X120420222Y-105692173D01*
X126262222Y-105692173D02*
X126262222Y-102136173D01*
X125817422Y-101837773D02*
G75*
G03*
X125817422Y-101837773I-76200J0D01*
G01*
D14*
%TO.C,J5*%
X154372000Y-82744000D02*
X155702000Y-82744000D01*
X154372000Y-84074000D02*
X154372000Y-82744000D01*
X154372000Y-85344000D02*
X154372000Y-93024000D01*
X154372000Y-85344000D02*
X157032000Y-85344000D01*
X154372000Y-93024000D02*
X157032000Y-93024000D01*
X157032000Y-85344000D02*
X157032000Y-93024000D01*
%TO.C,D1*%
X165698500Y-87620000D02*
X167618500Y-87620000D01*
X167618500Y-87620000D02*
X167618500Y-84935000D01*
X165698500Y-84935000D02*
X165698500Y-87620000D01*
%TO.C,R9*%
X198896500Y-121682742D02*
X198896500Y-122157258D01*
X197851500Y-121682742D02*
X197851500Y-122157258D01*
D13*
%TO.C,SW1*%
X152400000Y-100584000D02*
X151384000Y-100584000D01*
X153416000Y-99822000D02*
X154432000Y-99822000D01*
X154432000Y-99822000D02*
X154940000Y-99822000D01*
X154940000Y-99822000D02*
X156210000Y-99060000D01*
X157988000Y-99822000D02*
X156464000Y-99822000D01*
X152702000Y-98346000D02*
X158702000Y-98346000D01*
X158702000Y-98346000D02*
X158702000Y-101346000D01*
X158702000Y-101346000D02*
X152702000Y-101346000D01*
X152702000Y-101346000D02*
X152702000Y-98346000D01*
D14*
%TO.C,R12*%
X148731500Y-118380742D02*
X148731500Y-118855258D01*
X147686500Y-118380742D02*
X147686500Y-118855258D01*
%TO.C,Q1*%
X138938000Y-118908000D02*
X140613000Y-118908000D01*
X138938000Y-118908000D02*
X138288000Y-118908000D01*
X138938000Y-115788000D02*
X139588000Y-115788000D01*
X138938000Y-115788000D02*
X138288000Y-115788000D01*
%TO.C,C20*%
X124687002Y-108008747D02*
X124687002Y-108531251D01*
X123217002Y-108008747D02*
X123217002Y-108531251D01*
%TO.C,C4*%
X167858248Y-92312000D02*
X168380752Y-92312000D01*
X167858248Y-93782000D02*
X168380752Y-93782000D01*
%TO.C,U3*%
X196814000Y-111384500D02*
X196814000Y-113184500D01*
X196814000Y-111384500D02*
X196814000Y-110584500D01*
X199934000Y-111384500D02*
X199934000Y-112184500D01*
X199934000Y-111384500D02*
X199934000Y-110584500D01*
%TO.C,C14*%
X195680000Y-110808748D02*
X195680000Y-111331252D01*
X194210000Y-110808748D02*
X194210000Y-111331252D01*
%TO.C,R1*%
X149337500Y-100567258D02*
X149337500Y-100092742D01*
X150382500Y-100567258D02*
X150382500Y-100092742D01*
%TO.C,D6*%
X193564000Y-123633000D02*
X195564000Y-123633000D01*
X193564000Y-123633000D02*
X193564000Y-119773000D01*
X195564000Y-123633000D02*
X195564000Y-119773000D01*
%TO.C,J1*%
X199817000Y-93524500D02*
X199817000Y-93144500D01*
X201587000Y-93524500D02*
X199817000Y-93524500D01*
X204127000Y-93524500D02*
X203867000Y-93524500D01*
X199817000Y-85904500D02*
X199817000Y-86284500D01*
X199817000Y-85904500D02*
X201587000Y-85904500D01*
X203867000Y-85904500D02*
X204127000Y-85904500D01*
%TD*%
M02*
