G04*
G04 #@! TF.GenerationSoftware,Altium Limited,Altium Designer,21.3.2 (30)*
G04*
G04 Layer_Color=128*
%FSTAX24Y24*%
%MOIN*%
G70*
G04*
G04 #@! TF.SameCoordinates,0DAA6520-49A2-4E49-A6F4-E70CAC7CC759*
G04*
G04*
G04 #@! TF.FilePolarity,Positive*
G04*
G01*
G75*
%ADD62C,0.0020*%
D62*
X022783Y0289D02*
X023217D01*
X023Y028683D02*
Y029117D01*
X022783Y0299D02*
X023217D01*
X023Y029683D02*
Y030117D01*
X022783Y0309D02*
X023217D01*
X023Y030683D02*
Y031117D01*
X022783Y0319D02*
X023217D01*
X023Y031683D02*
Y032117D01*
X04555Y00895D02*
X04585D01*
X0457Y0088D02*
Y0091D01*
X014566Y00895D02*
X014866D01*
X014716Y0088D02*
Y0091D01*
X029483Y0314D02*
X029917D01*
X0297Y031183D02*
Y031617D01*
X028483Y0314D02*
X028917D01*
X0287Y031183D02*
Y031617D01*
X027483Y0314D02*
X027917D01*
X0277Y031183D02*
Y031617D01*
X020993Y015705D02*
X021307D01*
X02115Y015548D02*
Y015862D01*
X017993Y0157D02*
X018307D01*
X01815Y015543D02*
Y015857D01*
X043883Y02285D02*
X044317D01*
X0441Y022633D02*
Y023067D01*
X043883Y02185D02*
X044317D01*
X0441Y021633D02*
Y022067D01*
X043883Y02085D02*
X044317D01*
X0441Y020633D02*
Y021067D01*
X043883Y01985D02*
X044317D01*
X0441Y019633D02*
Y020067D01*
X035933Y03125D02*
X036367D01*
X03615Y031033D02*
Y031467D01*
X036933Y03125D02*
X037367D01*
X03715Y031033D02*
Y031467D01*
X037933Y03125D02*
X038367D01*
X03815Y031033D02*
Y031467D01*
X038933Y03125D02*
X039367D01*
X03915Y031033D02*
Y031467D01*
X020312Y0212D02*
X020588D01*
X02045Y021062D02*
Y021338D01*
X038612Y02575D02*
X038888D01*
X03875Y025612D02*
Y025888D01*
X037512Y02575D02*
X037788D01*
X03765Y025612D02*
Y025888D01*
X042412Y02745D02*
X042688D01*
X04255Y027312D02*
Y027588D01*
X042412Y0253D02*
X042688D01*
X04255Y025162D02*
Y025438D01*
X023912Y02015D02*
X024188D01*
X02405Y020012D02*
Y020288D01*
X039562Y0176D02*
X039838D01*
X0397Y017462D02*
Y017738D01*
X027662Y01625D02*
X027938D01*
X0278Y016112D02*
Y016388D01*
X028612Y018D02*
X028888D01*
X02875Y017862D02*
Y018138D01*
X033571Y02555D02*
X033729D01*
X03365Y025471D02*
Y025629D01*
X037412Y0178D02*
X037688D01*
X03755Y017662D02*
Y017938D01*
X035268Y017356D02*
X035543D01*
X035406Y017218D02*
Y017493D01*
X034962Y01935D02*
X035238D01*
X0351Y019212D02*
Y019488D01*
X035262Y0142D02*
X035538D01*
X0354Y014062D02*
Y014338D01*
X042412Y0286D02*
X042688D01*
X04255Y028462D02*
Y028738D01*
X039312Y0286D02*
X039588D01*
X03945Y028462D02*
Y028738D01*
X038512Y02945D02*
X038788D01*
X03865Y029312D02*
Y029588D01*
X034371Y0309D02*
X034529D01*
X03445Y030821D02*
Y030979D01*
X034371Y02915D02*
X034529D01*
X03445Y029071D02*
Y029229D01*
X032721Y02805D02*
X032879D01*
X0328Y027971D02*
Y028129D01*
X033671Y02645D02*
X033829D01*
X03375Y026371D02*
Y026529D01*
X033062Y02735D02*
X033338D01*
X0332Y027212D02*
Y027488D01*
X033162Y0284D02*
X033438D01*
X0333Y028262D02*
Y028538D01*
X033162Y03D02*
X033438D01*
X0333Y029862D02*
Y030138D01*
X017412Y0204D02*
X017688D01*
X01755Y020262D02*
Y020538D01*
X031062Y01495D02*
X031338D01*
X0312Y014812D02*
Y015088D01*
X027762Y0153D02*
X028038D01*
X0279Y015162D02*
Y015438D01*
X036412Y01875D02*
X036688D01*
X03655Y018612D02*
Y018888D01*
X031112Y01875D02*
X031388D01*
X03125Y018612D02*
Y018888D01*
X031362Y01645D02*
X031638D01*
X0315Y016312D02*
Y016588D01*
X019012Y02035D02*
X019288D01*
X01915Y020212D02*
Y020488D01*
X031521Y0226D02*
X031679D01*
X0316Y022521D02*
Y022679D01*
X031271Y0255D02*
X031429D01*
X03135Y025421D02*
Y025579D01*
X038612Y02265D02*
X038888D01*
X03875Y022512D02*
Y022788D01*
X032862Y01935D02*
X033138D01*
X033Y019212D02*
Y019488D01*
X026662Y0233D02*
X026938D01*
X0268Y023162D02*
Y023438D01*
X026662Y0218D02*
X026938D01*
X0268Y021662D02*
Y021938D01*
X025062Y0212D02*
X025338D01*
X0252Y021062D02*
Y021338D01*
X029821Y02165D02*
X029979D01*
X0299Y021571D02*
Y021729D01*
X029271Y02475D02*
X029429D01*
X02935Y024671D02*
Y024829D01*
X029271Y02105D02*
X029429D01*
X02935Y020971D02*
Y021129D01*
X021462Y02575D02*
X021738D01*
X0216Y025612D02*
Y025888D01*
X022912Y02575D02*
X023188D01*
X02305Y025612D02*
Y025888D01*
X039562Y0146D02*
X039838D01*
X0397Y014462D02*
Y014738D01*
X040462Y02205D02*
X040738D01*
X0406Y021912D02*
Y022188D01*
M02*
