G04*
G04 #@! TF.GenerationSoftware,Altium Limited,Altium Designer,21.3.2 (30)*
G04*
G04 Layer_Physical_Order=1*
G04 Layer_Color=255*
%FSTAX24Y24*%
%MOIN*%
G70*
G04*
G04 #@! TF.SameCoordinates,0DAA6520-49A2-4E49-A6F4-E70CAC7CC759*
G04*
G04*
G04 #@! TF.FilePolarity,Positive*
G04*
G01*
G75*
%ADD14C,0.0200*%
%ADD16C,0.0079*%
%ADD25R,0.0374X0.0394*%
%ADD26R,0.0394X0.0374*%
%ADD27R,0.0315X0.0472*%
%ADD28R,0.0500X0.0550*%
%ADD29O,0.0118X0.0571*%
%ADD30R,0.0472X0.0335*%
%ADD31O,0.0571X0.0118*%
%ADD32R,0.0669X0.0984*%
%ADD33R,0.0700X0.0100*%
%ADD34R,0.0748X0.0748*%
%ADD35R,0.0244X0.0480*%
%ADD36R,0.1000X0.0700*%
G04:AMPARAMS|DCode=37|XSize=33.1mil|YSize=15.7mil|CornerRadius=3.9mil|HoleSize=0mil|Usage=FLASHONLY|Rotation=270.000|XOffset=0mil|YOffset=0mil|HoleType=Round|Shape=RoundedRectangle|*
%AMROUNDEDRECTD37*
21,1,0.0331,0.0079,0,0,270.0*
21,1,0.0252,0.0157,0,0,270.0*
1,1,0.0079,-0.0039,-0.0126*
1,1,0.0079,-0.0039,0.0126*
1,1,0.0079,0.0039,0.0126*
1,1,0.0079,0.0039,-0.0126*
%
%ADD37ROUNDEDRECTD37*%
%ADD38R,0.0472X0.0551*%
%ADD39R,0.0472X0.0315*%
%ADD40R,0.0945X0.0394*%
%ADD41R,0.0945X0.1299*%
%ADD45C,0.0433*%
%ADD48C,0.0276*%
%ADD50C,0.0276*%
%ADD51C,0.0118*%
%ADD52C,0.0394*%
%ADD53C,0.0630*%
%ADD54R,0.0630X0.0630*%
%ADD55R,0.2874X0.2520*%
%ADD56R,0.0630X0.0630*%
%ADD57C,0.0591*%
%ADD58R,0.0591X0.0591*%
G36*
X04795Y003D02*
X01175D01*
Y0344D01*
X04795D01*
Y003D01*
D02*
G37*
%LPC*%
G36*
X023415Y032315D02*
X02305D01*
Y03195D01*
X023415D01*
Y032315D01*
D02*
G37*
G36*
X02295D02*
X022585D01*
Y03195D01*
X02295D01*
Y032315D01*
D02*
G37*
G36*
X023415Y03185D02*
X02305D01*
Y031485D01*
X023415D01*
Y03185D01*
D02*
G37*
G36*
X02295D02*
X022585D01*
Y031485D01*
X02295D01*
Y03185D01*
D02*
G37*
G36*
X036565Y031665D02*
X0362D01*
Y0313D01*
X036565D01*
Y031665D01*
D02*
G37*
G36*
X0361D02*
X035735D01*
Y0313D01*
X0361D01*
Y031665D01*
D02*
G37*
G36*
X030115Y03135D02*
X02975D01*
Y030985D01*
X029755D01*
X02986Y031013D01*
X029955Y031068D01*
X030032Y031145D01*
X030087Y03124D01*
X030115Y031345D01*
Y03135D01*
D02*
G37*
G36*
X02965D02*
X029285D01*
Y031345D01*
X029313Y03124D01*
X029368Y031145D01*
X029445Y031068D01*
X02954Y031013D01*
X029645Y030985D01*
X02965D01*
Y03135D01*
D02*
G37*
G36*
X036565Y0312D02*
X0362D01*
Y030835D01*
X036565D01*
Y0312D01*
D02*
G37*
G36*
X0361D02*
X035735D01*
Y030835D01*
X0361D01*
Y0312D01*
D02*
G37*
G36*
X034229Y031254D02*
X033571D01*
Y030546D01*
X034229D01*
Y030748D01*
X034279Y030765D01*
X034327Y030716D01*
X034407Y030683D01*
X034493D01*
X034573Y030716D01*
X034634Y030777D01*
X034667Y030857D01*
Y030943D01*
X034634Y031023D01*
X034573Y031084D01*
X034493Y031117D01*
X034407D01*
X034327Y031084D01*
X034279Y031035D01*
X034229Y031052D01*
Y031254D01*
D02*
G37*
G36*
X03335Y030314D02*
Y03005D01*
X033614D01*
X033595Y030122D01*
X033553Y030194D01*
X033494Y030253D01*
X033422Y030295D01*
X03335Y030314D01*
D02*
G37*
G36*
X03325D02*
X033178Y030295D01*
X033106Y030253D01*
X033047Y030194D01*
X033005Y030122D01*
X032986Y03005D01*
X03325D01*
Y030314D01*
D02*
G37*
G36*
X023052Y030294D02*
X022948D01*
X022848Y030267D01*
X022758Y030215D01*
X022685Y030142D01*
X022633Y030052D01*
X022611Y02997D01*
X02145D01*
X02145Y02997D01*
X021404Y029961D01*
X021365Y029935D01*
X020265Y028835D01*
X020239Y028796D01*
X02023Y02875D01*
X02023Y02875D01*
Y026016D01*
X020074D01*
Y025484D01*
X02021D01*
Y024784D01*
X020205Y024782D01*
X020203Y024777D01*
X020142D01*
X020139Y024782D01*
X0201Y024808D01*
X020054Y024817D01*
X019976D01*
X01993Y024808D01*
X01989Y024782D01*
X01985D01*
X01984Y024797D01*
X019794Y024828D01*
X01975Y024836D01*
Y02457D01*
Y024304D01*
X019794Y024313D01*
X01984Y024344D01*
X019845Y024351D01*
X019895Y024336D01*
Y024285D01*
X019895Y024285D01*
X019904Y024239D01*
X01993Y0242D01*
X020015Y024115D01*
X020015Y024115D01*
X020054Y024089D01*
X0201Y02408D01*
X02095D01*
X02095Y02408D01*
X020996Y024089D01*
X021035Y024115D01*
X0212Y02428D01*
X021434D01*
Y024135D01*
X021434Y024124D01*
Y024085D01*
X021434Y024074D01*
Y023534D01*
X021518D01*
Y023475D01*
X020966Y022924D01*
X020927Y022865D01*
X020913Y022795D01*
X020913Y022795D01*
Y022316D01*
X02082D01*
Y022316D01*
X02078D01*
Y022316D01*
X020625D01*
Y022645D01*
X020625Y022645D01*
X020616Y022691D01*
X02059Y02273D01*
X02059Y02273D01*
X02045Y02287D01*
Y023416D01*
X020454Y023418D01*
X020457Y023423D01*
X020517D01*
X02052Y023418D01*
X020559Y023392D01*
X020606Y023383D01*
X020684D01*
X02073Y023392D01*
X020769Y023418D01*
X020796Y023457D01*
X020805Y023504D01*
Y023756D01*
X020796Y023802D01*
X020769Y023841D01*
X02073Y023867D01*
X020684Y023876D01*
X020606D01*
X020559Y023867D01*
X02052Y023841D01*
X020517Y023836D01*
X020457D01*
X020454Y023841D01*
X020415Y023867D01*
X020369Y023876D01*
X020291D01*
X020244Y023867D01*
X020205Y023841D01*
X020165D01*
X020155Y023856D01*
X020109Y023887D01*
X020065Y023895D01*
Y02363D01*
Y023364D01*
X020109Y023372D01*
X020155Y023403D01*
X020159Y02341D01*
X02021Y023395D01*
Y02282D01*
X02021Y02282D01*
X020219Y022774D01*
X020245Y022735D01*
X020384Y022595D01*
Y022316D01*
X020229D01*
Y021784D01*
X02078D01*
Y021784D01*
X02082D01*
Y021784D01*
X020875D01*
Y020737D01*
X020059Y019921D01*
X018371D01*
Y020942D01*
X01843D01*
Y021473D01*
X018371D01*
Y021842D01*
X018421D01*
Y022184D01*
X018877Y02264D01*
X018887Y022639D01*
X018926Y022582D01*
X018922Y022564D01*
X018922Y022564D01*
Y022316D01*
X018829D01*
Y021784D01*
X018925D01*
Y021466D01*
X018834D01*
Y020934D01*
X018909D01*
Y020523D01*
X018875Y020464D01*
X018855Y020389D01*
Y020311D01*
X018875Y020236D01*
X018914Y020169D01*
X018969Y020114D01*
X019036Y020075D01*
X019111Y020055D01*
X019189D01*
X019264Y020075D01*
X019331Y020114D01*
X019386Y020169D01*
X019425Y020236D01*
X019445Y020311D01*
Y020389D01*
X019425Y020464D01*
X019386Y020531D01*
X019351Y020567D01*
Y020884D01*
X019401Y020914D01*
X019403Y020913D01*
X019426Y020913D01*
X01965D01*
Y0212D01*
Y021487D01*
X019403Y021487D01*
X019362Y021466D01*
X019325Y021466D01*
X019289Y021501D01*
Y021749D01*
X019325Y021784D01*
X019357Y021784D01*
X019398Y021763D01*
X019422Y021763D01*
X019645D01*
Y02205D01*
Y022337D01*
X019398Y022337D01*
X019357Y022316D01*
X019322Y022316D01*
X019287Y022351D01*
Y022488D01*
X019829Y02303D01*
X019829Y02303D01*
X019868Y023089D01*
X019882Y023159D01*
Y023343D01*
X019932Y02337D01*
X019965Y023364D01*
Y02363D01*
Y023895D01*
X019921Y023887D01*
X019875Y023856D01*
X019865Y023841D01*
X019825D01*
X019785Y023867D01*
X019739Y023876D01*
X019661D01*
X019615Y023867D01*
X019575Y023841D01*
X019573Y023836D01*
X019512D01*
X01951Y023841D01*
X01947Y023867D01*
X019424Y023876D01*
X019346D01*
X0193Y023867D01*
X019261Y023841D01*
X019258Y023836D01*
X019197D01*
X019195Y023841D01*
X019156Y023867D01*
X019109Y023876D01*
X019031D01*
X018985Y023867D01*
X018946Y023841D01*
X018943Y023836D01*
X018883D01*
X01888Y023841D01*
X018841Y023867D01*
X018794Y023876D01*
X018716D01*
X01867Y023867D01*
X018631Y023841D01*
X018604Y023802D01*
X018595Y023756D01*
Y023504D01*
X018604Y023457D01*
X018631Y023418D01*
X01867Y023392D01*
X018716Y023383D01*
X018794D01*
X018841Y023392D01*
X01888Y023418D01*
X01893Y023403D01*
Y02309D01*
X018212Y022373D01*
X017893Y022373D01*
X017852Y022394D01*
X017828Y022394D01*
X017605D01*
Y022107D01*
Y02182D01*
X017852Y02182D01*
X017879Y021835D01*
X017917Y021818D01*
X017929Y021806D01*
Y021513D01*
X017879Y021485D01*
X017861Y021494D01*
X017838Y021494D01*
X017614D01*
Y021207D01*
Y02092D01*
X017861Y02092D01*
X017879Y02093D01*
X017929Y020902D01*
Y0197D01*
Y016074D01*
X017776D01*
Y015326D01*
X018524D01*
Y016074D01*
X018371D01*
Y019479D01*
X02015D01*
X020234Y019496D01*
X020306Y019544D01*
X021251Y020489D01*
X021299Y020561D01*
X021316Y020645D01*
Y021784D01*
X021371D01*
Y022316D01*
X021278D01*
Y02272D01*
X021829Y023271D01*
X021829Y023271D01*
X021868Y02333D01*
X021882Y0234D01*
X021882Y0234D01*
Y023534D01*
X021966D01*
Y024074D01*
X021966Y024085D01*
Y024124D01*
X021966Y024135D01*
Y02428D01*
X02215D01*
X02215Y02428D01*
X022196Y024289D01*
X022235Y024315D01*
X022435Y024515D01*
X022435Y024515D01*
X022461Y024554D01*
X02247Y0246D01*
X02247Y0246D01*
Y0282D01*
X02282Y028549D01*
X022848Y028533D01*
X022948Y028506D01*
X023052D01*
X023152Y028533D01*
X023242Y028585D01*
X023315Y028658D01*
X023367Y028748D01*
X023394Y028848D01*
Y028952D01*
X023367Y029052D01*
X023315Y029142D01*
X023242Y029215D01*
X023152Y029267D01*
X023052Y029294D01*
X022948D01*
X022848Y029267D01*
X022758Y029215D01*
X022685Y029142D01*
X022633Y029052D01*
X022606Y028952D01*
Y028848D01*
X022633Y028748D01*
X022649Y02872D01*
X022265Y028335D01*
X022239Y028296D01*
X02223Y02825D01*
X02223Y02825D01*
Y02465D01*
X0221Y02452D01*
X021966D01*
Y024676D01*
X021434D01*
Y02452D01*
X02115D01*
X02115Y02452D01*
X021104Y024511D01*
X021065Y024485D01*
X021065Y024485D01*
X0209Y02432D01*
X020799D01*
X02079Y024332D01*
X020777Y02437D01*
X020796Y024398D01*
X020805Y024444D01*
Y024696D01*
X020796Y024743D01*
X020769Y024782D01*
X02073Y024808D01*
X020684Y024817D01*
X020606D01*
X020559Y024808D01*
X02052Y024782D01*
X020475Y0248D01*
X02045Y024824D01*
Y025484D01*
X020615D01*
X020626Y025484D01*
X020665D01*
X020676Y025484D01*
X021216D01*
Y025529D01*
X021403D01*
X021419Y025514D01*
X021486Y025475D01*
X021561Y025455D01*
X021639D01*
X021714Y025475D01*
X021781Y025514D01*
X021836Y025569D01*
X021875Y025636D01*
X021895Y025711D01*
Y025789D01*
X021875Y025864D01*
X021836Y025931D01*
X021781Y025986D01*
X021714Y026025D01*
X021639Y026045D01*
X021561D01*
X021486Y026025D01*
X021419Y025986D01*
X021403Y025971D01*
X021216D01*
Y026016D01*
X020676D01*
X020665Y026016D01*
X020626D01*
X020615Y026016D01*
X02047D01*
Y0287D01*
X0215Y02973D01*
X022644D01*
X022685Y029658D01*
X022758Y029585D01*
X022848Y029533D01*
X022948Y029506D01*
X023052D01*
X023152Y029533D01*
X023242Y029585D01*
X023315Y029658D01*
X023367Y029748D01*
X023394Y029848D01*
Y029952D01*
X023367Y030052D01*
X023315Y030142D01*
X023242Y030215D01*
X023152Y030267D01*
X023052Y030294D01*
D02*
G37*
G36*
X033614Y02995D02*
X03335D01*
Y029686D01*
X033422Y029705D01*
X033494Y029747D01*
X033553Y029806D01*
X033595Y029878D01*
X033614Y02995D01*
D02*
G37*
G36*
X03325D02*
X032986D01*
X033005Y029878D01*
X033047Y029806D01*
X033106Y029747D01*
X033178Y029705D01*
X03325Y029686D01*
Y02995D01*
D02*
G37*
G36*
X031969Y032378D02*
X0284D01*
X028328Y032369D01*
X028261Y032341D01*
X028203Y032297D01*
X027701Y031794D01*
X027306D01*
Y031678D01*
X0267D01*
X026628Y031669D01*
X026561Y031641D01*
X026503Y031597D01*
X026085Y031178D01*
X023279D01*
X023242Y031215D01*
X023152Y031267D01*
X023052Y031294D01*
X022948D01*
X022848Y031267D01*
X022758Y031215D01*
X022685Y031142D01*
X022633Y031052D01*
X022606Y030952D01*
Y030848D01*
X022633Y030748D01*
X022685Y030658D01*
X022758Y030585D01*
X022848Y030533D01*
X022948Y030506D01*
X023052D01*
X023075Y030513D01*
X023529Y030059D01*
Y026016D01*
X023484D01*
Y025966D01*
X023252D01*
X023231Y025986D01*
X023164Y026025D01*
X023089Y026045D01*
X023011D01*
X022936Y026025D01*
X022869Y025986D01*
X022814Y025931D01*
X022775Y025864D01*
X022755Y025789D01*
Y025711D01*
X022775Y025636D01*
X022814Y025569D01*
X022869Y025514D01*
X022936Y025475D01*
X023011Y025455D01*
X023089D01*
X023164Y025475D01*
X023231Y025514D01*
X023242Y025524D01*
X023482D01*
X023484Y025475D01*
X023484Y025465D01*
Y025426D01*
X023484Y025415D01*
Y024874D01*
X024016D01*
Y02503D01*
X02435D01*
X02435Y02503D01*
X024396Y025039D01*
X024435Y025065D01*
X0247Y02533D01*
X024757D01*
Y025214D01*
X025387D01*
Y02533D01*
X0259D01*
X02608Y02515D01*
Y024166D01*
X025929D01*
Y023634D01*
X026084D01*
Y023005D01*
X026084Y023005D01*
X026093Y022959D01*
X02612Y02292D01*
X026882Y022158D01*
X026856Y022113D01*
X02685Y022114D01*
Y02185D01*
X027114D01*
X027113Y021856D01*
X027158Y021882D01*
X027474Y021565D01*
X027513Y021539D01*
X027559Y02153D01*
X029716D01*
X029716Y021527D01*
X029777Y021466D01*
X029803Y021456D01*
X029793Y021406D01*
X029609D01*
Y02117D01*
X029534D01*
X029534Y021173D01*
X029473Y021234D01*
X029393Y021267D01*
X029307D01*
X029227Y021234D01*
X029166Y021173D01*
X029133Y021093D01*
Y021007D01*
X029166Y020927D01*
X029227Y020866D01*
X029307Y020833D01*
X029393D01*
X029473Y020866D01*
X029534Y020927D01*
X029534Y02093D01*
X029609D01*
Y020697D01*
X030239D01*
Y021406D01*
X030007D01*
X029997Y021456D01*
X030023Y021466D01*
X030084Y021527D01*
X030117Y021607D01*
Y021693D01*
X030084Y021773D01*
X030023Y021834D01*
X029943Y021867D01*
X029857D01*
X029777Y021834D01*
X029716Y021773D01*
X029716Y02177D01*
X027609D01*
X026325Y023055D01*
Y023634D01*
X026457Y023634D01*
X026498Y023613D01*
X026522Y023613D01*
X026609D01*
X026622Y023563D01*
X026606Y023553D01*
X026547Y023494D01*
X026505Y023422D01*
X026486Y02335D01*
X027114D01*
X027095Y023422D01*
X027053Y023494D01*
X026994Y023553D01*
X026978Y023563D01*
X026991Y023613D01*
X027092D01*
Y02385D01*
X026795D01*
Y0239D01*
X026745D01*
Y024187D01*
X026498Y024187D01*
X026457Y024166D01*
X02632Y024166D01*
Y0252D01*
X026311Y025246D01*
X026285Y025285D01*
X026285Y025285D01*
X026035Y025535D01*
X025996Y025561D01*
X02595Y02557D01*
X02595Y02557D01*
X025387D01*
Y025686D01*
X024757D01*
Y02557D01*
X02465D01*
X024604Y025561D01*
X024565Y025535D01*
X0243Y02527D01*
X024016D01*
Y025415D01*
X024016Y025426D01*
Y025465D01*
X024016Y025476D01*
Y026016D01*
X023971D01*
Y03015D01*
X023954Y030234D01*
X023906Y030306D01*
X023636Y030576D01*
X023656Y030622D01*
X0262D01*
X026272Y030631D01*
X026339Y030659D01*
X026397Y030703D01*
X026815Y031122D01*
X027306D01*
Y031006D01*
X028094D01*
Y031401D01*
X028317Y031624D01*
X028357Y031593D01*
X028333Y031552D01*
X028306Y031452D01*
Y031348D01*
X028333Y031248D01*
X028385Y031158D01*
X028458Y031085D01*
X028548Y031033D01*
X02858Y031025D01*
Y030245D01*
X02858Y030245D01*
X028589Y030199D01*
X028615Y03016D01*
X029329Y029445D01*
Y029084D01*
X02987D01*
X02988Y029084D01*
X02992D01*
X02993Y029084D01*
X030075D01*
Y027355D01*
X030075Y027355D01*
X030084Y027309D01*
X03011Y02727D01*
X03123Y02615D01*
Y025684D01*
X031227Y025684D01*
X031166Y025623D01*
X031133Y025543D01*
Y025457D01*
X031166Y025377D01*
X031227Y025316D01*
X031307Y025283D01*
X031393D01*
X031473Y025316D01*
X031534Y025377D01*
X031567Y025457D01*
Y025543D01*
X031534Y025623D01*
X031473Y025684D01*
X03147Y025684D01*
Y0262D01*
X031461Y026246D01*
X031435Y026285D01*
X031435Y026285D01*
X030316Y027405D01*
Y029084D01*
X030471D01*
Y029616D01*
X02993D01*
X02992Y029616D01*
X02988D01*
X02987Y029616D01*
X029499D01*
X02882Y030295D01*
Y031025D01*
X028852Y031033D01*
X028942Y031085D01*
X029015Y031158D01*
X029067Y031248D01*
X029094Y031348D01*
Y031452D01*
X029067Y031552D01*
X029015Y031642D01*
X028942Y031715D01*
X028852Y031767D01*
X028833Y031772D01*
X028839Y031822D01*
X029501D01*
X029514Y031772D01*
X029445Y031732D01*
X029368Y031655D01*
X029313Y03156D01*
X029285Y031455D01*
Y03145D01*
X030115D01*
Y031455D01*
X030087Y03156D01*
X030032Y031655D01*
X029955Y031732D01*
X029886Y031772D01*
X029899Y031822D01*
X031854D01*
X031922Y031754D01*
Y031254D01*
X031821D01*
Y030546D01*
X031929D01*
Y03015D01*
X031946Y030066D01*
X031994Y029994D01*
X032139Y029849D01*
Y029656D01*
X032116Y029616D01*
X032089Y029616D01*
X031576D01*
X031565Y029616D01*
X031526D01*
X031515Y029616D01*
X03137D01*
Y030546D01*
X031579D01*
Y031254D01*
X030921D01*
Y030546D01*
X03113D01*
Y029616D01*
X030974D01*
Y029084D01*
X031515D01*
X031526Y029084D01*
X031565D01*
X031576Y029084D01*
X03173D01*
Y0245D01*
X03173Y0245D01*
X031739Y024454D01*
X031765Y024415D01*
X032079Y024101D01*
X032079Y024101D01*
X032118Y024075D01*
X032164Y024065D01*
X032164Y024065D01*
X03219D01*
X032225Y024015D01*
X03222Y023989D01*
X03223Y023935D01*
X03226Y023891D01*
X03223Y023846D01*
X03222Y023792D01*
X032224Y02377D01*
X032187Y02372D01*
X0318D01*
X031285Y024235D01*
X031246Y024261D01*
X0312Y02427D01*
X0312Y02427D01*
X030929D01*
Y024579D01*
X030818D01*
Y025196D01*
X031013D01*
Y025904D01*
X030383D01*
Y025196D01*
X030578D01*
Y024579D01*
X029771D01*
Y02427D01*
X0293D01*
X029254Y024261D01*
X029215Y024235D01*
X028755Y023776D01*
X028384D01*
Y023224D01*
X028384D01*
Y023185D01*
X028384D01*
Y022634D01*
X028916D01*
Y022789D01*
X029691D01*
X029771Y022708D01*
Y022021D01*
X03023D01*
Y0218D01*
X03023Y0218D01*
X030239Y021754D01*
X030265Y021715D01*
X030524Y021456D01*
X030503Y021406D01*
X030357D01*
Y020697D01*
X030987D01*
Y021406D01*
X030793D01*
Y021478D01*
X030793Y021478D01*
X030784Y021524D01*
X030757Y021563D01*
X03047Y02185D01*
Y022021D01*
X030929D01*
Y022453D01*
X030968Y022461D01*
X031007Y022487D01*
X031433Y022913D01*
X03148Y022894D01*
Y022784D01*
X031477Y022784D01*
X031416Y022723D01*
X031383Y022643D01*
Y022557D01*
X031416Y022477D01*
X031477Y022416D01*
X031557Y022383D01*
X031643D01*
X031723Y022416D01*
X031784Y022477D01*
X031817Y022557D01*
Y022643D01*
X031784Y022723D01*
X031723Y022784D01*
X03172Y022784D01*
Y02295D01*
X03185Y02308D01*
X032189D01*
X032225Y02303D01*
X03222Y023005D01*
X03223Y022951D01*
X03226Y022906D01*
X03223Y022862D01*
X03222Y022808D01*
X03223Y022754D01*
X03226Y022709D01*
X03223Y022665D01*
X03222Y022611D01*
X03223Y022557D01*
X03226Y022513D01*
X03223Y022468D01*
X03222Y022414D01*
X03223Y02236D01*
X03226Y022316D01*
X03223Y022271D01*
X03222Y022217D01*
X03223Y022164D01*
X032261Y022118D01*
X032306Y022088D01*
X03236Y022077D01*
X032813D01*
X032867Y022088D01*
X032912Y022118D01*
X032943Y022164D01*
X032953Y022217D01*
X032943Y022271D01*
X032913Y022316D01*
X032943Y02236D01*
X032953Y022414D01*
X032943Y022468D01*
X032913Y022513D01*
X032943Y022557D01*
X032953Y022611D01*
X032943Y022665D01*
X032913Y022709D01*
X032943Y022754D01*
X032953Y022808D01*
X032943Y022862D01*
X032913Y022906D01*
X032943Y022951D01*
X032953Y023005D01*
X032943Y023058D01*
X032913Y023103D01*
X032943Y023148D01*
X032953Y023202D01*
X032943Y023255D01*
X032913Y0233D01*
X032943Y023345D01*
X032953Y023398D01*
X032943Y023452D01*
X032913Y023497D01*
X032943Y023542D01*
X032953Y023595D01*
X032943Y023649D01*
X032913Y023694D01*
X032943Y023738D01*
X032953Y023792D01*
X032943Y023846D01*
X032913Y023891D01*
X032943Y023935D01*
X032953Y023989D01*
X032943Y024043D01*
X032913Y024087D01*
X032943Y024132D01*
X032953Y024186D01*
X032943Y02424D01*
X032913Y024284D01*
X032943Y024329D01*
X032953Y024383D01*
X032943Y024436D01*
X032912Y024482D01*
X032867Y024512D01*
X032813Y024523D01*
X03236D01*
X032306Y024512D01*
X032261Y024482D01*
X03223Y024436D01*
X03222Y024383D01*
X032223Y024368D01*
X032176Y024344D01*
X03197Y02455D01*
Y029049D01*
X032006Y029084D01*
X032116Y029084D01*
X032139Y029044D01*
Y027066D01*
X032084D01*
Y026534D01*
X032139D01*
Y026266D01*
X032084D01*
Y025734D01*
X032219D01*
Y025291D01*
X03223Y025237D01*
X03226Y025191D01*
X032587Y024864D01*
X032633Y024834D01*
X032687Y024823D01*
X033027D01*
Y024655D01*
X033038Y024602D01*
X033068Y024556D01*
X033341Y024283D01*
X033386Y024253D01*
X03344Y024242D01*
X035497D01*
X035502Y024236D01*
X035913D01*
Y024136D01*
X035535D01*
X035537Y024124D01*
X035572Y024071D01*
X035575Y024069D01*
X035557Y024043D01*
X035547Y023989D01*
X035557Y023935D01*
X035587Y023891D01*
X035557Y023846D01*
X035547Y023792D01*
X035557Y023738D01*
X035587Y023694D01*
X035557Y023649D01*
X035547Y023595D01*
X035557Y023542D01*
X035587Y023497D01*
X035557Y023452D01*
X035547Y023398D01*
X035557Y023345D01*
X035587Y0233D01*
X035557Y023255D01*
X035547Y023202D01*
X035557Y023148D01*
X035587Y023103D01*
X035557Y023058D01*
X035547Y023005D01*
X035557Y022951D01*
X035587Y022906D01*
X035557Y022862D01*
X035547Y022808D01*
X035557Y022754D01*
X035587Y022709D01*
X035557Y022665D01*
X035547Y022611D01*
X035557Y022557D01*
X035587Y022513D01*
X035557Y022468D01*
X035547Y022414D01*
X035557Y02236D01*
X035587Y022316D01*
X035557Y022271D01*
X035547Y022217D01*
X035557Y022164D01*
X035588Y022118D01*
X035633Y022088D01*
X035687Y022077D01*
X03614D01*
X036194Y022088D01*
X036239Y022118D01*
X03627Y022164D01*
X03628Y022217D01*
X03627Y022271D01*
X03624Y022316D01*
X03627Y02236D01*
X03628Y022414D01*
X03627Y022468D01*
X03624Y022513D01*
X03627Y022557D01*
X03628Y022611D01*
X03627Y022665D01*
X03624Y022709D01*
X03627Y022754D01*
X03628Y022808D01*
X03627Y022862D01*
X03624Y022906D01*
X03627Y022951D01*
X03628Y023005D01*
X036275Y02303D01*
X036311Y02308D01*
X0407D01*
X043749Y02003D01*
X043733Y020002D01*
X043706Y019902D01*
Y019798D01*
X043733Y019698D01*
X043785Y019608D01*
X043858Y019535D01*
X043948Y019483D01*
X044048Y019456D01*
X044152D01*
X044252Y019483D01*
X044342Y019535D01*
X044415Y019608D01*
X044467Y019698D01*
X044494Y019798D01*
Y019902D01*
X044467Y020002D01*
X044415Y020092D01*
X044342Y020165D01*
X044252Y020217D01*
X044152Y020244D01*
X044048D01*
X043948Y020217D01*
X04392Y020201D01*
X043441Y02068D01*
X043461Y02073D01*
X043725D01*
X043733Y020698D01*
X043785Y020608D01*
X043858Y020535D01*
X043948Y020483D01*
X044048Y020456D01*
X044152D01*
X044252Y020483D01*
X044342Y020535D01*
X044415Y020608D01*
X044467Y020698D01*
X044494Y020798D01*
Y020902D01*
X044467Y021002D01*
X044415Y021092D01*
X044342Y021165D01*
X044252Y021217D01*
X044152Y021244D01*
X044048D01*
X043948Y021217D01*
X043858Y021165D01*
X043785Y021092D01*
X043733Y021002D01*
X043725Y02097D01*
X04345D01*
X040935Y023485D01*
X040896Y023511D01*
X04085Y02352D01*
X040842Y023519D01*
X038035D01*
X038015Y023569D01*
X040559Y026113D01*
X040932D01*
Y025748D01*
X040932Y025748D01*
X040934Y025736D01*
Y025334D01*
X041474D01*
X041485Y025334D01*
X041524D01*
X041535Y025334D01*
X042076D01*
Y025866D01*
X042073D01*
Y026118D01*
X042614D01*
X042614Y026118D01*
X04266Y026127D01*
X042699Y026153D01*
X043256Y02671D01*
X043293Y026706D01*
X043299Y026655D01*
X043273Y026638D01*
X042451Y025815D01*
X04242Y025769D01*
X04241Y025715D01*
Y02556D01*
X042369Y025536D01*
X042314Y025481D01*
X042275Y025414D01*
X042255Y025339D01*
Y025261D01*
X042275Y025186D01*
X042314Y025119D01*
X042368Y025065D01*
Y0234D01*
X042368Y0234D01*
X042382Y02333D01*
X042421Y023271D01*
X043724Y021968D01*
X043706Y021902D01*
Y021798D01*
X043733Y021698D01*
X043785Y021608D01*
X043858Y021535D01*
X043948Y021483D01*
X044048Y021456D01*
X044152D01*
X044218Y021474D01*
X044718Y020975D01*
Y017425D01*
X043562Y01627D01*
X041263D01*
Y016658D01*
X040437D01*
X040437Y015554D01*
Y015551D01*
D01*
X040437Y015547D01*
X040429Y015544D01*
X040387Y015527D01*
X039672Y016241D01*
X039614Y016286D01*
X039547Y016313D01*
X039475Y016323D01*
X038963D01*
Y016758D01*
X038771D01*
Y017299D01*
X0388Y017329D01*
X038821Y017334D01*
X038865D01*
X038876Y017334D01*
X039062D01*
X039069Y017332D01*
X039141Y017322D01*
X039597D01*
X039661Y017305D01*
X039739D01*
X039814Y017325D01*
X039881Y017364D01*
X039936Y017419D01*
X039975Y017486D01*
X039995Y017561D01*
Y017639D01*
X039975Y017714D01*
X039936Y017781D01*
X039881Y017836D01*
X039814Y017875D01*
X039739Y017895D01*
X039661D01*
X039597Y017878D01*
X039141D01*
X039069Y017868D01*
X039062Y017866D01*
X038876D01*
X038865Y017866D01*
X038821D01*
X038771Y01788D01*
Y01805D01*
X038821Y018075D01*
X038844Y018063D01*
X038867Y018063D01*
X039091D01*
Y01835D01*
Y018637D01*
X038844Y018637D01*
X038821Y018625D01*
X038771Y01865D01*
Y01886D01*
X038874D01*
Y0192D01*
X038974D01*
Y01886D01*
X039146D01*
Y018881D01*
X039499D01*
Y019519D01*
X039439D01*
Y019652D01*
X039428Y019706D01*
X039397Y019751D01*
X039299Y019849D01*
X03928Y019863D01*
X039295Y019913D01*
X039501D01*
Y020111D01*
X039569D01*
X03977Y01991D01*
X03977Y01991D01*
X039809Y019884D01*
X039855Y019875D01*
X039855Y019875D01*
X040084D01*
X040084Y019743D01*
X040063Y019702D01*
X040063Y019678D01*
Y019455D01*
X040637D01*
X040637Y019702D01*
X040616Y019743D01*
X040616Y019752D01*
Y020271D01*
X040084D01*
Y020116D01*
X039905D01*
X039704Y020317D01*
X039665Y020343D01*
X039618Y020352D01*
X039618Y020352D01*
X039501D01*
Y02055D01*
X039099D01*
Y019941D01*
X039099Y019913D01*
X039058Y019891D01*
X038792D01*
X038751Y019913D01*
X038751Y019941D01*
Y020142D01*
X038754Y020147D01*
X038771Y020231D01*
Y020845D01*
X03881Y020884D01*
X039012Y020884D01*
X039053Y020863D01*
X039076Y020863D01*
X0393D01*
Y02115D01*
Y021437D01*
X039053Y021437D01*
X03903Y021425D01*
X03898Y02145D01*
Y02175D01*
X03903Y021775D01*
X039053Y021763D01*
X039076Y021763D01*
X0393D01*
Y02205D01*
Y022337D01*
X039053Y022337D01*
X039025Y022323D01*
X038988Y022339D01*
X038976Y022351D01*
Y022458D01*
X038986Y022469D01*
X039025Y022536D01*
X039045Y022611D01*
Y022689D01*
X039025Y022764D01*
X038986Y022831D01*
X038931Y022886D01*
X038864Y022925D01*
X038789Y022945D01*
X038711D01*
X038636Y022925D01*
X038569Y022886D01*
X038514Y022831D01*
X038475Y022764D01*
X038455Y022689D01*
Y022611D01*
X038475Y022536D01*
X038514Y022469D01*
X038534Y022448D01*
Y022316D01*
X038484D01*
Y021784D01*
X038539D01*
Y021416D01*
X038484D01*
Y021196D01*
X038394Y021107D01*
X038346Y021035D01*
X038329Y02095D01*
Y020452D01*
X03806D01*
X037806Y020706D01*
X037734Y020754D01*
X03765Y020771D01*
X036871D01*
Y020816D01*
X036736D01*
Y020881D01*
X036725Y020935D01*
X036695Y02098D01*
X036625Y021049D01*
X03658Y02108D01*
X036526Y021091D01*
X035658D01*
X035473Y021276D01*
Y021637D01*
Y021863D01*
X035462Y021917D01*
X035432Y021962D01*
X035386Y021993D01*
X035333Y022003D01*
X035279Y021993D01*
X035252Y021975D01*
X03525Y021978D01*
X035198Y022013D01*
X035186Y022015D01*
Y021637D01*
Y021225D01*
X035192Y02122D01*
Y021217D01*
X035203Y021164D01*
X035233Y021118D01*
X035501Y020851D01*
X035546Y02082D01*
X0356Y02081D01*
X035708D01*
Y0206D01*
X036005D01*
Y02055D01*
X036055D01*
Y020263D01*
X036302D01*
Y020263D01*
X03632Y020284D01*
X036374D01*
Y01985D01*
X036325Y019825D01*
X036302Y019837D01*
X036278Y019837D01*
X036055D01*
Y01955D01*
Y019263D01*
X036302Y019263D01*
X036302Y019263D01*
X036352Y019233D01*
Y018969D01*
X036314Y018931D01*
X036275Y018864D01*
X036255Y018789D01*
Y018711D01*
X036275Y018636D01*
X036314Y018569D01*
X036369Y018514D01*
X036436Y018475D01*
X036511Y018455D01*
X036589D01*
X036664Y018475D01*
X036731Y018514D01*
X036786Y018569D01*
X036825Y018636D01*
X036845Y018711D01*
Y018789D01*
X036825Y018864D01*
X036793Y018919D01*
Y019284D01*
X036871D01*
Y019816D01*
X036816D01*
Y020284D01*
X036871D01*
Y020329D01*
X037559D01*
X037812Y020075D01*
X037884Y020028D01*
X037968Y020011D01*
X038349D01*
Y019913D01*
X038555D01*
X03857Y019863D01*
X038551Y019849D01*
X038451Y019749D01*
X03842Y019704D01*
X03841Y01965D01*
Y019519D01*
X038349D01*
Y019421D01*
X037816D01*
Y019476D01*
X037284D01*
X037284Y018947D01*
X037263Y018906D01*
X037263Y018883D01*
Y018659D01*
X037837D01*
X037837Y018906D01*
X037825Y018929D01*
X03785Y018979D01*
X038329D01*
Y018616D01*
X038274D01*
Y018084D01*
X038329D01*
Y017866D01*
X038274D01*
Y017334D01*
X038329D01*
Y016758D01*
X038137D01*
Y015617D01*
X038963D01*
Y015767D01*
X03936D01*
X040437Y01469D01*
Y013942D01*
X041263D01*
Y015083D01*
X04083D01*
X040447Y015467D01*
X040467Y015517D01*
X040471Y015517D01*
X040471Y015517D01*
X040474Y015517D01*
X041263D01*
Y015905D01*
X043637D01*
X043637Y015905D01*
X043707Y015919D01*
X043766Y015959D01*
X045029Y017221D01*
X045029Y017221D01*
X045068Y01728D01*
X045082Y01735D01*
Y02105D01*
X045082Y02105D01*
X045068Y02112D01*
X045029Y021179D01*
X045029Y021179D01*
X044476Y021732D01*
X044494Y021798D01*
Y021902D01*
X044467Y022002D01*
X044415Y022092D01*
X044342Y022165D01*
X044252Y022217D01*
X044152Y022244D01*
X044048D01*
X043982Y022226D01*
X043819Y022389D01*
X043838Y022435D01*
X04405D01*
Y0228D01*
X043685D01*
Y022588D01*
X043639Y022569D01*
X042732Y023475D01*
Y025065D01*
X042786Y025119D01*
X042825Y025186D01*
X042845Y025261D01*
Y025339D01*
X042825Y025414D01*
X042786Y025481D01*
X042731Y025536D01*
X042691Y02556D01*
Y025657D01*
X043431Y026398D01*
X0439D01*
X043954Y026408D01*
X043955Y026409D01*
X044329D01*
Y026665D01*
Y027156D01*
X04435D01*
Y027256D01*
X0439D01*
X04345D01*
Y027156D01*
X04341Y027132D01*
X043134D01*
X043134Y027132D01*
X043088Y027123D01*
X043049Y027097D01*
X043049Y027097D01*
X04249Y026537D01*
X042073D01*
Y026902D01*
X042073Y026902D01*
X042071Y026914D01*
Y027259D01*
X042323D01*
X042369Y027214D01*
X042436Y027175D01*
X042511Y027155D01*
X042589D01*
X042664Y027175D01*
X042731Y027214D01*
X042786Y027269D01*
X042825Y027336D01*
X042845Y027411D01*
Y027489D01*
X042825Y027564D01*
X042786Y027631D01*
X042731Y027686D01*
X042664Y027725D01*
X042589Y027745D01*
X042511D01*
X042436Y027725D01*
X042394Y027701D01*
X042112D01*
X04208Y027733D01*
Y027951D01*
X042076Y027971D01*
Y028266D01*
X041535D01*
X041524Y028266D01*
X041485D01*
X041474Y028266D01*
X040934D01*
Y027734D01*
X041084D01*
Y027316D01*
X040929D01*
Y026784D01*
X040932D01*
Y026532D01*
X040435D01*
X040389Y026523D01*
X04035Y026497D01*
X04035Y026497D01*
X038317Y024464D01*
X03827Y024483D01*
Y030875D01*
X038302Y030883D01*
X038392Y030935D01*
X038465Y031008D01*
X038517Y031098D01*
X038544Y031198D01*
Y031302D01*
X038517Y031402D01*
X038465Y031492D01*
X038392Y031565D01*
X038302Y031617D01*
X038202Y031644D01*
X038098D01*
X037998Y031617D01*
X037908Y031565D01*
X037835Y031492D01*
X037783Y031402D01*
X037756Y031302D01*
Y031198D01*
X037783Y031098D01*
X037835Y031008D01*
X037908Y030935D01*
X037998Y030883D01*
X03803Y030875D01*
Y0244D01*
X037983Y024354D01*
X037937Y024373D01*
Y0245D01*
X03765D01*
Y0246D01*
X037937D01*
Y024847D01*
X037937D01*
X037916Y024888D01*
Y025416D01*
X037871D01*
Y025553D01*
X037886Y025569D01*
X037925Y025636D01*
X037945Y025711D01*
Y025789D01*
X037925Y025864D01*
X037886Y025931D01*
X037831Y025986D01*
X037764Y026025D01*
X037689Y026045D01*
X037611D01*
X037536Y026025D01*
X037469Y025986D01*
X037414Y025931D01*
X037375Y025864D01*
X037355Y025789D01*
Y025711D01*
X037375Y025636D01*
X037414Y025569D01*
X037429Y025553D01*
Y025428D01*
X037384Y025416D01*
X037366D01*
Y025416D01*
X036834D01*
Y025281D01*
X036741D01*
X036687Y02527D01*
X036641Y02524D01*
X036551Y025149D01*
X03652Y025104D01*
X036509Y02505D01*
Y024608D01*
X036424Y024523D01*
X033498D01*
X033486Y024536D01*
X033493Y024598D01*
X033502Y024604D01*
X033513Y024606D01*
X033561Y024597D01*
X033615Y024607D01*
X033659Y024637D01*
X033704Y024607D01*
X033758Y024597D01*
X033812Y024607D01*
X033856Y024637D01*
X033901Y024607D01*
X033955Y024597D01*
X034008Y024607D01*
X034053Y024637D01*
X034098Y024607D01*
X034152Y024597D01*
X034205Y024607D01*
X03425Y024637D01*
X034295Y024607D01*
X034348Y024597D01*
X034402Y024607D01*
X034447Y024637D01*
X034492Y024607D01*
X034545Y024597D01*
X034599Y024607D01*
X034644Y024637D01*
X034688Y024607D01*
X034742Y024597D01*
X034796Y024607D01*
X034841Y024637D01*
X034885Y024607D01*
X034939Y024597D01*
X034993Y024607D01*
X035037Y024637D01*
X035082Y024607D01*
X035136Y024597D01*
X03519Y024607D01*
X035234Y024637D01*
X035279Y024607D01*
X035333Y024597D01*
X035386Y024607D01*
X035432Y024638D01*
X035462Y024683D01*
X035473Y024737D01*
Y02519D01*
X035462Y025244D01*
X035453Y025258D01*
Y026583D01*
X037235Y028365D01*
X037261Y028404D01*
X03727Y02845D01*
X03727Y02845D01*
Y030875D01*
X037302Y030883D01*
X037392Y030935D01*
X037465Y031008D01*
X037517Y031098D01*
X037544Y031198D01*
Y031302D01*
X037517Y031402D01*
X037465Y031492D01*
X037392Y031565D01*
X037302Y031617D01*
X037202Y031644D01*
X037098D01*
X036998Y031617D01*
X036908Y031565D01*
X036835Y031492D01*
X036783Y031402D01*
X036756Y031302D01*
Y031198D01*
X036783Y031098D01*
X036835Y031008D01*
X036908Y030935D01*
X036998Y030883D01*
X03703Y030875D01*
Y0285D01*
X035248Y026718D01*
X035221Y026679D01*
X035212Y026633D01*
X035212Y026633D01*
Y02536D01*
X035162Y025325D01*
X035136Y02533D01*
X035082Y02532D01*
X035037Y02529D01*
X034993Y02532D01*
X034939Y02533D01*
X034885Y02532D01*
X034841Y02529D01*
X034796Y02532D01*
X034742Y02533D01*
X034688Y02532D01*
X034644Y02529D01*
X034599Y02532D01*
X034545Y02533D01*
X03452Y025325D01*
X03447Y025361D01*
Y02725D01*
X03447Y02725D01*
X034461Y027296D01*
X034435Y027335D01*
X034435Y027335D01*
X033935Y027835D01*
X033896Y027861D01*
X03385Y02787D01*
X03385Y02787D01*
X03315D01*
X033016Y028005D01*
X033017Y028007D01*
Y028093D01*
X032984Y028173D01*
X032923Y028234D01*
X032843Y028267D01*
X032757D01*
X032677Y028234D01*
X03263Y028186D01*
X03258Y028206D01*
Y029941D01*
X032563Y030025D01*
X032516Y030097D01*
X032371Y030241D01*
Y030546D01*
X032479D01*
Y030637D01*
X032671D01*
Y030546D01*
X033329D01*
Y031254D01*
X032671D01*
Y031193D01*
X032479D01*
Y031254D01*
X032478D01*
Y031869D01*
X032469Y031941D01*
X032441Y032008D01*
X032397Y032066D01*
X032166Y032297D01*
X032108Y032341D01*
X032041Y032369D01*
X031969Y032378D01*
D02*
G37*
G36*
X0387Y029764D02*
Y0295D01*
X038964D01*
X038945Y029572D01*
X038903Y029644D01*
X038844Y029703D01*
X038772Y029745D01*
X0387Y029764D01*
D02*
G37*
G36*
X0386D02*
X038528Y029745D01*
X038456Y029703D01*
X038397Y029644D01*
X038355Y029572D01*
X038336Y0295D01*
X0386D01*
Y029764D01*
D02*
G37*
G36*
X033255Y029437D02*
X033008D01*
Y0292D01*
X033255D01*
Y029437D01*
D02*
G37*
G36*
X039737Y029405D02*
X0395D01*
Y029158D01*
X039737D01*
Y029405D01*
D02*
G37*
G36*
X0394D02*
X039163D01*
Y029158D01*
X0394D01*
Y029405D01*
D02*
G37*
G36*
X038964Y0294D02*
X0387D01*
Y029136D01*
X038772Y029155D01*
X038844Y029197D01*
X038903Y029256D01*
X038945Y029328D01*
X038964Y0294D01*
D02*
G37*
G36*
X0386D02*
X038336D01*
X038355Y029328D01*
X038397Y029256D01*
X038456Y029197D01*
X038528Y029155D01*
X0386Y029136D01*
Y0294D01*
D02*
G37*
G36*
X033602Y029437D02*
X033578Y029437D01*
X033355D01*
Y02915D01*
Y028863D01*
X033602Y028863D01*
X033643Y028884D01*
X033652Y028884D01*
X034171D01*
Y02903D01*
X034266D01*
X034266Y029027D01*
X034327Y028966D01*
X034407Y028933D01*
X034493D01*
X034573Y028966D01*
X034634Y029027D01*
X034667Y029107D01*
Y029193D01*
X034634Y029273D01*
X034573Y029334D01*
X034493Y029367D01*
X034407D01*
X034327Y029334D01*
X034266Y029273D01*
X034266Y02927D01*
X034171D01*
Y029416D01*
X033643Y029416D01*
X033602Y029437D01*
D02*
G37*
G36*
X033255Y0291D02*
X033008D01*
Y028863D01*
X033255D01*
Y0291D01*
D02*
G37*
G36*
X045542Y029079D02*
X045118D01*
Y028655D01*
X045542D01*
Y029079D01*
D02*
G37*
G36*
X045018D02*
X044594D01*
Y028655D01*
X045018D01*
Y029079D01*
D02*
G37*
G36*
X0426Y028914D02*
Y02865D01*
X042864D01*
X042845Y028722D01*
X042803Y028794D01*
X042744Y028853D01*
X042672Y028895D01*
X0426Y028914D01*
D02*
G37*
G36*
X0425D02*
X042428Y028895D01*
X042356Y028853D01*
X042297Y028794D01*
X042255Y028722D01*
X042236Y02865D01*
X0425D01*
Y028914D01*
D02*
G37*
G36*
X0395D02*
Y02865D01*
X039764D01*
X039745Y028722D01*
X039703Y028794D01*
X039644Y028853D01*
X039572Y028895D01*
X0395Y028914D01*
D02*
G37*
G36*
X0394D02*
X039328Y028895D01*
X039256Y028853D01*
X039197Y028794D01*
X039155Y028722D01*
X039136Y02865D01*
X0394D01*
Y028914D01*
D02*
G37*
G36*
X03335Y028714D02*
Y02845D01*
X033614D01*
X033595Y028522D01*
X033553Y028594D01*
X033494Y028653D01*
X033422Y028695D01*
X03335Y028714D01*
D02*
G37*
G36*
X03325D02*
X033178Y028695D01*
X033106Y028653D01*
X033047Y028594D01*
X033005Y028522D01*
X032986Y02845D01*
X03325D01*
Y028714D01*
D02*
G37*
G36*
X042864Y02855D02*
X0426D01*
Y028286D01*
X042672Y028305D01*
X042744Y028347D01*
X042803Y028406D01*
X042845Y028478D01*
X042864Y02855D01*
D02*
G37*
G36*
X0425D02*
X042236D01*
X042255Y028478D01*
X042297Y028406D01*
X042356Y028347D01*
X042428Y028305D01*
X0425Y028286D01*
Y02855D01*
D02*
G37*
G36*
X039764D02*
X0395D01*
Y028286D01*
X039572Y028305D01*
X039644Y028347D01*
X039703Y028406D01*
X039745Y028478D01*
X039764Y02855D01*
D02*
G37*
G36*
X0394D02*
X039136D01*
X039155Y028478D01*
X039197Y028406D01*
X039256Y028347D01*
X039328Y028305D01*
X0394Y028286D01*
Y02855D01*
D02*
G37*
G36*
X045542Y028555D02*
X045118D01*
Y028131D01*
X045542D01*
Y028555D01*
D02*
G37*
G36*
X045018D02*
X044594D01*
Y028131D01*
X045018D01*
Y028555D01*
D02*
G37*
G36*
X033614Y02835D02*
X03335D01*
Y028086D01*
X033422Y028105D01*
X033494Y028147D01*
X033553Y028206D01*
X033595Y028278D01*
X033614Y02835D01*
D02*
G37*
G36*
X03325D02*
X032986D01*
X033005Y028278D01*
X033047Y028206D01*
X033106Y028147D01*
X033178Y028105D01*
X03325Y028086D01*
Y02835D01*
D02*
G37*
G36*
X04435Y0277D02*
X04395D01*
Y0276D01*
X04435D01*
Y0277D01*
D02*
G37*
G36*
X04385D02*
X04345D01*
Y0276D01*
X04385D01*
Y0277D01*
D02*
G37*
G36*
X04435Y0275D02*
X0439D01*
X04345D01*
Y0274D01*
Y027356D01*
X0439D01*
X04435D01*
Y0274D01*
Y0275D01*
D02*
G37*
G36*
X045542Y025969D02*
X045118D01*
Y025545D01*
X045542D01*
Y025969D01*
D02*
G37*
G36*
X045018D02*
X044594D01*
Y025545D01*
X045018D01*
Y025969D01*
D02*
G37*
G36*
X028164Y025707D02*
X027878D01*
Y0255D01*
X028164D01*
Y025707D01*
D02*
G37*
G36*
X027778D02*
X027492D01*
Y0255D01*
X027778D01*
Y025707D01*
D02*
G37*
G36*
X039202Y031644D02*
X039098D01*
X038998Y031617D01*
X038908Y031565D01*
X038835Y031492D01*
X038783Y031402D01*
X038756Y031302D01*
Y031198D01*
X038783Y031098D01*
X038835Y031008D01*
X038908Y030935D01*
X038998Y030883D01*
X039098Y030856D01*
X039136D01*
X039229Y030763D01*
Y030321D01*
X039184D01*
X039184Y029793D01*
X039163Y029752D01*
X039163Y029728D01*
Y029505D01*
X039737D01*
X039737Y029752D01*
X039723Y029779D01*
X039739Y029817D01*
X039751Y029829D01*
X040047D01*
X040079Y029797D01*
Y027891D01*
X038624Y026436D01*
X038576Y026365D01*
X038559Y02628D01*
Y025977D01*
X038514Y025931D01*
X038475Y025864D01*
X038455Y025789D01*
Y025711D01*
X038475Y025636D01*
X038514Y025569D01*
X038569Y025514D01*
X038636Y025475D01*
X038711Y025455D01*
X038789D01*
X038864Y025475D01*
X038931Y025514D01*
X038986Y025569D01*
X039025Y025636D01*
X039045Y025711D01*
Y025789D01*
X039025Y025864D01*
X039001Y025906D01*
Y026189D01*
X040456Y027644D01*
X040504Y027716D01*
X040521Y0278D01*
Y029889D01*
X040504Y029973D01*
X040456Y030045D01*
X040295Y030206D01*
X040223Y030254D01*
X040139Y030271D01*
X039716D01*
Y030321D01*
X039671D01*
Y030854D01*
X039654Y030939D01*
X039606Y03101D01*
X039517Y031099D01*
X039544Y031198D01*
Y031302D01*
X039517Y031402D01*
X039465Y031492D01*
X039392Y031565D01*
X039302Y031617D01*
X039202Y031644D01*
D02*
G37*
G36*
X028164Y0254D02*
X027878D01*
Y025193D01*
X028164D01*
Y0254D01*
D02*
G37*
G36*
X027778D02*
X027492D01*
Y025193D01*
X027778D01*
Y0254D01*
D02*
G37*
G36*
X045542Y025445D02*
X045118D01*
Y025021D01*
X045542D01*
Y025445D01*
D02*
G37*
G36*
X045018D02*
X044594D01*
Y025021D01*
X045018D01*
Y025445D01*
D02*
G37*
G36*
X030265Y025904D02*
X029635D01*
Y025196D01*
X02983D01*
Y0251D01*
X0296Y02487D01*
X029534D01*
X029534Y024873D01*
X029473Y024934D01*
X029393Y024967D01*
X029307D01*
X029227Y024934D01*
X029166Y024873D01*
X029133Y024793D01*
Y024707D01*
X029166Y024627D01*
X029227Y024566D01*
X029307Y024533D01*
X029393D01*
X029473Y024566D01*
X029534Y024627D01*
X029534Y02463D01*
X02965D01*
X02965Y02463D01*
X029696Y024639D01*
X029735Y024665D01*
X030035Y024965D01*
X030061Y025004D01*
X03007Y02505D01*
Y025196D01*
X030265D01*
Y025904D01*
D02*
G37*
G36*
X01965Y024836D02*
X019606Y024828D01*
X01956Y024797D01*
X01955Y024782D01*
X01951D01*
X01947Y024808D01*
X019424Y024817D01*
X019346D01*
X0193Y024808D01*
X019261Y024782D01*
X019258Y024777D01*
X019197D01*
X019195Y024782D01*
X019156Y024808D01*
X019109Y024817D01*
X019031D01*
X018985Y024808D01*
X018946Y024782D01*
X018943Y024777D01*
X018883D01*
X01888Y024782D01*
X018841Y024808D01*
X018794Y024817D01*
X018716D01*
X01867Y024808D01*
X018631Y024782D01*
X018604Y024743D01*
X018595Y024696D01*
Y024444D01*
X018604Y024398D01*
X018631Y024359D01*
X01867Y024333D01*
X018716Y024324D01*
X018794D01*
X018841Y024333D01*
X01888Y024359D01*
X018883Y024364D01*
X018943D01*
X018946Y024359D01*
X018985Y024333D01*
X019031Y024324D01*
X019109D01*
X019156Y024333D01*
X019195Y024359D01*
X019197Y024364D01*
X019258D01*
X019261Y024359D01*
X0193Y024333D01*
X019346Y024324D01*
X019424D01*
X01947Y024333D01*
X01951Y024359D01*
X01955D01*
X01956Y024344D01*
X019606Y024313D01*
X01965Y024304D01*
Y02457D01*
Y024836D01*
D02*
G37*
G36*
X026845Y024187D02*
Y02395D01*
X027092D01*
Y024187D01*
X026845D01*
D02*
G37*
G36*
X027114Y02325D02*
X02685D01*
Y022986D01*
X026922Y023005D01*
X026994Y023047D01*
X027053Y023106D01*
X027095Y023178D01*
X027114Y02325D01*
D02*
G37*
G36*
X02675D02*
X026486D01*
X026505Y023178D01*
X026547Y023106D01*
X026606Y023047D01*
X026678Y023005D01*
X02675Y022986D01*
Y02325D01*
D02*
G37*
G36*
X044515Y023265D02*
X04415D01*
Y0229D01*
X044515D01*
Y023265D01*
D02*
G37*
G36*
X04405D02*
X043685D01*
Y0229D01*
X04405D01*
Y023265D01*
D02*
G37*
G36*
X044515Y0228D02*
X04415D01*
Y022435D01*
X044515D01*
Y0228D01*
D02*
G37*
G36*
X017505Y022394D02*
X017258D01*
Y022157D01*
X017505D01*
Y022394D01*
D02*
G37*
G36*
X0394Y022337D02*
Y0221D01*
X039647D01*
Y022337D01*
X0394D01*
D02*
G37*
G36*
X019745D02*
Y0221D01*
X019992D01*
Y022337D01*
X019745D01*
D02*
G37*
G36*
X04065Y022364D02*
Y0221D01*
X040914D01*
X040895Y022172D01*
X040853Y022244D01*
X040794Y022303D01*
X040722Y022345D01*
X04065Y022364D01*
D02*
G37*
G36*
X04055D02*
X040478Y022345D01*
X040406Y022303D01*
X040347Y022244D01*
X040305Y022172D01*
X040286Y0221D01*
X04055D01*
Y022364D01*
D02*
G37*
G36*
X035086Y022015D02*
X035074Y022013D01*
X035021Y021978D01*
X035019Y021975D01*
X034993Y021993D01*
X034939Y022003D01*
X034885Y021993D01*
X034841Y021963D01*
X034796Y021993D01*
X034742Y022003D01*
X034688Y021993D01*
X034644Y021963D01*
X034599Y021993D01*
X034545Y022003D01*
X034492Y021993D01*
X034447Y021963D01*
X034402Y021993D01*
X034348Y022003D01*
X034295Y021993D01*
X03425Y021963D01*
X034205Y021993D01*
X034152Y022003D01*
X034098Y021993D01*
X034053Y021963D01*
X034008Y021993D01*
X033955Y022003D01*
X033901Y021993D01*
X033856Y021963D01*
X033812Y021993D01*
X033758Y022003D01*
X033704Y021993D01*
X033659Y021963D01*
X033615Y021993D01*
X033561Y022003D01*
X033507Y021993D01*
X033463Y021963D01*
X033418Y021993D01*
X033364Y022003D01*
X03331Y021993D01*
X033266Y021963D01*
X033221Y021993D01*
X033167Y022003D01*
X033114Y021993D01*
X033068Y021962D01*
X033038Y021917D01*
X033027Y021863D01*
Y02141D01*
X033038Y021356D01*
X033047Y021342D01*
Y021117D01*
X0319Y01997D01*
X028516D01*
Y02012D01*
X028516Y02013D01*
Y02017D01*
X028516Y02018D01*
Y020721D01*
X027984D01*
Y02055D01*
X027105D01*
Y020676D01*
X026475D01*
Y020184D01*
X027105D01*
Y02031D01*
X027984D01*
Y02018D01*
X027984Y02017D01*
Y02013D01*
X027984Y02012D01*
Y019579D01*
X028516D01*
Y01973D01*
X031893D01*
X031914Y01968D01*
X03185Y019616D01*
X031479D01*
Y019466D01*
X030866D01*
Y019621D01*
X030334D01*
Y019466D01*
X026995D01*
X026995Y019466D01*
X026949Y019457D01*
X02691Y01943D01*
X02691Y01943D01*
X025656Y018176D01*
X025386D01*
Y018371D01*
X024914D01*
Y017741D01*
X025386D01*
Y017935D01*
X025706D01*
X025706Y017935D01*
X025752Y017945D01*
X025791Y017971D01*
X027045Y019225D01*
X030334D01*
Y01908D01*
X030334Y01907D01*
Y019025D01*
X03032Y018975D01*
X029505D01*
X02942Y018959D01*
X029349Y018911D01*
X028733Y018295D01*
X028711D01*
X028636Y018275D01*
X028569Y018236D01*
X028514Y018181D01*
X028475Y018114D01*
X028455Y018039D01*
Y017961D01*
X028475Y017886D01*
X028514Y017819D01*
X028569Y017764D01*
X028636Y017725D01*
X028711Y017705D01*
X028789D01*
X028864Y017725D01*
X028931Y017764D01*
X028986Y017819D01*
X029025Y017886D01*
X029045Y017961D01*
Y017983D01*
X029596Y018534D01*
X030334D01*
Y018479D01*
X030866D01*
Y018532D01*
X031051D01*
X031069Y018514D01*
X031136Y018475D01*
X031211Y018455D01*
X031289D01*
X031364Y018475D01*
X031431Y018514D01*
X031486Y018569D01*
X031525Y018636D01*
X031545Y018711D01*
Y018789D01*
X031525Y018864D01*
X031486Y018931D01*
X031431Y018986D01*
X031364Y019025D01*
X031289Y019045D01*
X031211D01*
X031136Y019025D01*
X031069Y018986D01*
X031056Y018973D01*
X030901D01*
X030869Y019006D01*
X030866Y019023D01*
X030866Y01907D01*
X030866Y01908D01*
Y019225D01*
X031479D01*
Y019084D01*
X032007D01*
X032048Y019063D01*
X032048Y019063D01*
X032048Y019063D01*
X032295D01*
Y01935D01*
Y019637D01*
X032277D01*
X032258Y019683D01*
X033394Y020819D01*
X033441Y0208D01*
Y019306D01*
X03335Y019215D01*
X033343Y019217D01*
X033308Y019277D01*
X033314Y0193D01*
X03305D01*
Y019036D01*
X033073Y019042D01*
X033133Y019007D01*
X033135Y019D01*
X0325Y018366D01*
X032129D01*
Y018216D01*
X029995D01*
X029949Y018207D01*
X02991Y01818D01*
X02991Y01818D01*
X028855Y017126D01*
X028484D01*
Y01697D01*
X02785D01*
X02742Y0174D01*
Y017735D01*
X027536D01*
Y018365D01*
X027064D01*
Y017735D01*
X02718D01*
Y01735D01*
X02718Y01735D01*
X027189Y017304D01*
X027215Y017265D01*
X027715Y016765D01*
X027715Y016765D01*
X027754Y016739D01*
X0278Y01673D01*
X0278Y01673D01*
X028484D01*
Y016585D01*
X028484Y016574D01*
Y016535D01*
X028484Y016525D01*
X028482Y016475D01*
X027992D01*
X027981Y016486D01*
X027914Y016525D01*
X027839Y016545D01*
X027761D01*
X027686Y016525D01*
X027619Y016486D01*
X027564Y016431D01*
X027525Y016364D01*
X027505Y016289D01*
Y016211D01*
X027525Y016136D01*
X027564Y016069D01*
X027619Y016014D01*
X027686Y015975D01*
X027761Y015955D01*
X027839D01*
X027914Y015975D01*
X027981Y016014D01*
X028002Y016034D01*
X028484D01*
Y015984D01*
X029016D01*
Y016029D01*
X029709D01*
X030349Y015389D01*
X03042Y015341D01*
X030505Y015324D01*
X03155D01*
X031575Y015274D01*
X031563Y015252D01*
X031563Y015228D01*
Y015011D01*
X031513Y015005D01*
X031495Y015072D01*
X031453Y015144D01*
X031394Y015203D01*
X031322Y015245D01*
X03125Y015264D01*
Y01495D01*
Y014636D01*
X031322Y014655D01*
X031394Y014697D01*
X031453Y014756D01*
X031495Y014828D01*
X031513Y014895D01*
X031563Y014889D01*
Y014658D01*
X0318D01*
Y014955D01*
X03185D01*
Y015005D01*
X032137D01*
X032137Y015252D01*
X032126Y015272D01*
X032153Y015322D01*
X03245D01*
X032455Y015317D01*
X032476Y015272D01*
X032463Y015247D01*
X032463Y015224D01*
Y015D01*
X03275D01*
X033037D01*
X033037Y015247D01*
X033024Y015272D01*
X033046Y015318D01*
X033049Y015322D01*
X033857D01*
Y015269D01*
X034959D01*
Y01582D01*
X033857D01*
Y015763D01*
X033016D01*
Y015816D01*
X032484D01*
Y015764D01*
X032116D01*
Y015821D01*
X031584D01*
Y015766D01*
X030596D01*
X029956Y016406D01*
X029884Y016454D01*
X0298Y016471D01*
X029016D01*
Y016524D01*
X029016Y016535D01*
Y016574D01*
X029016Y016585D01*
Y016945D01*
X030045Y017975D01*
X032129D01*
Y017834D01*
X032657D01*
X032698Y017813D01*
X032698Y017813D01*
X032698Y017813D01*
X032945D01*
Y0181D01*
Y018387D01*
X032927D01*
X032908Y018433D01*
X033646Y019171D01*
X033672Y01921D01*
X033681Y019256D01*
X033681Y019256D01*
Y02124D01*
X033731Y021275D01*
X033758Y02127D01*
X033812Y02128D01*
X033856Y02131D01*
X033901Y02128D01*
X033955Y02127D01*
X034008Y02128D01*
X034053Y02131D01*
X034098Y02128D01*
X034152Y02127D01*
X034205Y02128D01*
X03425Y02131D01*
X034295Y02128D01*
X034348Y02127D01*
X034402Y02128D01*
X034447Y02131D01*
X034492Y02128D01*
X034545Y02127D01*
X034599Y02128D01*
X034644Y02131D01*
X034688Y02128D01*
X034742Y02127D01*
X034796Y02128D01*
X034841Y02131D01*
X034885Y02128D01*
X034939Y02127D01*
X034993Y02128D01*
X035019Y021298D01*
X035021Y021296D01*
X035074Y02126D01*
X035086Y021258D01*
Y021637D01*
Y022015D01*
D02*
G37*
G36*
X02675Y022114D02*
X026678Y022095D01*
X026606Y022053D01*
X026547Y021994D01*
X026505Y021922D01*
X026486Y02185D01*
X02675D01*
Y022114D01*
D02*
G37*
G36*
X017505Y022057D02*
X017258D01*
Y02182D01*
X017505D01*
Y022057D01*
D02*
G37*
G36*
X039647Y022D02*
X0394D01*
Y021763D01*
X039647D01*
Y022D01*
D02*
G37*
G36*
X019992D02*
X019745D01*
Y021763D01*
X019992D01*
Y022D01*
D02*
G37*
G36*
X040914D02*
X04065D01*
Y021736D01*
X040722Y021755D01*
X040794Y021797D01*
X040853Y021856D01*
X040895Y021928D01*
X040914Y022D01*
D02*
G37*
G36*
X04055D02*
X040286D01*
X040305Y021928D01*
X040347Y021856D01*
X040406Y021797D01*
X040478Y021755D01*
X04055Y021736D01*
Y022D01*
D02*
G37*
G36*
X017514Y021494D02*
X017267D01*
Y021257D01*
X017514D01*
Y021494D01*
D02*
G37*
G36*
X01975Y021487D02*
Y02125D01*
X019997D01*
Y021487D01*
X01975D01*
D02*
G37*
G36*
X02525Y021514D02*
Y02125D01*
X025514D01*
X025495Y021322D01*
X025453Y021394D01*
X025394Y021453D01*
X025322Y021495D01*
X02525Y021514D01*
D02*
G37*
G36*
X02515D02*
X025078Y021495D01*
X025006Y021453D01*
X024947Y021394D01*
X024905Y021322D01*
X024886Y02125D01*
X02515D01*
Y021514D01*
D02*
G37*
G36*
X0205D02*
Y02125D01*
X020764D01*
X020745Y021322D01*
X020703Y021394D01*
X020644Y021453D01*
X020572Y021495D01*
X0205Y021514D01*
D02*
G37*
G36*
X0204D02*
X020328Y021495D01*
X020256Y021453D01*
X020197Y021394D01*
X020155Y021322D01*
X020136Y02125D01*
X0204D01*
Y021514D01*
D02*
G37*
G36*
X027114Y02175D02*
X026486D01*
X026505Y021678D01*
X026547Y021606D01*
X026606Y021547D01*
X026678Y021505D01*
X02667Y021455D01*
X026456D01*
Y021238D01*
X026792D01*
X027128D01*
Y021455D01*
X02693D01*
X026922Y021505D01*
X026994Y021547D01*
X027053Y021606D01*
X027095Y021678D01*
X027114Y02175D01*
D02*
G37*
G36*
X0394Y021437D02*
Y0212D01*
X039647D01*
Y021437D01*
X0394D01*
D02*
G37*
G36*
X027128Y021138D02*
X026842D01*
Y020921D01*
X027128D01*
Y021138D01*
D02*
G37*
G36*
X026742D02*
X026456D01*
Y020921D01*
X026742D01*
Y021138D01*
D02*
G37*
G36*
X017514Y021157D02*
X017267D01*
Y02092D01*
X017514D01*
Y021157D01*
D02*
G37*
G36*
X025514Y02115D02*
X024886D01*
X024905Y021078D01*
X024947Y021006D01*
X024982Y02097D01*
X024961Y02092D01*
X02275D01*
X02275Y02092D01*
X022704Y020911D01*
X022665Y020885D01*
X022665Y020885D01*
X021065Y019285D01*
X021039Y019246D01*
X02103Y0192D01*
X02103Y0192D01*
Y01606D01*
X021006Y016054D01*
X02092Y016004D01*
X020851Y015935D01*
X020801Y015849D01*
X020776Y015754D01*
Y015656D01*
X020801Y015561D01*
X020851Y015475D01*
X02092Y015406D01*
X021006Y015356D01*
X021101Y015331D01*
X021199D01*
X021294Y015356D01*
X02138Y015406D01*
X021449Y015475D01*
X021499Y015561D01*
X021524Y015656D01*
Y015754D01*
X021499Y015849D01*
X021449Y015935D01*
X02138Y016004D01*
X021294Y016054D01*
X02127Y01606D01*
Y01915D01*
X0228Y02068D01*
X025493D01*
Y020556D01*
X026123D01*
Y021048D01*
X025536D01*
X025526Y021055D01*
X0255Y021098D01*
X025514Y02115D01*
D02*
G37*
G36*
X019997D02*
X01975D01*
Y020913D01*
X019997D01*
Y02115D01*
D02*
G37*
G36*
X020764D02*
X0205D01*
Y020886D01*
X020572Y020905D01*
X020644Y020947D01*
X020703Y021006D01*
X020745Y021078D01*
X020764Y02115D01*
D02*
G37*
G36*
X0204D02*
X020136D01*
X020155Y021078D01*
X020197Y021006D01*
X020256Y020947D01*
X020328Y020905D01*
X0204Y020886D01*
Y02115D01*
D02*
G37*
G36*
X039647Y0211D02*
X0394D01*
Y020863D01*
X039647D01*
Y0211D01*
D02*
G37*
G36*
X0176Y020714D02*
Y02045D01*
X017864D01*
X017845Y020522D01*
X017803Y020594D01*
X017744Y020653D01*
X017672Y020695D01*
X0176Y020714D01*
D02*
G37*
G36*
X0175D02*
X017428Y020695D01*
X017356Y020653D01*
X017297Y020594D01*
X017255Y020522D01*
X017236Y02045D01*
X0175D01*
Y020714D01*
D02*
G37*
G36*
X035955Y0205D02*
X035708D01*
Y020263D01*
X035955D01*
Y0205D01*
D02*
G37*
G36*
X0241Y020464D02*
Y0202D01*
X024364D01*
X024345Y020272D01*
X024303Y020344D01*
X024244Y020403D01*
X024172Y020445D01*
X0241Y020464D01*
D02*
G37*
G36*
X024D02*
X023928Y020445D01*
X023856Y020403D01*
X023797Y020344D01*
X023755Y020272D01*
X023736Y0202D01*
X024D01*
Y020464D01*
D02*
G37*
G36*
X017864Y02035D02*
X0176D01*
Y020086D01*
X017672Y020105D01*
X017744Y020147D01*
X017803Y020206D01*
X017845Y020278D01*
X017864Y02035D01*
D02*
G37*
G36*
X0175D02*
X017236D01*
X017255Y020278D01*
X017297Y020206D01*
X017356Y020147D01*
X017428Y020105D01*
X0175Y020086D01*
Y02035D01*
D02*
G37*
G36*
X024364Y0201D02*
X0241D01*
Y019836D01*
X024172Y019855D01*
X024244Y019897D01*
X024303Y019956D01*
X024345Y020028D01*
X024364Y0201D01*
D02*
G37*
G36*
X024D02*
X023736D01*
X023755Y020028D01*
X023797Y019956D01*
X023856Y019897D01*
X023928Y019855D01*
X024Y019836D01*
Y0201D01*
D02*
G37*
G36*
X035955Y019837D02*
X035708D01*
Y0196D01*
X035955D01*
Y019837D01*
D02*
G37*
G36*
X03295Y019664D02*
X032878Y019645D01*
X032806Y019603D01*
X032747Y019544D01*
X032705Y019472D01*
X032692Y019424D01*
X032642Y019431D01*
Y019637D01*
X032395D01*
Y01935D01*
Y019063D01*
X032642D01*
Y019269D01*
X032692Y019276D01*
X032705Y019228D01*
X032747Y019156D01*
X032806Y019097D01*
X032878Y019055D01*
X03295Y019036D01*
Y01935D01*
Y019664D01*
D02*
G37*
G36*
X03515D02*
Y0194D01*
X035414D01*
X035395Y019472D01*
X035353Y019544D01*
X035294Y019603D01*
X035222Y019645D01*
X03515Y019664D01*
D02*
G37*
G36*
X03505D02*
X034978Y019645D01*
X034906Y019603D01*
X034847Y019544D01*
X034805Y019472D01*
X034786Y0194D01*
X03505D01*
Y019664D01*
D02*
G37*
G36*
X03305D02*
Y0194D01*
X033314D01*
X033295Y019472D01*
X033253Y019544D01*
X033194Y019603D01*
X033122Y019645D01*
X03305Y019664D01*
D02*
G37*
G36*
X035955Y0195D02*
X035708D01*
Y019263D01*
X035955D01*
Y0195D01*
D02*
G37*
G36*
X040637Y019355D02*
X0404D01*
Y019108D01*
X040637D01*
Y019355D01*
D02*
G37*
G36*
X0403D02*
X040063D01*
Y019108D01*
X0403D01*
Y019355D01*
D02*
G37*
G36*
X035414Y0193D02*
X03515D01*
Y019036D01*
X035222Y019055D01*
X035294Y019097D01*
X035353Y019156D01*
X035395Y019228D01*
X035414Y0193D01*
D02*
G37*
G36*
X03505D02*
X034786D01*
X034805Y019228D01*
X034847Y019156D01*
X034906Y019097D01*
X034978Y019055D01*
X03505Y019036D01*
Y0193D01*
D02*
G37*
G36*
X039191Y018637D02*
Y0184D01*
X039437D01*
Y018637D01*
X039191D01*
D02*
G37*
G36*
X037837Y018559D02*
X0376D01*
Y018313D01*
X037837D01*
Y018559D01*
D02*
G37*
G36*
X0375D02*
X037263D01*
Y018313D01*
X0375D01*
Y018559D01*
D02*
G37*
G36*
X033292Y018387D02*
X033045D01*
Y01815D01*
X033292D01*
Y018387D01*
D02*
G37*
G36*
X039437Y0183D02*
X039191D01*
Y018063D01*
X039437D01*
Y0183D01*
D02*
G37*
G36*
X0376Y018114D02*
Y01785D01*
X037864D01*
X037845Y017922D01*
X037803Y017994D01*
X037744Y018053D01*
X037672Y018095D01*
X0376Y018114D01*
D02*
G37*
G36*
X0375D02*
X037428Y018095D01*
X037356Y018053D01*
X037297Y017994D01*
X037255Y017922D01*
X037236Y01785D01*
X0375D01*
Y018114D01*
D02*
G37*
G36*
X033292Y01805D02*
X033045D01*
Y017813D01*
X033292D01*
Y01805D01*
D02*
G37*
G36*
X037864Y01775D02*
X0376D01*
Y017486D01*
X037672Y017505D01*
X037744Y017547D01*
X037803Y017606D01*
X037845Y017678D01*
X037864Y01775D01*
D02*
G37*
G36*
X0375D02*
X037236D01*
X037255Y017678D01*
X037297Y017606D01*
X037356Y017547D01*
X037428Y017505D01*
X0375Y017486D01*
Y01775D01*
D02*
G37*
G36*
X034981Y017652D02*
X034458D01*
Y017406D01*
X034981D01*
Y017652D01*
D02*
G37*
G36*
X035456Y01767D02*
Y017406D01*
X03572D01*
X0357Y017478D01*
X035659Y01755D01*
X0356Y017609D01*
X035528Y01765D01*
X035456Y01767D01*
D02*
G37*
G36*
X035356D02*
X035283Y01765D01*
X035211Y017609D01*
X035152Y01755D01*
X035111Y017478D01*
X035091Y017406D01*
X035356D01*
Y01767D01*
D02*
G37*
G36*
X034358Y017652D02*
X033836D01*
Y017406D01*
X034358D01*
Y017652D01*
D02*
G37*
G36*
X033287Y017342D02*
X03305D01*
Y017095D01*
X033287D01*
Y017342D01*
D02*
G37*
G36*
X03295D02*
X032713D01*
Y017095D01*
X03295D01*
Y017342D01*
D02*
G37*
G36*
X034981Y017306D02*
X034458D01*
Y017059D01*
X034981D01*
Y017306D01*
D02*
G37*
G36*
X034358D02*
X033836D01*
Y017059D01*
X034358D01*
Y017306D01*
D02*
G37*
G36*
X03572D02*
X035456D01*
Y017041D01*
X035528Y017061D01*
X0356Y017102D01*
X035659Y017161D01*
X0357Y017233D01*
X03572Y017306D01*
D02*
G37*
G36*
X035356D02*
X035091D01*
X035111Y017233D01*
X035152Y017161D01*
X035211Y017102D01*
X035283Y017061D01*
X035356Y017041D01*
Y017306D01*
D02*
G37*
G36*
X037243Y017178D02*
X036141D01*
Y016671D01*
X034959D01*
Y016726D01*
X033857D01*
Y016673D01*
X0333D01*
X033295Y016678D01*
X033274Y016723D01*
X033287Y016748D01*
X033287Y016772D01*
Y016995D01*
X032713D01*
X032713Y016748D01*
X032726Y016723D01*
X032705Y016678D01*
X0327Y016673D01*
X031694D01*
X031681Y016686D01*
X031614Y016725D01*
X031539Y016745D01*
X031461D01*
X031386Y016725D01*
X031319Y016686D01*
X031264Y016631D01*
X031225Y016564D01*
X031205Y016489D01*
Y016411D01*
X031225Y016336D01*
X031264Y016269D01*
X031319Y016214D01*
X031386Y016175D01*
X031461Y016155D01*
X031539D01*
X031614Y016175D01*
X031681Y016214D01*
X031699Y016232D01*
X032734D01*
Y016179D01*
X033266D01*
Y016232D01*
X033857D01*
Y016174D01*
X034959D01*
Y016229D01*
X036141D01*
Y015722D01*
X036474D01*
Y0145D01*
X036425Y014475D01*
X036402Y014487D01*
X036378Y014487D01*
X036155D01*
Y0142D01*
Y013913D01*
X036402Y013913D01*
X036443Y013934D01*
X036452Y013934D01*
X036971D01*
Y014466D01*
X036916D01*
Y015722D01*
X037243D01*
Y017178D01*
D02*
G37*
G36*
X025407Y015636D02*
X0252D01*
Y01535D01*
X025407D01*
Y015636D01*
D02*
G37*
G36*
X02795Y015614D02*
Y01535D01*
X028214D01*
X028195Y015422D01*
X028153Y015494D01*
X028094Y015553D01*
X028022Y015595D01*
X02795Y015614D01*
D02*
G37*
G36*
X0251Y015636D02*
X024893D01*
Y01535D01*
X0251D01*
Y015636D01*
D02*
G37*
G36*
X02725Y01563D02*
X027043D01*
Y015344D01*
X02725D01*
Y01563D01*
D02*
G37*
G36*
X03115Y015264D02*
X031078Y015245D01*
X031006Y015203D01*
X030947Y015144D01*
X030905Y015072D01*
X030886Y015D01*
X03115D01*
Y015264D01*
D02*
G37*
G36*
X028214Y01525D02*
X02795D01*
Y014986D01*
X028022Y015005D01*
X028094Y015047D01*
X028153Y015106D01*
X028195Y015178D01*
X028214Y01525D01*
D02*
G37*
G36*
X027557Y01563D02*
X02735D01*
Y015294D01*
Y014958D01*
X027557D01*
Y015148D01*
X027564Y015152D01*
X02763Y015134D01*
X027647Y015106D01*
X027706Y015047D01*
X027778Y015005D01*
X02785Y014986D01*
Y0153D01*
Y015614D01*
X027778Y015595D01*
X027706Y015553D01*
X027647Y015494D01*
X02763Y015466D01*
X027564Y015448D01*
X027557Y015452D01*
Y01563D01*
D02*
G37*
G36*
X025407Y01525D02*
X0252D01*
Y014964D01*
X025407D01*
Y01525D01*
D02*
G37*
G36*
X0251D02*
X024893D01*
Y014964D01*
X0251D01*
Y01525D01*
D02*
G37*
G36*
X02725Y015244D02*
X027043D01*
Y014958D01*
X02725D01*
Y015244D01*
D02*
G37*
G36*
X032137Y014905D02*
X0319D01*
Y014658D01*
X032137D01*
Y014905D01*
D02*
G37*
G36*
X033037Y0149D02*
X0328D01*
Y014653D01*
X033037D01*
Y0149D01*
D02*
G37*
G36*
X0327D02*
X032463D01*
Y014653D01*
X0327D01*
Y0149D01*
D02*
G37*
G36*
X03115D02*
X030886D01*
X030905Y014828D01*
X030947Y014756D01*
X031006Y014697D01*
X031078Y014655D01*
X03115Y014636D01*
Y0149D01*
D02*
G37*
G36*
X038963Y015183D02*
X038137D01*
Y014042D01*
X038272D01*
Y0114D01*
X038282Y011328D01*
X038309Y011261D01*
X038353Y011203D01*
X040803Y008753D01*
X040861Y008709D01*
X040928Y008681D01*
X041Y008672D01*
X044184D01*
Y007611D01*
X047216D01*
Y010289D01*
X044184D01*
Y009228D01*
X041115D01*
X038828Y011515D01*
Y014042D01*
X038963D01*
Y014328D01*
X03958D01*
X039586Y014325D01*
X039661Y014305D01*
X039739D01*
X039814Y014325D01*
X039881Y014364D01*
X039936Y014419D01*
X039975Y014486D01*
X039995Y014561D01*
Y014639D01*
X039975Y014714D01*
X039936Y014781D01*
X039881Y014836D01*
X039814Y014875D01*
X039739Y014895D01*
X039661D01*
X03962Y014884D01*
X038963D01*
Y015183D01*
D02*
G37*
G36*
X03545Y014514D02*
Y01425D01*
X035714D01*
X035695Y014322D01*
X035653Y014394D01*
X035594Y014453D01*
X035522Y014495D01*
X03545Y014514D01*
D02*
G37*
G36*
X03535D02*
X035278Y014495D01*
X035206Y014453D01*
X035147Y014394D01*
X035105Y014322D01*
X035086Y01425D01*
X03535D01*
Y014514D01*
D02*
G37*
G36*
X036055Y014487D02*
X035808D01*
Y01425D01*
X036055D01*
Y014487D01*
D02*
G37*
G36*
Y01415D02*
X035808D01*
Y013913D01*
X036055D01*
Y01415D01*
D02*
G37*
G36*
X035714D02*
X03545D01*
Y013886D01*
X035522Y013905D01*
X035594Y013947D01*
X035653Y014006D01*
X035695Y014078D01*
X035714Y01415D01*
D02*
G37*
G36*
X03535D02*
X035086D01*
X035105Y014078D01*
X035147Y014006D01*
X035206Y013947D01*
X035278Y013905D01*
X03535Y013886D01*
Y01415D01*
D02*
G37*
G36*
X016253Y01031D02*
X014766D01*
Y009D01*
X016253D01*
Y01031D01*
D02*
G37*
G36*
X014666D02*
X013179D01*
Y009D01*
X014666D01*
Y01031D01*
D02*
G37*
G36*
X016253Y0089D02*
X014766D01*
Y00759D01*
X016253D01*
Y0089D01*
D02*
G37*
G36*
X014666D02*
X013179D01*
Y00759D01*
X014666D01*
Y0089D01*
D02*
G37*
%LPD*%
G36*
X041832Y026463D02*
X041832Y026463D01*
X041842Y026417D01*
X041868Y026378D01*
X041884Y026362D01*
X041884Y026361D01*
Y026294D01*
X041884Y026293D01*
X041868Y026277D01*
X041842Y026238D01*
X041832Y026192D01*
X041832Y026192D01*
Y025866D01*
X041535D01*
X041524Y025866D01*
X041485D01*
X041474Y025866D01*
X041172D01*
Y026187D01*
X041172Y026187D01*
X041163Y026233D01*
X041137Y026272D01*
X041137Y026272D01*
X041121Y026288D01*
X041094Y026323D01*
X041121Y026357D01*
X041137Y026373D01*
X041137Y026373D01*
X041163Y026412D01*
X041172Y026458D01*
X041172Y026458D01*
Y026784D01*
X04147D01*
X04148Y026784D01*
X04152D01*
X04153Y026784D01*
X041832D01*
Y026463D01*
D02*
G37*
G36*
X032677Y027866D02*
X032757Y027833D01*
X032843D01*
X032845Y027834D01*
X033015Y027665D01*
X033012Y027607D01*
X033006Y027603D01*
X032947Y027544D01*
X032905Y027472D01*
X032886Y0274D01*
X033514D01*
X033495Y027472D01*
X033453Y027544D01*
X033418Y02758D01*
X033439Y02763D01*
X0338D01*
X03423Y0272D01*
Y026206D01*
X034183Y026187D01*
X033966Y026405D01*
X033967Y026407D01*
Y026493D01*
X033934Y026573D01*
X033873Y026634D01*
X033793Y026667D01*
X033707D01*
X033627Y026634D01*
X033566Y026573D01*
X033533Y026493D01*
Y026407D01*
X033566Y026327D01*
X033627Y026266D01*
X033707Y026233D01*
X033793D01*
X033795Y026234D01*
X03403Y025999D01*
Y025527D01*
X033984Y025508D01*
X033894Y025597D01*
X033855Y025624D01*
X033854Y025624D01*
X033834Y025673D01*
X033773Y025734D01*
X033693Y025767D01*
X033607D01*
X033527Y025734D01*
X033466Y025673D01*
X033433Y025593D01*
Y025507D01*
X033466Y025427D01*
X033511Y025383D01*
X033511Y025366D01*
X033504Y02533D01*
X033463Y025315D01*
X033426Y02534D01*
X033414Y025342D01*
Y024963D01*
X033314D01*
Y025342D01*
X033302Y02534D01*
X033249Y025304D01*
X033248Y025302D01*
X033221Y02532D01*
X033167Y02533D01*
X033114Y02532D01*
X033068Y025289D01*
X033038Y025244D01*
X033027Y02519D01*
Y025104D01*
X032745D01*
X0325Y025349D01*
Y025734D01*
X032612Y025734D01*
X032653Y025713D01*
X032676Y025713D01*
X0329D01*
Y026D01*
Y026287D01*
X032653Y026287D01*
X03263Y026275D01*
X03258Y0263D01*
Y026499D01*
X032614Y026533D01*
X032653Y026513D01*
X032653Y026513D01*
X032653Y026513D01*
X0329D01*
Y0268D01*
X03295D01*
Y02685D01*
X033247D01*
Y027035D01*
X033322Y027055D01*
X033394Y027097D01*
X033453Y027156D01*
X033495Y027228D01*
X033514Y0273D01*
X032886D01*
X032905Y027228D01*
X032947Y027156D01*
X032965Y027137D01*
X032945Y027087D01*
X032653D01*
Y027087D01*
X032635Y027066D01*
X03258D01*
Y027894D01*
X03263Y027914D01*
X032677Y027866D01*
D02*
G37*
G36*
X031647Y023533D02*
X03165Y023523D01*
X03165Y023477D01*
X031647Y023467D01*
X030975Y022795D01*
X030929Y022814D01*
Y022879D01*
X029942D01*
X029826Y022995D01*
X029787Y023021D01*
X029741Y02303D01*
X029741Y02303D01*
X028916D01*
Y023185D01*
X028916D01*
Y023224D01*
X028916D01*
Y023595D01*
X02935Y02403D01*
X029771D01*
Y023721D01*
X030929D01*
Y02403D01*
X03115D01*
X031647Y023533D01*
D02*
G37*
%LPC*%
G36*
X033247Y02675D02*
X033D01*
Y026513D01*
X033247D01*
Y02675D01*
D02*
G37*
G36*
X033Y026287D02*
Y02605D01*
X033247D01*
Y026287D01*
X033D01*
D02*
G37*
G36*
X033247Y02595D02*
X033D01*
Y025713D01*
X033247D01*
Y02595D01*
D02*
G37*
%LPD*%
D14*
X04255Y0234D02*
X0441Y02185D01*
X04255Y0234D02*
Y0253D01*
X021095Y02205D02*
Y022795D01*
X0217Y0234D02*
Y023809D01*
X021095Y022795D02*
X0217Y0234D01*
X019105Y022564D02*
X0197Y023159D01*
Y02363D01*
X019105Y02205D02*
Y022564D01*
X039141Y01835D02*
X04D01*
X04035Y0187D02*
Y019405D01*
X04Y01835D02*
X04035Y0187D01*
X019107Y021202D02*
Y022048D01*
X019105Y02205D02*
X019107Y022048D01*
Y021202D02*
X019109Y0212D01*
X03935Y02115D02*
Y02205D01*
Y02115D02*
X04075D01*
X041Y0209D01*
Y0196D02*
Y0209D01*
X040805Y019405D02*
X041Y0196D01*
X04035Y019405D02*
X040805D01*
X045068Y025495D02*
Y028605D01*
X0449Y01735D02*
Y02105D01*
X0441Y02185D02*
X0449Y02105D01*
X043637Y016087D02*
X0449Y01735D01*
X045068Y023818D02*
Y025495D01*
X0441Y02285D02*
X045068Y023818D01*
X03935Y02205D02*
X0406D01*
X04085Y016087D02*
X043637D01*
X019698Y021202D02*
X0197Y0212D01*
X019698Y021202D02*
Y022048D01*
X019695Y02205D02*
X019698Y022048D01*
D16*
X043561Y027011D02*
X0436Y02705D01*
X042614Y026238D02*
X043208Y026833D01*
X043561D01*
X0436Y026794D01*
X043134Y027011D02*
X043561D01*
X0436Y02705D02*
X0439D01*
X04254Y026417D02*
X043134Y027011D01*
X041205Y02705D02*
Y027995D01*
X041209Y028D01*
X040848Y023398D02*
X04085Y0234D01*
X035913Y023398D02*
X040848D01*
X035915Y0232D02*
X04075D01*
X0441Y01985D01*
X035913Y023202D02*
X035915Y0232D01*
X0412Y0256D02*
X041209D01*
X041052Y025748D02*
X0412Y0256D01*
X040509Y026233D02*
X041006D01*
X041052Y026187D01*
Y025748D02*
Y026187D01*
X03788Y023604D02*
X040509Y026233D01*
X036175Y023603D02*
X036177Y023604D01*
X03788D01*
X035913Y023595D02*
X035921Y023603D01*
X036175D01*
X0412Y02705D02*
X041205D01*
X040435Y026412D02*
X041006D01*
X041052Y026458D01*
Y026902D01*
X0412Y02705D01*
X035913Y023792D02*
X035921Y023785D01*
X036175D01*
X037806Y023783D02*
X040435Y026412D01*
X036177Y023783D02*
X037806D01*
X036175Y023785D02*
X036177Y023783D01*
X037789Y023989D02*
X03815Y02435D01*
X035913Y023989D02*
X037789D01*
X03815Y02435D02*
Y03125D01*
X04085Y0234D02*
X0434Y02085D01*
X035913Y023398D02*
X035915Y0234D01*
X041999Y026238D02*
X042614D01*
X0436Y026794D02*
X0439D01*
X041953Y026192D02*
X041999Y026238D01*
X041805Y0256D02*
X041953Y025748D01*
Y026192D01*
X041805Y02705D02*
X041953Y026902D01*
Y026463D02*
Y026902D01*
X041999Y026417D02*
X04254D01*
X041953Y026463D02*
X041999Y026417D01*
X0418Y0256D02*
X041805D01*
X041795Y02705D02*
X041805D01*
X0434Y02085D02*
X0441D01*
X02375Y02515D02*
X02435D01*
X02465Y02545D02*
X025072D01*
X02435Y02515D02*
X02465Y02545D01*
X025072D02*
X02595D01*
X028898Y017007D02*
X028907D01*
X029995Y018095D01*
X0324D01*
X02875Y01686D02*
X028898Y017007D01*
X033688Y025512D02*
X033809D01*
X033955Y025367D01*
X03365Y02555D02*
X033688Y025512D01*
X039855Y019995D02*
X04035D01*
X039618Y020231D02*
X039855Y019995D01*
X0393Y020231D02*
X039618D01*
X02275Y0208D02*
X025806D01*
X025808Y020802D01*
X02115Y015705D02*
Y0192D01*
X02275Y0208D01*
X025706Y018056D02*
X026995Y019345D01*
X0306D01*
X02515Y018056D02*
X025706D01*
X0339Y0309D02*
X03445D01*
X033895Y02915D02*
X03445D01*
X0328Y02805D02*
X0331Y02775D01*
X03385D01*
X03435Y02725D01*
Y024965D02*
Y02725D01*
X03375Y02645D02*
X034151Y026049D01*
Y024964D02*
Y026049D01*
X035333Y024963D02*
Y026633D01*
X03715Y02845D01*
Y03125D01*
X0278Y01685D02*
X02875D01*
X0273Y01735D02*
X0278Y01685D01*
X0273Y01735D02*
Y01805D01*
X02875Y01685D02*
Y01686D01*
X0324Y018095D02*
X032405Y0181D01*
X0318Y0232D02*
X032585D01*
X0316Y0226D02*
Y023D01*
X032585Y0232D02*
X032587Y023202D01*
X0316Y023D02*
X0318Y0232D01*
X030922Y022572D02*
X03175Y0234D01*
X03035Y02245D02*
X030472Y022572D01*
X03175Y0234D02*
X032585D01*
X030472Y022572D02*
X030922D01*
X032585Y0234D02*
X032587Y023398D01*
X030195Y027355D02*
Y02935D01*
X03135Y0255D02*
Y0262D01*
X030195Y027355D02*
X03135Y0262D01*
X0287Y030245D02*
Y0314D01*
Y030245D02*
X029595Y02935D01*
X029605D01*
X033955Y024963D02*
Y025367D01*
X03185Y0245D02*
Y029341D01*
Y0245D02*
X032164Y024186D01*
X032587D01*
X031841Y02935D02*
X03185Y029341D01*
X03125Y02935D02*
Y0309D01*
X034348Y024963D02*
X03435Y024965D01*
X034151Y024964D02*
X034152Y024963D01*
X032562Y018257D02*
X033561Y019256D01*
X032415Y0181D02*
X032562Y018248D01*
Y018257D01*
X033561Y019256D02*
Y021637D01*
X03195Y01985D02*
X033167Y021067D01*
X028255Y01985D02*
X03195D01*
X02825Y019855D02*
X028255Y01985D01*
X028235Y02043D02*
X02825Y020445D01*
X02679Y02043D02*
X028235D01*
X026205Y023005D02*
X027559Y02165D01*
X0299D01*
X026205Y023005D02*
Y0239D01*
X02995Y02505D02*
Y02555D01*
X02935Y02475D02*
X02965D01*
X02995Y02505D01*
X029923Y02105D02*
X029924Y021051D01*
X02935Y02105D02*
X029923D01*
X02865Y022909D02*
X029741D01*
X0302Y02245D01*
X0293Y02415D02*
X03035D01*
X0302Y02245D02*
X03035D01*
X028807Y023657D02*
X0293Y02415D01*
X02865Y0235D02*
Y02351D01*
X028798Y023657D01*
X028807D01*
X03035Y02415D02*
X030387D01*
X033167Y021067D02*
Y021637D01*
X031912Y019507D02*
X033364Y020959D01*
X031912Y019498D02*
Y019507D01*
X031765Y01935D02*
X031912Y019498D01*
X033364Y020959D02*
Y021637D01*
X02235Y0246D02*
Y02825D01*
X02215Y0244D02*
X02235Y0246D01*
Y02825D02*
X023Y0289D01*
X0217Y0244D02*
X02215D01*
X02145Y02985D02*
X02295D01*
X023Y0299D01*
X02035Y02875D02*
X02145Y02985D01*
X02035Y02575D02*
Y02875D01*
X02033Y02573D02*
X02035Y02575D01*
X02033Y02457D02*
Y02573D01*
X020015Y024285D02*
X0201Y0242D01*
X02095D01*
X020015Y024285D02*
Y02457D01*
X02095Y0242D02*
X02115Y0244D01*
X0217D01*
X0262Y023905D02*
X026205Y0239D01*
X0312Y02415D02*
X03175Y0236D01*
X032582D02*
X032587Y023595D01*
X03175Y0236D02*
X032582D01*
X0262Y023905D02*
Y0252D01*
X02595Y02545D02*
X0262Y0252D01*
X03035Y0218D02*
Y02245D01*
Y0218D02*
X030672Y021478D01*
Y021051D02*
Y021478D01*
X030387Y02415D02*
X0312D01*
X030387D02*
X030698Y024461D01*
Y02555D01*
X02033Y02282D02*
Y02363D01*
Y02282D02*
X020505Y022645D01*
Y02205D02*
Y022645D01*
X032405Y0181D02*
X032415D01*
X031755Y01935D02*
X031765D01*
X0306Y019345D02*
X03175D01*
X031755Y01935D01*
D25*
X02825Y020445D02*
D03*
Y019855D02*
D03*
X02375Y02515D02*
D03*
Y025741D02*
D03*
X0371Y025141D02*
D03*
Y02455D02*
D03*
X02875Y016259D02*
D03*
Y01685D02*
D03*
X0306Y019345D02*
D03*
Y018755D02*
D03*
X04035Y019995D02*
D03*
Y019405D02*
D03*
X03755Y0192D02*
D03*
Y018609D02*
D03*
X033Y017045D02*
D03*
Y016455D02*
D03*
X02865Y022909D02*
D03*
Y0235D02*
D03*
X0217Y0244D02*
D03*
Y023809D02*
D03*
X03765Y02455D02*
D03*
Y025141D02*
D03*
X03945Y030045D02*
D03*
Y029455D02*
D03*
X03185Y015545D02*
D03*
Y014955D02*
D03*
X03275Y015541D02*
D03*
Y01495D02*
D03*
D26*
X041795Y02705D02*
D03*
X041205D02*
D03*
X026795Y0239D02*
D03*
X026205D02*
D03*
X0418Y028D02*
D03*
X041209D02*
D03*
X036005Y01955D02*
D03*
X036595D02*
D03*
X036005Y02055D02*
D03*
X036595D02*
D03*
X039141Y0176D02*
D03*
X03855D02*
D03*
X032405Y0181D02*
D03*
X032995D02*
D03*
X031841Y02935D02*
D03*
X03125D02*
D03*
X033305Y02915D02*
D03*
X033895D02*
D03*
X029605Y02935D02*
D03*
X030195D02*
D03*
X032345Y01935D02*
D03*
X031755D02*
D03*
X017564Y021207D02*
D03*
X018155D02*
D03*
X017555Y022107D02*
D03*
X018145D02*
D03*
X020505Y02205D02*
D03*
X021095D02*
D03*
X02035Y02575D02*
D03*
X020941D02*
D03*
X03855Y01835D02*
D03*
X039141D02*
D03*
X038759Y02205D02*
D03*
X03935D02*
D03*
X038759Y02115D02*
D03*
X03935D02*
D03*
X036105Y0142D02*
D03*
X036695D02*
D03*
X041209Y0256D02*
D03*
X0418D02*
D03*
X032359Y0268D02*
D03*
X03295D02*
D03*
X032359Y026D02*
D03*
X03295D02*
D03*
X019105Y02205D02*
D03*
X019695D02*
D03*
X019109Y0212D02*
D03*
X0197D02*
D03*
D27*
X0273Y01805D02*
D03*
Y015294D02*
D03*
X02515Y0153D02*
D03*
Y018056D02*
D03*
D28*
X03215Y0309D02*
D03*
X03125D02*
D03*
X0339D02*
D03*
X033D02*
D03*
D29*
X034545Y021637D02*
D03*
X033167Y024963D02*
D03*
X033364D02*
D03*
X033561D02*
D03*
X033758D02*
D03*
X033955D02*
D03*
X034152Y024963D02*
D03*
X034348D02*
D03*
X034545Y024963D02*
D03*
X034742D02*
D03*
X034939D02*
D03*
X035136D02*
D03*
X035333D02*
D03*
Y021637D02*
D03*
X035136D02*
D03*
X034939D02*
D03*
X034742D02*
D03*
X034348Y021637D02*
D03*
X034152D02*
D03*
X033955Y021637D02*
D03*
X033758D02*
D03*
X033561D02*
D03*
X033364D02*
D03*
X033167D02*
D03*
D30*
X026792Y021188D02*
D03*
X02679Y02043D02*
D03*
X025808Y020802D02*
D03*
D31*
X035913Y024383D02*
D03*
Y024186D02*
D03*
Y023989D02*
D03*
Y023792D02*
D03*
Y023595D02*
D03*
X035913Y023398D02*
D03*
Y023202D02*
D03*
X035913Y023005D02*
D03*
Y022808D02*
D03*
Y022611D02*
D03*
Y022414D02*
D03*
Y022217D02*
D03*
X032587D02*
D03*
Y022414D02*
D03*
Y022611D02*
D03*
Y022808D02*
D03*
Y023005D02*
D03*
X032587Y023202D02*
D03*
Y023398D02*
D03*
X032587Y023595D02*
D03*
Y023792D02*
D03*
Y023989D02*
D03*
Y024186D02*
D03*
Y024383D02*
D03*
D32*
X03855Y014613D02*
D03*
Y016187D02*
D03*
X04085Y014513D02*
D03*
Y016087D02*
D03*
D33*
X0439Y026538D02*
D03*
Y026794D02*
D03*
Y02705D02*
D03*
Y027306D02*
D03*
Y02755D02*
D03*
D34*
X045068Y025495D02*
D03*
Y028605D02*
D03*
D35*
X0393Y020231D02*
D03*
X038924Y0192D02*
D03*
X03855D02*
D03*
X039298D02*
D03*
X03855Y020231D02*
D03*
D36*
X03035Y02245D02*
D03*
Y02415D02*
D03*
D37*
X02033Y02457D02*
D03*
X020015D02*
D03*
X0197D02*
D03*
X019385D02*
D03*
X01907D02*
D03*
X018755D02*
D03*
Y02363D02*
D03*
X01907D02*
D03*
X019385D02*
D03*
X0197D02*
D03*
X020015D02*
D03*
X02033D02*
D03*
X020645D02*
D03*
Y02457D02*
D03*
D38*
X030672Y021051D02*
D03*
X029924D02*
D03*
X030698Y02555D02*
D03*
X02995D02*
D03*
D39*
X027828Y02545D02*
D03*
X025072D02*
D03*
D40*
X034408Y017356D02*
D03*
Y01645D02*
D03*
Y015544D02*
D03*
D41*
X036692Y01645D02*
D03*
D45*
X02045Y0212D02*
D03*
X03875Y02575D02*
D03*
X03765D02*
D03*
X04255Y02745D02*
D03*
Y0253D02*
D03*
X02405Y02015D02*
D03*
X0397Y0176D02*
D03*
X0278Y01625D02*
D03*
X02875Y018D02*
D03*
X03755Y0178D02*
D03*
X035406Y017356D02*
D03*
X0351Y01935D02*
D03*
X0354Y0142D02*
D03*
X04255Y0286D02*
D03*
X03945D02*
D03*
X03865Y02945D02*
D03*
X0332Y02735D02*
D03*
X0333Y0284D02*
D03*
Y03D02*
D03*
X01755Y0204D02*
D03*
X0312Y01495D02*
D03*
X0279Y0153D02*
D03*
X03655Y01875D02*
D03*
X03125D02*
D03*
X0315Y01645D02*
D03*
X01915Y02035D02*
D03*
X03875Y02265D02*
D03*
X033Y01935D02*
D03*
X0268Y0233D02*
D03*
Y0218D02*
D03*
X0252Y0212D02*
D03*
X0216Y02575D02*
D03*
X02305D02*
D03*
X0397Y0146D02*
D03*
X0406Y02205D02*
D03*
D48*
X03365Y02555D02*
D03*
X03445Y0309D02*
D03*
Y02915D02*
D03*
X0328Y02805D02*
D03*
X03375Y02645D02*
D03*
X0316Y0226D02*
D03*
X03135Y0255D02*
D03*
X0299Y02165D02*
D03*
X02935Y02475D02*
D03*
Y02105D02*
D03*
D50*
X02015Y0197D02*
X021095Y020645D01*
X01815Y0197D02*
Y022107D01*
X021095Y020645D02*
Y02205D01*
X0197Y0212D02*
X02045D01*
X03878Y02628D02*
X0403Y0278D01*
X03875Y02575D02*
X03878Y02578D01*
X0403Y0278D02*
Y029889D01*
X03878Y02578D02*
Y02628D01*
X0371Y025141D02*
X03765D01*
Y02575D01*
X04181Y028D02*
X041859Y027951D01*
Y027642D02*
X04202Y02748D01*
X0418Y028D02*
X04181D01*
X041859Y027642D02*
Y027951D01*
X04202Y02748D02*
X04252D01*
X04255Y02745D01*
X02515Y0153D02*
Y015379D01*
X02405Y016479D02*
X02515Y015379D01*
X02405Y016479D02*
Y02015D01*
X027805Y016255D02*
X028755D01*
X028759Y01625D01*
X0278D02*
X027805Y016255D01*
X029505Y018755D02*
X0306D01*
X02875Y018D02*
X029505Y018755D01*
X03755Y0178D02*
Y018609D01*
X035143Y01935D02*
X035343Y01955D01*
X036005D01*
X0351Y01935D02*
X035143D01*
X03349Y0142D02*
X0354D01*
X036105D01*
X031202Y014952D02*
X032748D01*
Y014943D02*
Y014952D01*
X03296Y0268D02*
Y027067D01*
X01815Y0157D02*
Y0197D01*
X02015D01*
X03215Y03015D02*
Y0309D01*
Y03015D02*
X032359Y029941D01*
X042553Y028603D02*
X045066D01*
X045068Y028605D01*
X04255Y0286D02*
X042553Y028603D01*
X03945Y0286D02*
Y029455D01*
X040139Y03005D02*
X0403Y029889D01*
X03945Y030045D02*
X039455Y03005D01*
X03945Y030045D02*
Y030854D01*
X039455Y03005D02*
X040139D01*
X03915Y031154D02*
X03945Y030854D01*
X03915Y031154D02*
Y03125D01*
X038652Y029452D02*
X039448D01*
X03865Y02945D02*
X038652Y029452D01*
X039448D02*
X03945Y029455D01*
X03295Y026D02*
Y0268D01*
X03296Y027067D02*
X0332Y027307D01*
X03295Y0268D02*
X03296D01*
X0332Y027307D02*
Y02735D01*
X0333Y0284D02*
X033302Y028402D01*
Y029148D02*
X033305Y02915D01*
X033302Y028402D02*
Y029148D01*
X032359Y026D02*
Y0268D01*
Y029941D01*
X023Y0309D02*
X02375Y03015D01*
X0312Y01495D02*
X031202Y014952D01*
X027303Y015297D02*
X027897D01*
X0273Y015294D02*
X027303Y015297D01*
X027897D02*
X0279Y0153D01*
X030505Y015545D02*
X03185D01*
X028759Y01625D02*
X0298D01*
X030505Y015545D01*
X025153Y015297D02*
X027297D01*
X0273Y015294D01*
X02515Y0153D02*
X025153Y015297D01*
X036573Y019527D02*
X036595Y01955D01*
X036573Y018773D02*
Y019527D01*
X03655Y01875D02*
X036573Y018773D01*
X031248Y018752D02*
X03125Y01875D01*
X0306Y018755D02*
X030602Y018752D01*
X031248D01*
X032748Y014943D02*
X03349Y0142D01*
X036695Y014246D02*
X036741Y0142D01*
X031502Y016452D02*
X032998D01*
X033Y016455D01*
X0315Y01645D02*
X031502Y016452D01*
X019109Y0212D02*
X01913Y02118D01*
Y02037D02*
Y02118D01*
Y02037D02*
X01915Y02035D01*
X03185Y015545D02*
X031852Y015543D01*
X032748D01*
X03275Y015541D01*
X032752Y015543D02*
X034406D01*
X03275Y015541D02*
X032752Y015543D01*
X034406D02*
X034408Y015544D01*
X02375Y025741D02*
Y03015D01*
X038755Y022055D02*
Y022645D01*
X03875Y02265D02*
X038755Y022645D01*
Y022055D02*
X038759Y02205D01*
X03855Y020231D02*
Y02095D01*
X03875Y02115D01*
X038759D01*
Y02205D01*
X036595Y01955D02*
Y02055D01*
X03765D02*
X037968Y020231D01*
X036595Y02055D02*
X03765D01*
X037968Y020231D02*
X03855D01*
X033002Y016452D02*
X034406D01*
X034408Y01645D01*
X033Y016455D02*
X033002Y016452D01*
X033Y017045D02*
X033044D01*
X033049Y01705D02*
X033827D01*
X034074Y017296D02*
X034349D01*
X033044Y017045D02*
X033049Y01705D01*
X034349Y017296D02*
X034408Y017356D01*
X033827Y01705D02*
X034074Y017296D01*
X032998Y017048D02*
Y018051D01*
X032995Y018053D02*
Y0181D01*
Y018053D02*
X032998Y018051D01*
Y017048D02*
X033Y017045D01*
X034408Y01645D02*
X036692D01*
Y014249D02*
X036695Y014246D01*
Y016446D01*
Y0142D02*
Y014246D01*
X036692Y01645D02*
X036695Y016446D01*
X036741Y0142D02*
X036745D01*
X032345Y01935D02*
X033D01*
X036Y01795D02*
Y019545D01*
X036005Y01955D02*
Y02055D01*
X036Y019545D02*
X036005Y01955D01*
X026795Y0239D02*
X026798Y023898D01*
Y023302D02*
Y023898D01*
Y023302D02*
X0268Y0233D01*
X026792Y021188D02*
X026796Y021192D01*
Y021796D01*
X0268Y0218D01*
X025206Y021194D02*
X026786D01*
X026792Y021188D01*
X0252Y0212D02*
X025206Y021194D01*
X027749Y02545D02*
X027828D01*
X026795Y024496D02*
X027749Y02545D01*
X026795Y0239D02*
Y024496D01*
X020941Y02575D02*
X0216D01*
X02305D02*
X023055Y025745D01*
X023745D02*
X02375Y025741D01*
X023055Y025745D02*
X023745D01*
X017559Y021212D02*
Y022103D01*
X017555Y022107D02*
X017559Y022103D01*
X035406Y017356D02*
X036Y01795D01*
X034408Y017356D02*
X035406D01*
X03755Y0192D02*
X03855D01*
Y01835D02*
Y0192D01*
Y0176D02*
Y01835D01*
Y016187D02*
Y0176D01*
D51*
X036483Y024383D02*
X03665Y02455D01*
X037031Y024186D02*
X0371Y024255D01*
X035913Y024186D02*
X037031D01*
X035913Y024383D02*
X036483D01*
X0371Y024255D02*
Y02455D01*
X03344Y024383D02*
X035913D01*
X035386Y024186D02*
X035913D01*
X043373Y026538D02*
X0439D01*
X04255Y025715D02*
X043373Y026538D01*
X03665Y02455D02*
Y02505D01*
X04255Y0253D02*
Y025715D01*
X043294Y027306D02*
X0439D01*
X04305Y02755D02*
X043294Y027306D01*
X0371Y02455D02*
X03765D01*
X036741Y025141D02*
X0371D01*
X03665Y02505D02*
X036741Y025141D01*
X033167Y024655D02*
Y024963D01*
Y024655D02*
X03344Y024383D01*
X035136Y023936D02*
X035386Y024186D01*
X035136Y021637D02*
Y023936D01*
Y020914D02*
Y021637D01*
X032359Y025291D02*
X032687Y024963D01*
X033167D01*
X032359Y025291D02*
Y026D01*
X03295Y0257D02*
X033364Y025286D01*
Y024963D02*
Y025286D01*
X03295Y0257D02*
Y026D01*
X038975Y018875D02*
X039141Y018709D01*
X038924Y0192D02*
X038975Y019149D01*
Y018875D02*
Y019149D01*
X039141Y01835D02*
Y018709D01*
X036595Y02055D02*
Y020881D01*
X035333Y021217D02*
Y021637D01*
Y021217D02*
X0356Y02095D01*
X036526D02*
X036595Y020881D01*
X0356Y02095D02*
X036526D01*
X0355Y02055D02*
X036005D01*
X035136Y020914D02*
X0355Y02055D01*
X0439Y02755D02*
X0439Y02755D01*
X04305Y02755D02*
X0439D01*
X04255Y02805D02*
Y0286D01*
Y02805D02*
X04305Y02755D01*
X020015Y02363D02*
Y023913D01*
Y022815D02*
Y02363D01*
X01907D02*
X019385D01*
X01815Y022107D02*
X018155D01*
X018145D02*
X01815D01*
X018283Y022235D02*
Y022245D01*
X01907Y023032D01*
Y02363D01*
X018155Y022107D02*
X018283Y022235D01*
X0197Y024228D02*
X020015Y023913D01*
X019695Y022495D02*
X020015Y022815D01*
X019695Y02205D02*
Y022495D01*
X0197Y024228D02*
Y02457D01*
Y02485D01*
X01795Y0251D02*
X01945D01*
X0197Y02485D01*
X017555Y024705D02*
X01795Y0251D01*
X017555Y022107D02*
Y024705D01*
X0392Y01975D02*
X03925Y0197D01*
X039298Y0192D02*
Y019652D01*
X03925Y0197D02*
X039298Y019652D01*
X03865Y01975D02*
X0392D01*
X03855Y01965D02*
X03865Y01975D01*
X03855Y0192D02*
Y01965D01*
D52*
X039141Y0176D02*
X0397D01*
X017554Y021207D02*
X017559Y021212D01*
X014716Y017566D02*
X01755Y0204D01*
X014716Y00895D02*
Y017566D01*
X032985Y030915D02*
X033Y0309D01*
X0322Y030918D02*
X032203Y030915D01*
X031969Y0321D02*
X0322Y031869D01*
X032203Y030915D02*
X032985D01*
X0322Y030918D02*
Y03095D01*
Y031869D01*
X03215Y0309D02*
X0322Y03095D01*
X0284Y0321D02*
X031969D01*
X0277Y0314D02*
X0284Y0321D01*
X0333Y029155D02*
Y03D01*
Y029155D02*
X033305Y02915D01*
X0349Y03D02*
X03615Y03125D01*
X0333Y03D02*
X0349D01*
X023Y0309D02*
X0262D01*
X0267Y0314D01*
X0277D01*
X017554Y020404D02*
Y021207D01*
X01755Y0204D02*
X017554Y020404D01*
X039694Y014606D02*
X0397Y0146D01*
X03855Y014613D02*
X038556Y014606D01*
X039694D01*
X03855Y0114D02*
Y014613D01*
Y0114D02*
X041Y00895D01*
X0457D01*
X039475Y016045D02*
X04085Y01467D01*
Y014513D02*
Y01467D01*
X038688Y016045D02*
X039475D01*
X03855Y016183D02*
X038688Y016045D01*
X03855Y016183D02*
Y016187D01*
D53*
X023Y0289D02*
D03*
Y0299D02*
D03*
Y0309D02*
D03*
X0297Y0314D02*
D03*
X0287D02*
D03*
X0441Y02185D02*
D03*
Y02085D02*
D03*
Y01985D02*
D03*
X03715Y03125D02*
D03*
X03815D02*
D03*
X03915D02*
D03*
D54*
X023Y0319D02*
D03*
X0441Y02285D02*
D03*
D55*
X0457Y00895D02*
D03*
X014716D02*
D03*
D56*
X0277Y0314D02*
D03*
X03615Y03125D02*
D03*
D57*
X02115Y015705D02*
D03*
D58*
X01815Y0157D02*
D03*
M02*
