G04*
G04 #@! TF.GenerationSoftware,Altium Limited,Altium Designer,21.3.2 (30)*
G04*
G04 Layer_Color=2752767*
%FSTAX24Y24*%
%MOIN*%
G70*
G04*
G04 #@! TF.SameCoordinates,0DAA6520-49A2-4E49-A6F4-E70CAC7CC759*
G04*
G04*
G04 #@! TF.FilePolarity,Positive*
G04*
G01*
G75*
%ADD62C,0.0020*%
%ADD63C,0.0027*%
D62*
X02292Y02882D02*
Y02898D01*
X02308D01*
Y02882D01*
X02292D01*
Y02982D02*
Y02998D01*
X02308D01*
Y02982D01*
X02292D01*
Y03082D02*
Y03098D01*
X02308D01*
Y03082D01*
X02292D01*
Y03182D02*
Y03198D01*
X02308D01*
Y03182D01*
X02292D01*
X02962Y03132D02*
Y03148D01*
X02978D01*
Y03132D01*
X02962D01*
X02862D02*
Y03148D01*
X02878D01*
Y03132D01*
X02862D01*
X02762D02*
Y03148D01*
X02778D01*
Y03132D01*
X02762D01*
X02115Y015625D02*
X02107Y015785D01*
X02123D01*
X02115Y015625D01*
X01815Y01562D02*
X01807Y01578D01*
X01823D01*
X01815Y01562D01*
X04402Y02277D02*
Y02293D01*
X04418D01*
Y02277D01*
X04402D01*
Y02177D02*
Y02193D01*
X04418D01*
Y02177D01*
X04402D01*
Y02077D02*
Y02093D01*
X04418D01*
Y02077D01*
X04402D01*
Y01977D02*
Y01993D01*
X04418D01*
Y01977D01*
X04402D01*
X03607Y03117D02*
Y03133D01*
X03623D01*
Y03117D01*
X03607D01*
X03707D02*
Y03133D01*
X03723D01*
Y03117D01*
X03707D01*
X03807D02*
Y03133D01*
X03823D01*
Y03117D01*
X03807D01*
X03907D02*
Y03133D01*
X03923D01*
Y03117D01*
X03907D01*
X02045Y02112D02*
X02049Y02116D01*
X02053D01*
X02049Y0212D01*
X02053Y02124D01*
X02049D01*
X02045Y02128D01*
X02041Y02124D01*
X02037D01*
X02041Y0212D01*
X02037Y02116D01*
X02041D01*
X02045Y02112D01*
X03875Y02567D02*
X03879Y02571D01*
X03883D01*
X03879Y02575D01*
X03883Y02579D01*
X03879D01*
X03875Y02583D01*
X03871Y02579D01*
X03867D01*
X03871Y02575D01*
X03867Y02571D01*
X03871D01*
X03875Y02567D01*
X03765D02*
X03769Y02571D01*
X03773D01*
X03769Y02575D01*
X03773Y02579D01*
X03769D01*
X03765Y02583D01*
X03761Y02579D01*
X03757D01*
X03761Y02575D01*
X03757Y02571D01*
X03761D01*
X03765Y02567D01*
X04255Y02737D02*
X04259Y02741D01*
X04263D01*
X04259Y02745D01*
X04263Y02749D01*
X04259D01*
X04255Y02753D01*
X04251Y02749D01*
X04247D01*
X04251Y02745D01*
X04247Y02741D01*
X04251D01*
X04255Y02737D01*
Y02522D02*
X04259Y02526D01*
X04263D01*
X04259Y0253D01*
X04263Y02534D01*
X04259D01*
X04255Y02538D01*
X04251Y02534D01*
X04247D01*
X04251Y0253D01*
X04247Y02526D01*
X04251D01*
X04255Y02522D01*
X02405Y02007D02*
X02409Y02011D01*
X02413D01*
X02409Y02015D01*
X02413Y02019D01*
X02409D01*
X02405Y02023D01*
X02401Y02019D01*
X02397D01*
X02401Y02015D01*
X02397Y02011D01*
X02401D01*
X02405Y02007D01*
X0397Y01752D02*
X03974Y01756D01*
X03978D01*
X03974Y0176D01*
X03978Y01764D01*
X03974D01*
X0397Y01768D01*
X03966Y01764D01*
X03962D01*
X03966Y0176D01*
X03962Y01756D01*
X03966D01*
X0397Y01752D01*
X0278Y01617D02*
X02784Y01621D01*
X02788D01*
X02784Y01625D01*
X02788Y01629D01*
X02784D01*
X0278Y01633D01*
X02776Y01629D01*
X02772D01*
X02776Y01625D01*
X02772Y01621D01*
X02776D01*
X0278Y01617D01*
X02875Y01792D02*
X02879Y01796D01*
X02883D01*
X02879Y018D01*
X02883Y01804D01*
X02879D01*
X02875Y01808D01*
X02871Y01804D01*
X02867D01*
X02871Y018D01*
X02867Y01796D01*
X02871D01*
X02875Y01792D01*
X03357Y02547D02*
X03361Y02555D01*
X03357Y02563D01*
X03365Y02559D01*
X03373Y02563D01*
X03369Y02555D01*
X03373Y02547D01*
X03365Y02551D01*
X03357Y02547D01*
X03755Y01772D02*
X03759Y01776D01*
X03763D01*
X03759Y0178D01*
X03763Y01784D01*
X03759D01*
X03755Y01788D01*
X03751Y01784D01*
X03747D01*
X03751Y0178D01*
X03747Y01776D01*
X03751D01*
X03755Y01772D01*
X035406Y017276D02*
X035446Y017316D01*
X035486D01*
X035446Y017356D01*
X035486Y017396D01*
X035446D01*
X035406Y017436D01*
X035366Y017396D01*
X035326D01*
X035366Y017356D01*
X035326Y017316D01*
X035366D01*
X035406Y017276D01*
X0351Y01927D02*
X03514Y01931D01*
X03518D01*
X03514Y01935D01*
X03518Y01939D01*
X03514D01*
X0351Y01943D01*
X03506Y01939D01*
X03502D01*
X03506Y01935D01*
X03502Y01931D01*
X03506D01*
X0351Y01927D01*
X0354Y01412D02*
X03544Y01416D01*
X03548D01*
X03544Y0142D01*
X03548Y01424D01*
X03544D01*
X0354Y01428D01*
X03536Y01424D01*
X03532D01*
X03536Y0142D01*
X03532Y01416D01*
X03536D01*
X0354Y01412D01*
X04255Y02852D02*
X04259Y02856D01*
X04263D01*
X04259Y0286D01*
X04263Y02864D01*
X04259D01*
X04255Y02868D01*
X04251Y02864D01*
X04247D01*
X04251Y0286D01*
X04247Y02856D01*
X04251D01*
X04255Y02852D01*
X03945D02*
X03949Y02856D01*
X03953D01*
X03949Y0286D01*
X03953Y02864D01*
X03949D01*
X03945Y02868D01*
X03941Y02864D01*
X03937D01*
X03941Y0286D01*
X03937Y02856D01*
X03941D01*
X03945Y02852D01*
X03865Y02937D02*
X03869Y02941D01*
X03873D01*
X03869Y02945D01*
X03873Y02949D01*
X03869D01*
X03865Y02953D01*
X03861Y02949D01*
X03857D01*
X03861Y02945D01*
X03857Y02941D01*
X03861D01*
X03865Y02937D01*
X03437Y03082D02*
X03441Y0309D01*
X03437Y03098D01*
X03445Y03094D01*
X03453Y03098D01*
X03449Y0309D01*
X03453Y03082D01*
X03445Y03086D01*
X03437Y03082D01*
Y02907D02*
X03441Y02915D01*
X03437Y02923D01*
X03445Y02919D01*
X03453Y02923D01*
X03449Y02915D01*
X03453Y02907D01*
X03445Y02911D01*
X03437Y02907D01*
X03272Y02797D02*
X03276Y02805D01*
X03272Y02813D01*
X0328Y02809D01*
X03288Y02813D01*
X03284Y02805D01*
X03288Y02797D01*
X0328Y02801D01*
X03272Y02797D01*
X03367Y02637D02*
X03371Y02645D01*
X03367Y02653D01*
X03375Y02649D01*
X03383Y02653D01*
X03379Y02645D01*
X03383Y02637D01*
X03375Y02641D01*
X03367Y02637D01*
X0332Y02727D02*
X03324Y02731D01*
X03328D01*
X03324Y02735D01*
X03328Y02739D01*
X03324D01*
X0332Y02743D01*
X03316Y02739D01*
X03312D01*
X03316Y02735D01*
X03312Y02731D01*
X03316D01*
X0332Y02727D01*
X0333Y02832D02*
X03334Y02836D01*
X03338D01*
X03334Y0284D01*
X03338Y02844D01*
X03334D01*
X0333Y02848D01*
X03326Y02844D01*
X03322D01*
X03326Y0284D01*
X03322Y02836D01*
X03326D01*
X0333Y02832D01*
Y02992D02*
X03334Y02996D01*
X03338D01*
X03334Y03D01*
X03338Y03004D01*
X03334D01*
X0333Y03008D01*
X03326Y03004D01*
X03322D01*
X03326Y03D01*
X03322Y02996D01*
X03326D01*
X0333Y02992D01*
X01755Y02032D02*
X01759Y02036D01*
X01763D01*
X01759Y0204D01*
X01763Y02044D01*
X01759D01*
X01755Y02048D01*
X01751Y02044D01*
X01747D01*
X01751Y0204D01*
X01747Y02036D01*
X01751D01*
X01755Y02032D01*
X0312Y01487D02*
X03124Y01491D01*
X03128D01*
X03124Y01495D01*
X03128Y01499D01*
X03124D01*
X0312Y01503D01*
X03116Y01499D01*
X03112D01*
X03116Y01495D01*
X03112Y01491D01*
X03116D01*
X0312Y01487D01*
X0279Y01522D02*
X02794Y01526D01*
X02798D01*
X02794Y0153D01*
X02798Y01534D01*
X02794D01*
X0279Y01538D01*
X02786Y01534D01*
X02782D01*
X02786Y0153D01*
X02782Y01526D01*
X02786D01*
X0279Y01522D01*
X03655Y01867D02*
X03659Y01871D01*
X03663D01*
X03659Y01875D01*
X03663Y01879D01*
X03659D01*
X03655Y01883D01*
X03651Y01879D01*
X03647D01*
X03651Y01875D01*
X03647Y01871D01*
X03651D01*
X03655Y01867D01*
X03125D02*
X03129Y01871D01*
X03133D01*
X03129Y01875D01*
X03133Y01879D01*
X03129D01*
X03125Y01883D01*
X03121Y01879D01*
X03117D01*
X03121Y01875D01*
X03117Y01871D01*
X03121D01*
X03125Y01867D01*
X0315Y01637D02*
X03154Y01641D01*
X03158D01*
X03154Y01645D01*
X03158Y01649D01*
X03154D01*
X0315Y01653D01*
X03146Y01649D01*
X03142D01*
X03146Y01645D01*
X03142Y01641D01*
X03146D01*
X0315Y01637D01*
X01915Y02027D02*
X01919Y02031D01*
X01923D01*
X01919Y02035D01*
X01923Y02039D01*
X01919D01*
X01915Y02043D01*
X01911Y02039D01*
X01907D01*
X01911Y02035D01*
X01907Y02031D01*
X01911D01*
X01915Y02027D01*
X03152Y02252D02*
X03156Y0226D01*
X03152Y02268D01*
X0316Y02264D01*
X03168Y02268D01*
X03164Y0226D01*
X03168Y02252D01*
X0316Y02256D01*
X03152Y02252D01*
X03127Y02542D02*
X03131Y0255D01*
X03127Y02558D01*
X03135Y02554D01*
X03143Y02558D01*
X03139Y0255D01*
X03143Y02542D01*
X03135Y02546D01*
X03127Y02542D01*
X03875Y02257D02*
X03879Y02261D01*
X03883D01*
X03879Y02265D01*
X03883Y02269D01*
X03879D01*
X03875Y02273D01*
X03871Y02269D01*
X03867D01*
X03871Y02265D01*
X03867Y02261D01*
X03871D01*
X03875Y02257D01*
X033Y01927D02*
X03304Y01931D01*
X03308D01*
X03304Y01935D01*
X03308Y01939D01*
X03304D01*
X033Y01943D01*
X03296Y01939D01*
X03292D01*
X03296Y01935D01*
X03292Y01931D01*
X03296D01*
X033Y01927D01*
X0268Y02322D02*
X02684Y02326D01*
X02688D01*
X02684Y0233D01*
X02688Y02334D01*
X02684D01*
X0268Y02338D01*
X02676Y02334D01*
X02672D01*
X02676Y0233D01*
X02672Y02326D01*
X02676D01*
X0268Y02322D01*
Y02172D02*
X02684Y02176D01*
X02688D01*
X02684Y0218D01*
X02688Y02184D01*
X02684D01*
X0268Y02188D01*
X02676Y02184D01*
X02672D01*
X02676Y0218D01*
X02672Y02176D01*
X02676D01*
X0268Y02172D01*
X0252Y02112D02*
X02524Y02116D01*
X02528D01*
X02524Y0212D01*
X02528Y02124D01*
X02524D01*
X0252Y02128D01*
X02516Y02124D01*
X02512D01*
X02516Y0212D01*
X02512Y02116D01*
X02516D01*
X0252Y02112D01*
X02982Y02157D02*
X02986Y02165D01*
X02982Y02173D01*
X0299Y02169D01*
X02998Y02173D01*
X02994Y02165D01*
X02998Y02157D01*
X0299Y02161D01*
X02982Y02157D01*
X02927Y02467D02*
X02931Y02475D01*
X02927Y02483D01*
X02935Y02479D01*
X02943Y02483D01*
X02939Y02475D01*
X02943Y02467D01*
X02935Y02471D01*
X02927Y02467D01*
Y02097D02*
X02931Y02105D01*
X02927Y02113D01*
X02935Y02109D01*
X02943Y02113D01*
X02939Y02105D01*
X02943Y02097D01*
X02935Y02101D01*
X02927Y02097D01*
X0216Y02567D02*
X02164Y02571D01*
X02168D01*
X02164Y02575D01*
X02168Y02579D01*
X02164D01*
X0216Y02583D01*
X02156Y02579D01*
X02152D01*
X02156Y02575D01*
X02152Y02571D01*
X02156D01*
X0216Y02567D01*
X02305D02*
X02309Y02571D01*
X02313D01*
X02309Y02575D01*
X02313Y02579D01*
X02309D01*
X02305Y02583D01*
X02301Y02579D01*
X02297D01*
X02301Y02575D01*
X02297Y02571D01*
X02301D01*
X02305Y02567D01*
X0397Y01452D02*
X03974Y01456D01*
X03978D01*
X03974Y0146D01*
X03978Y01464D01*
X03974D01*
X0397Y01468D01*
X03966Y01464D01*
X03962D01*
X03966Y0146D01*
X03962Y01456D01*
X03966D01*
X0397Y01452D01*
X0406Y02197D02*
X04064Y02201D01*
X04068D01*
X04064Y02205D01*
X04068Y02209D01*
X04064D01*
X0406Y02213D01*
X04056Y02209D01*
X04052D01*
X04056Y02205D01*
X04052Y02201D01*
X04056D01*
X0406Y02197D01*
D63*
X04578Y00895D02*
G03*
X04578Y00895I-00008J0D01*
G01*
X014796D02*
G03*
X014796Y00895I-00008J0D01*
G01*
M02*
