M48
;Layer_Color=9474304
;FILE_FORMAT=2:4
INCH,LZ
;TYPE=PLATED
T1F00S00C0.0157
T2F00S00C0.0276
T3F00S00C0.0300
T4F00S00C0.0315
T5F00S00C0.0433
%
T01
X0316Y0226
X03135Y0255
X03365Y02555
X03375Y02645
X0328Y02805
X03445Y02915
Y0309
X02935Y02475
X0299Y02165
X02935Y02105
T02
X0279Y0153
X0312Y01495
X0354Y0142
X0397Y0146
Y0176
X03755Y0178
X03655Y01875
X0351Y01935
X033
X03125Y01875
X0315Y01645
X035406Y017356
X03875Y02265
X0406Y02205
X04255Y0253
Y02745
Y0286
X03945
X03865Y02945
X03875Y02575
X03765
X0332Y02735
X0333Y0284
Y03
X0268Y0233
Y0218
X0252Y0212
X02405Y02015
X02045Y0212
X01915Y02035
X01755Y0204
X0216Y02575
X02305
X02875Y018
X0278Y01625
T03
X014716Y00895
X0457
T04
X01815Y0157
X02115Y015705
T05
X0441Y01985
Y02085
Y02185
Y02285
X023Y0289
Y0299
Y0309
Y0319
X0277Y0314
X0287
X0297
X03615Y03125
X03715
X03815
X03915
M30
